<svg width="115" height="120" viewBox="0 0 115 120" fill="none" xmlns="http://www.w3.org/2000/svg">
<g opacity="0.3">
<path d="M12.2285 18.2313V18.8874" stroke="black" stroke-width="0.659251" stroke-linejoin="round"/>
<path d="M12.2285 20.3044V25.2641" stroke="black" stroke-width="0.659251" stroke-linejoin="round" stroke-dasharray="3.56 3.56"/>
<path d="M12.2285 25.9727V26.6287H12.8846" stroke="black" stroke-width="0.659251" stroke-linejoin="round"/>
<path d="M14.1719 26.6287H54.7518" stroke="black" stroke-width="0.659251" stroke-linejoin="round" stroke-dasharray="3.24 3.24"/>
<path d="M55.3965 26.6287H56.0525V27.2847" stroke="black" stroke-width="0.659251" stroke-linejoin="round"/>
<path d="M56.0518 28.6021V93.8044" stroke="black" stroke-width="0.659251" stroke-linejoin="round" stroke-dasharray="3.31 3.31"/>
<path d="M56.0518 94.463V95.1191H56.7078" stroke="black" stroke-width="0.659251" stroke-linejoin="round"/>
<path d="M57.4961 95.119H58.677" stroke="black" stroke-width="0.659251" stroke-linejoin="round" stroke-dasharray="1.98 1.98"/>
<path d="M59.0703 95.119H59.7264" stroke="black" stroke-width="0.659251" stroke-linejoin="round"/>
<path d="M4.09375 93.2821V92.6261" stroke="black" stroke-width="0.659251" stroke-linejoin="round"/>
<path d="M4.09375 91.2773V64.9597" stroke="black" stroke-width="0.659251" stroke-linejoin="round" stroke-dasharray="3.39 3.39"/>
<path d="M4.09375 64.2852V63.6292H4.74979" stroke="black" stroke-width="0.659251" stroke-linejoin="round"/>
<path d="M5.94531 63.6292H14.9094" stroke="black" stroke-width="0.659251" stroke-linejoin="round" stroke-dasharray="3 3"/>
<path d="M15.5078 63.6292H16.1639V64.2852" stroke="black" stroke-width="0.659251" stroke-linejoin="round"/>
<path d="M16.165 65.5869V93.5499" stroke="black" stroke-width="0.659251" stroke-linejoin="round" stroke-dasharray="3.27 3.27"/>
<path d="M16.165 94.2006V94.8566H16.8211" stroke="black" stroke-width="0.659251" stroke-linejoin="round"/>
<path d="M18.1562 94.8567H46.8566" stroke="black" stroke-width="0.659251" stroke-linejoin="round" stroke-dasharray="3.35 3.35"/>
<path d="M47.5234 94.8566H48.1795V94.2006" stroke="black" stroke-width="0.659251" stroke-linejoin="round"/>
<path d="M48.1787 92.8833V38.1776" stroke="black" stroke-width="0.659251" stroke-linejoin="round" stroke-dasharray="3.31 3.31"/>
<path d="M48.1787 37.5188V36.8628H48.8347" stroke="black" stroke-width="0.659251" stroke-linejoin="round"/>
<path d="M50.1152 36.8628H100.677" stroke="black" stroke-width="0.659251" stroke-linejoin="round" stroke-dasharray="3.22 3.22"/>
<path d="M101.318 36.8628H101.974" stroke="black" stroke-width="0.659251" stroke-linejoin="round"/>
<path d="M15.378 11.8967C15.378 11.0615 15.0463 10.2605 14.4557 9.67C13.8652 9.07945 13.0642 8.74768 12.2291 8.74768C11.3939 8.74768 10.5929 9.07945 10.0024 9.67C9.41184 10.2605 9.08008 11.0615 9.08008 11.8967C9.08008 13.6339 12.2291 17.145 12.2291 17.145C12.2291 17.145 15.378 13.6339 15.378 11.8967Z" stroke="black" stroke-width="0.659251" stroke-linejoin="round"/>
<path d="M13.5765 11.8967C13.5765 11.6299 13.4974 11.3691 13.3492 11.1473C13.201 10.9255 12.9904 10.7526 12.7439 10.6505C12.4974 10.5484 12.2262 10.5217 11.9646 10.5738C11.7029 10.6258 11.4626 10.7543 11.274 10.9429C11.0853 11.1315 10.9569 11.3719 10.9048 11.6335C10.8528 11.8952 10.8795 12.1664 10.9816 12.4128C11.0837 12.6593 11.2565 12.87 11.4784 13.0182C11.7002 13.1664 11.961 13.2455 12.2277 13.2455C12.5852 13.2448 12.9279 13.1025 13.1807 12.8497C13.4335 12.5969 13.5758 12.2542 13.5765 11.8967Z" stroke="black" stroke-width="0.659251" stroke-linejoin="round"/>
<path d="M105.995 32.2417C105.974 31.5742 105.694 30.9412 105.214 30.4766C104.734 30.012 104.093 29.7522 103.425 29.7522C102.757 29.7522 102.115 30.012 101.636 30.4766C101.156 30.9412 100.876 31.5742 100.854 32.2417C100.854 33.6614 103.426 36.527 103.426 36.527C103.426 36.527 105.995 33.6614 105.995 32.2417Z" stroke="black" stroke-width="0.659251" stroke-linejoin="round"/>
<path d="M103.425 33.3438C104.034 33.3438 104.528 32.8504 104.528 32.2417C104.528 31.633 104.034 31.1395 103.425 31.1395C102.817 31.1395 102.323 31.633 102.323 32.2417C102.323 32.8504 102.817 33.3438 103.425 33.3438Z" stroke="black" stroke-width="0.659251" stroke-linejoin="round"/>
<path d="M102.315 48.291C102.33 47.6077 102.209 46.9282 101.958 46.2924C101.707 45.6567 101.332 45.0774 100.854 44.5887C100.376 44.0999 99.8059 43.7116 99.1759 43.4465C98.5459 43.1814 97.8694 43.0448 97.1859 43.0448C96.5024 43.0448 95.8258 43.1814 95.1959 43.4465C94.5659 43.7116 93.9953 44.0999 93.5175 44.5887C93.0397 45.0774 92.6644 45.6567 92.4136 46.2924C92.1628 46.9282 92.0415 47.6077 92.057 48.291C92.057 51.1225 97.1846 56.8405 97.1846 56.8405C97.1846 56.8405 102.315 51.1225 102.315 48.291Z" stroke="black" stroke-width="0.659251" stroke-linejoin="round"/>
<path d="M97.1854 50.4901C98.3999 50.4901 99.3844 49.5056 99.3844 48.2911C99.3844 47.0766 98.3999 46.092 97.1854 46.092C95.9709 46.092 94.9863 47.0766 94.9863 48.2911C94.9863 49.5056 95.9709 50.4901 97.1854 50.4901Z" stroke="black" stroke-width="0.659251" stroke-linejoin="round"/>
<path d="M17.611 52.9279C17.611 51.8687 17.1902 50.8528 16.4412 50.1038C15.6922 49.3548 14.6763 48.934 13.617 48.934C12.5577 48.934 11.5419 49.3548 10.7929 50.1038C10.0438 50.8528 9.62305 51.8687 9.62305 52.9279C9.62305 55.1322 13.617 59.5828 13.617 59.5828C13.617 59.5828 17.611 55.1322 17.611 52.9279Z" stroke="black" stroke-width="0.659251" stroke-linejoin="round"/>
<path d="M15.3272 52.9279C15.3272 52.5895 15.2268 52.2587 15.0388 51.9773C14.8508 51.696 14.5836 51.4767 14.271 51.3472C13.9583 51.2177 13.6143 51.1838 13.2824 51.2498C12.9505 51.3158 12.6457 51.4788 12.4064 51.718C12.1671 51.9573 12.0042 52.2622 11.9381 52.5941C11.8721 52.926 11.906 53.27 12.0355 53.5826C12.165 53.8953 12.3843 54.1625 12.6657 54.3505C12.947 54.5385 13.2778 54.6388 13.6162 54.6388C13.8409 54.6388 14.0634 54.5946 14.271 54.5086C14.4786 54.4226 14.6672 54.2966 14.826 54.1377C14.9849 53.9788 15.111 53.7902 15.1969 53.5826C15.2829 53.375 15.3272 53.1526 15.3272 52.9279Z" stroke="black" stroke-width="0.659251" stroke-linejoin="round"/>
<path d="M6.13809 98.0582C6.13809 97.7208 6.07164 97.3867 5.94254 97.075C5.81343 96.7634 5.6242 96.4802 5.38564 96.2416C5.14708 96.003 4.86387 95.8138 4.55218 95.6847C4.24049 95.5556 3.90642 95.4891 3.56905 95.4891C3.23168 95.4891 2.89761 95.5556 2.58592 95.6847C2.27422 95.8138 1.99101 96.003 1.75246 96.2416C1.5139 96.4802 1.32466 96.7634 1.19556 97.075C1.06645 97.3867 1 97.7208 1 98.0582C1 99.4779 3.56905 102.341 3.56905 102.341C3.56905 102.341 6.13809 99.4779 6.13809 98.0582Z" stroke="black" stroke-width="0.659251" stroke-linejoin="round"/>
<path d="M3.56894 99.1602C4.17764 99.1602 4.67109 98.6668 4.67109 98.0581C4.67109 97.4494 4.17764 96.9559 3.56894 96.9559C2.96024 96.9559 2.4668 97.4494 2.4668 98.0581C2.4668 98.6668 2.96024 99.1602 3.56894 99.1602Z" stroke="black" stroke-width="0.659251" stroke-linejoin="round"/>
</g>
<path d="M79.9327 14.8671V94.7202C79.9327 96.8424 79.0904 98.8779 77.5907 100.38C76.091 101.881 74.0566 102.726 71.9343 102.729H33.9523C31.8282 102.729 29.7911 101.885 28.2891 100.383C26.7872 98.8813 25.9434 96.8442 25.9434 94.7202V14.8671C25.9441 12.7435 26.7882 10.7071 28.29 9.20567C29.7919 7.70427 31.8286 6.86084 33.9523 6.86084H49.8337L49.8494 6.91857C50.3191 8.60853 51.4003 9.70805 52.5995 9.70805H53.2871C54.4863 9.70805 55.5674 8.60853 56.0372 6.91857L56.0555 6.86084H71.9343C74.0561 6.86362 76.0901 7.70828 77.5897 9.20938C79.0894 10.7105 79.932 12.7453 79.9327 14.8671Z" fill="#D6D6D6"/>
<path d="M59.0576 65.348V40.08H70.6563C70.7567 40.0803 70.8551 40.0517 70.9397 39.9978C71.0244 39.9438 71.0918 39.8667 71.1339 39.7756L79.9327 20.5143V17.9899L70.3073 39.0303H59.0576V6.86084H58.0079V19.8058C47.5323 18.7719 41.3944 23.7105 38.0801 28.0876C35.9967 30.8793 34.4477 34.0324 33.5114 37.3876L25.9434 32.5828V33.8266L39.4971 42.4312V57.7852L25.9512 55.3132V56.3813L58.0158 62.2279V65.1144L25.9512 90.7262V92.0698L40.4523 80.4867L51.5026 95.4444C51.5515 95.5104 51.6152 95.5641 51.6886 95.601C51.762 95.6379 51.843 95.6571 51.9251 95.657C51.9693 95.6569 52.0134 95.6516 52.0563 95.6412L69.4781 91.1802V102.729H70.5277V80.9984C70.5275 80.9015 70.5003 80.8066 70.4494 80.7241C70.3984 80.6417 70.3256 80.575 70.2391 80.5313L66.3265 78.5527L73.0128 71.2576L79.9327 73.9237V72.8137L73.0391 70.1633C72.9406 70.1249 72.8327 70.1171 72.7297 70.1409C72.6267 70.1648 72.5333 70.2193 72.4618 70.2971L65.345 78.062L51.9461 71.2838L58.8581 65.76C58.9203 65.7108 58.9706 65.6482 59.0051 65.5769C59.0397 65.5055 59.0576 65.4273 59.0576 65.348ZM69.4702 81.3212V90.0702L52.1298 94.5128L41.2658 79.8176L51.0434 72.0055L69.4702 81.3212ZM58.0079 61.152L40.5389 57.9662V43.082L58.0079 54.1822V61.152ZM58.0079 52.9305L34.443 37.9728C35.333 34.6331 36.8466 31.4919 38.9041 28.7148C43.4858 22.6635 49.9098 20.021 57.9948 20.8423L58.0079 52.9305Z" fill="white"/>
<path d="M79.9423 54.5444H78.3704L74.4027 64.4663H66.4673L70.6554 54.7648H64.4834V45.2864H73.7414L79.9423 33.2494V54.5444Z" fill="#C4C4C4"/>
<path d="M35.8461 16.132H27.9736V22.6923H35.8461V16.132Z" fill="#C4C4C4"/>
<path d="M42.8264 16.132H37.1582V20.8554H42.8264V16.132Z" fill="#C4C4C4"/>
<path d="M36.8105 37.0254L56.2949 49.6082V23.2171C56.2949 23.2171 42.358 21.8736 36.8105 37.0254Z" fill="#C4C4C4"/>
<path d="M48.1807 16.132H44.5068V19.1943H48.1807V16.132Z" fill="#C4C4C4"/>
<path d="M55.0022 77.7996L47.917 82.7855L51.8532 90.1331L66.0237 89.3458L66.8109 82.523L61.3002 80.1613L58.9384 83.8351L56.5767 82.523L58.676 78.5868L55.0022 77.7996Z" fill="#C4C4C4"/>
<path d="M32.2991 62.9968V77.1725L25.9434 80.4054V62.6976L32.2991 62.9968Z" fill="#C4C4C4"/>
<path d="M42.8797 71.7955V63.4953L34.0625 63.0807V76.2776L42.8797 71.7955Z" fill="#C4C4C4"/>
<path d="M44.2021 63.5583V71.1238L49.4924 68.434V63.805L44.2021 63.5583Z" fill="#C4C4C4"/>
<path d="M83.3772 36.1779V26.0303H82.4588V13.0381C82.4581 10.9142 81.614 8.87751 80.1122 7.3757C78.6104 5.87389 76.5737 5.02987 74.4498 5.02917H31.4347C29.3108 5.02987 27.2741 5.87389 25.7723 7.3757C24.2705 8.87751 23.4265 10.9142 23.4258 13.0381V100.441C23.4258 102.565 24.2696 104.602 25.7715 106.104C27.2735 107.606 29.3106 108.45 31.4347 108.45H74.4498C76.5739 108.45 78.611 107.606 80.113 106.104C81.615 104.602 82.4588 102.565 82.4588 100.441V44.8271H83.3772V38.8309H82.4588V36.1779H83.3772ZM79.9317 94.7201C79.9317 96.8424 79.0893 98.8779 77.5897 100.38C76.09 101.881 74.0555 102.726 71.9333 102.729H33.9513C31.8272 102.729 29.7901 101.885 28.2881 100.383C26.7861 98.8813 25.9423 96.8442 25.9423 94.7201V14.8671C25.943 12.7435 26.7871 10.7071 28.289 9.20566C29.7909 7.70427 31.8276 6.86083 33.9513 6.86083H49.8326L49.8484 6.91857C50.3181 8.60852 51.3993 9.70804 52.5985 9.70804H53.286C54.4853 9.70804 55.5664 8.60852 56.0361 6.91857L56.0545 6.86083H71.9333C74.0551 6.86361 76.0891 7.70828 77.5887 9.20937C79.0883 10.7105 79.931 12.7453 79.9317 14.8671V94.7201Z" fill="#707070" stroke="#263238" stroke-width="0.659251" stroke-linejoin="round"/>
<path d="M73.5233 6.13391H32.3608C31.3092 6.13391 30.2678 6.34109 29.2963 6.7436C28.3248 7.14612 27.442 7.7361 26.6986 8.47983C25.9551 9.22356 25.3654 10.1065 24.9632 11.0781C24.561 12.0498 24.3541 13.0912 24.3545 14.1428V99.3386C24.3545 101.462 25.1979 103.499 26.6993 105.001C28.2007 106.503 30.2371 107.347 32.3608 107.348H73.5233C75.6469 107.347 77.6833 106.503 79.1847 105.001C80.6861 103.499 81.5296 101.462 81.5296 99.3386V14.1428C81.5299 13.0912 81.3231 12.0498 80.9209 11.0781C80.5187 10.1065 79.929 9.22356 79.1855 8.47983C78.442 7.7361 77.5593 7.14612 76.5878 6.7436C75.6162 6.34109 74.5749 6.13391 73.5233 6.13391ZM79.9315 94.7201C79.9315 96.8424 79.0891 98.8779 77.5894 100.38C76.0897 101.881 74.0553 102.726 71.933 102.729H33.951C31.8269 102.729 29.7898 101.885 28.2879 100.383C26.7859 98.8813 25.9421 96.8442 25.9421 94.7201V14.8671C25.9428 12.7435 26.7869 10.707 28.2888 9.20563C29.7907 7.70423 31.8274 6.8608 33.951 6.8608H49.8324L49.8482 6.91853C50.3179 8.60849 51.399 9.70801 52.5983 9.70801H53.2858C54.485 9.70801 55.5662 8.60849 56.0359 6.91853L56.0543 6.8608H71.933C74.0549 6.86358 76.0889 7.70824 77.5885 9.20934C79.0881 10.7104 79.9308 12.7453 79.9315 14.8671V94.7201Z" fill="#263238" stroke="#263238" stroke-width="0.659251" stroke-linejoin="round"/>
<path d="M52.7759 7.99455C53.1904 7.99455 53.5264 7.65853 53.5264 7.24404C53.5264 6.82954 53.1904 6.49353 52.7759 6.49353C52.3614 6.49353 52.0254 6.82954 52.0254 7.24404C52.0254 7.65853 52.3614 7.99455 52.7759 7.99455Z" fill="white"/>
<path d="M30.7417 10.1253C30.7417 10.8863 29.8889 11.1592 29.8836 11.7418V11.7811H30.7129V12.0435H29.6055V11.8284C29.6055 11.0122 30.4609 10.8548 30.4609 10.1436C30.4609 9.88123 30.3743 9.7474 30.1644 9.7474C29.9545 9.7474 29.8705 9.89698 29.8705 10.12V10.3431H29.6081V10.1384C29.6081 9.75265 29.7865 9.49548 30.1749 9.49548C30.5633 9.49548 30.7417 9.73953 30.7417 10.1253Z" fill="#263238"/>
<path d="M32.1219 10.1227V10.1883C32.1364 10.2972 32.1144 10.4077 32.0593 10.5027C32.0042 10.5977 31.9192 10.6717 31.8175 10.7132C31.9184 10.7557 32.0026 10.8299 32.0576 10.9246C32.1125 11.0193 32.1351 11.1293 32.1219 11.238V11.4322C32.1219 11.8179 31.9435 12.0698 31.5525 12.0698C31.1615 12.0698 30.9883 11.8074 30.9883 11.4322V11.2511H31.2507V11.4427C31.2507 11.6683 31.3452 11.8048 31.5472 11.8048C31.7493 11.8048 31.8411 11.671 31.8411 11.4164V11.2222C31.8411 10.9729 31.7362 10.8549 31.5236 10.847H31.3845V10.5846H31.5499C31.5935 10.585 31.6368 10.576 31.6766 10.5582C31.7165 10.5403 31.752 10.514 31.7807 10.481C31.8094 10.4481 31.8306 10.4093 31.8428 10.3674C31.8551 10.3255 31.8581 10.2814 31.8516 10.2382V10.1227C31.8516 9.8603 31.7624 9.72909 31.5577 9.72909C31.353 9.72909 31.2612 9.8708 31.2612 10.0965V10.2277H30.9988V10.1227C30.9988 9.73697 31.1772 9.48767 31.563 9.48767C31.9487 9.48767 32.1219 9.73697 32.1219 10.1227Z" fill="#263238"/>
<path d="M32.6687 10.3142V10.6632H32.4062V10.3142H32.6687ZM32.6687 11.6866V12.0357H32.4062V11.6866H32.6687Z" fill="#263238"/>
<path d="M33.2376 10.5399C33.2744 10.4736 33.3291 10.419 33.3954 10.3824C33.4618 10.3457 33.5371 10.3285 33.6128 10.3326C33.9382 10.3326 34.0799 10.5688 34.0799 10.9309V11.4242C34.0799 11.81 33.8962 12.0619 33.5105 12.0619C33.1247 12.0619 32.9463 11.7995 32.9463 11.4242V11.2537H33.2087V11.4426C33.2087 11.6683 33.3032 11.8047 33.5052 11.8047C33.7073 11.8047 33.7991 11.6683 33.7991 11.4426V10.9519C33.7991 10.7236 33.7073 10.5871 33.5052 10.5871C33.4688 10.5838 33.4322 10.5882 33.3975 10.5999C33.3629 10.6116 33.3311 10.6304 33.3042 10.6551C33.2773 10.6798 33.2558 10.7099 33.2412 10.7434C33.2265 10.7768 33.2191 10.813 33.2192 10.8495V10.9073H32.9568L33.025 9.50598H34.0091V9.7684H33.2664L33.2376 10.5399Z" fill="#263238"/>
<path d="M35.4843 10.1175V10.1647H35.2219V10.0965C35.2219 9.86817 35.1275 9.73434 34.9228 9.73434C34.7181 9.73434 34.6157 9.8708 34.6157 10.1411V10.7079C34.6461 10.6261 34.7022 10.5564 34.7755 10.5091C34.8488 10.4618 34.9354 10.4395 35.0225 10.4455C35.3479 10.4455 35.4922 10.679 35.4922 11.0438V11.4269C35.4922 11.8127 35.3006 12.0646 34.9149 12.0646C34.5291 12.0646 34.335 11.8022 34.335 11.4269V10.1358C34.335 9.73697 34.5134 9.48767 34.9149 9.48767C35.3164 9.48767 35.4843 9.73172 35.4843 10.1175ZM34.6157 11.0622V11.4427C34.6157 11.6683 34.7102 11.8048 34.9149 11.8048C35.1196 11.8048 35.2141 11.6683 35.2141 11.4427V11.0622C35.2141 10.8365 35.117 10.7 34.9149 10.7C34.7128 10.7 34.6157 10.8365 34.6157 11.0622Z" fill="#263238"/>
<path d="M63.0321 10.2302H62.3184V12.012H63.0321V10.2302Z" fill="#263238"/>
<path d="M63.9813 9.87329H63.2676V12.012H63.9813V9.87329Z" fill="#263238"/>
<path d="M64.9315 9.61877H64.2178V12.0094H64.9315V9.61877Z" fill="#263238"/>
<path d="M65.8801 9.17798H65.1689V12.0094H65.8801V9.17798Z" fill="#263238"/>
<path d="M74.6976 11.9622H70.4229V9.33801H74.6976V11.9622ZM70.6617 11.7234H74.4614V9.58731H70.6617V11.7234Z" fill="#263238"/>
<path d="M73.2714 9.84448H71.0146V11.4662H73.2714V9.84448Z" fill="#263238"/>
<path d="M75.0838 10.3484H74.5459V10.9651H75.0838V10.3484Z" fill="#263238"/>
<path d="M68.8546 11.3927C68.826 11.3939 68.7977 11.3866 68.7733 11.3717C67.902 10.8469 67.3274 11.335 67.3037 11.3533C67.2717 11.3811 67.23 11.3951 67.1876 11.3922C67.1453 11.3892 67.1059 11.3696 67.0781 11.3376C67.0644 11.3219 67.0539 11.3037 67.0473 11.284C67.0407 11.2643 67.038 11.2435 67.0395 11.2228C67.0409 11.202 67.0465 11.1818 67.0558 11.1632C67.0651 11.1446 67.078 11.1281 67.0938 11.1145C67.1227 11.0857 67.8601 10.4559 68.9307 11.0962C68.9489 11.107 68.9647 11.1212 68.9773 11.1382C68.9899 11.1551 68.999 11.1744 69.0042 11.1949C69.0093 11.2154 69.0103 11.2367 69.0071 11.2576C69.004 11.2785 68.9968 11.2985 68.9858 11.3166C68.9721 11.3393 68.9529 11.3582 68.93 11.3715C68.907 11.3848 68.8811 11.3921 68.8546 11.3927Z" fill="#263238"/>
<path d="M69.1732 10.8574C69.1444 10.857 69.1163 10.8488 69.0918 10.8338C67.8348 10.0859 66.9925 10.8102 66.9794 10.8181C66.9471 10.8441 66.906 10.8566 66.8648 10.8529C66.8235 10.8493 66.7852 10.8298 66.758 10.7985C66.7308 10.7673 66.7168 10.7267 66.719 10.6853C66.7211 10.6439 66.7392 10.605 66.7694 10.5766C66.7694 10.5766 67.8007 9.69492 69.2545 10.5609C69.2909 10.5823 69.3174 10.6171 69.3282 10.6579C69.339 10.6987 69.3333 10.7421 69.3122 10.7787C69.2976 10.8025 69.2772 10.8222 69.2528 10.836C69.2285 10.8497 69.2011 10.8571 69.1732 10.8574Z" fill="#263238"/>
<path d="M69.4685 10.2356C69.4396 10.2358 69.4113 10.2276 69.3871 10.2119C67.7916 9.26462 66.7341 10.1568 66.6895 10.1962C66.6574 10.224 66.6157 10.238 66.5734 10.235C66.5311 10.2321 66.4916 10.2124 66.4638 10.1804C66.4501 10.1648 66.4396 10.1466 66.433 10.1269C66.4264 10.1072 66.4237 10.0864 66.4252 10.0656C66.4267 10.0449 66.4322 10.0247 66.4415 10.0061C66.4509 9.9875 66.4638 9.97096 66.4795 9.95739C66.4927 9.95739 67.7496 8.86837 69.5498 9.93903C69.5679 9.94957 69.5836 9.96361 69.5962 9.98033C69.6088 9.99704 69.6179 10.0161 69.623 10.0364C69.6282 10.0566 69.6292 10.0777 69.6261 10.0984C69.623 10.1191 69.6158 10.139 69.6049 10.1568C69.5909 10.1806 69.5709 10.2003 69.547 10.2141C69.5231 10.2279 69.4961 10.2353 69.4685 10.2356Z" fill="#263238"/>
<path d="M67.9738 12.0619C68.1955 12.0619 68.3753 11.8821 68.3753 11.6604C68.3753 11.4387 68.1955 11.2589 67.9738 11.2589C67.752 11.2589 67.5723 11.4387 67.5723 11.6604C67.5723 11.8821 67.752 12.0619 67.9738 12.0619Z" fill="#263238"/>
<path d="M105.975 79.6969C105.988 79.6969 106.237 78.7365 106.237 78.6735C106.339 77.9466 106.108 76.4823 105.366 76.1228C105.242 76.0685 105.108 76.0408 104.972 76.0414C104.837 76.042 104.703 76.0709 104.58 76.1262C104.456 76.1816 104.345 76.2622 104.255 76.3628C104.164 76.4635 104.096 76.5819 104.054 76.7106C103.854 77.2564 104.106 77.9256 104.405 78.3848C104.752 78.9254 105.975 79.6943 105.975 79.6969Z" fill="#263238"/>
<path d="M91.3769 79.3742C91.9674 79.6366 93.4107 79.5973 93.4107 79.5973C93.4107 79.5973 93.101 78.6526 93.0748 78.5948C92.7572 77.9336 91.7627 76.8393 90.9413 76.9495C90.8059 76.9708 90.6765 77.0205 90.5616 77.0953C90.4467 77.17 90.3489 77.2682 90.2746 77.3834C90.2003 77.4986 90.1512 77.6282 90.1304 77.7637C90.1096 77.8992 90.1177 78.0376 90.1541 78.1697C90.2958 78.7392 90.8731 79.159 91.3769 79.3742Z" fill="#263238"/>
<path d="M110.284 74.4644C109.466 74.3778 108.495 75.4983 108.185 76.1675C108.159 76.2278 107.86 77.1804 107.875 77.1804H107.891C107.736 77.3562 107.574 77.5451 107.398 77.7577C107.078 78.1487 106.721 78.5948 106.364 79.1091C105.973 79.6569 105.616 80.2273 105.293 80.8175C104.927 81.4754 104.621 82.1648 104.377 82.8774V82.9037C104.377 82.6649 104.377 81.9904 104.364 81.938C104.27 81.2111 103.658 79.8596 102.85 79.7101C102.715 79.6885 102.578 79.6956 102.446 79.731C102.314 79.7665 102.191 79.8293 102.085 79.9156C101.979 80.0018 101.893 80.1094 101.832 80.2314C101.77 80.3534 101.736 80.4869 101.73 80.6233C101.68 81.2032 102.1 81.7805 102.517 82.1479C102.979 82.5599 104.259 82.9588 104.354 82.9903C104.124 83.7218 103.943 84.4678 103.813 85.2234C103.734 85.6643 103.669 86.1077 103.608 86.5565C103.608 86.3465 103.608 86.1602 103.608 86.1366C103.514 85.4071 102.903 84.0557 102.094 83.9061C101.959 83.8849 101.822 83.8924 101.69 83.9282C101.558 83.9639 101.435 84.0271 101.329 84.1135C101.224 84.1999 101.137 84.3077 101.076 84.4298C101.015 84.5518 100.98 84.6855 100.974 84.8219C100.924 85.3992 101.344 85.9792 101.761 86.3439C102.178 86.7087 103.262 87.0761 103.551 87.1705C103.527 87.3411 103.506 87.5117 103.485 87.6954C103.385 88.5193 103.291 89.3433 103.173 90.1489C103.134 90.4324 103.081 90.7105 103.031 90.9887C103.031 90.805 103.031 90.6475 103.031 90.6239C102.937 89.897 102.328 88.5456 101.517 88.396C101.382 88.3748 101.244 88.3824 101.112 88.4181C100.981 88.4538 100.858 88.517 100.752 88.6034C100.646 88.6899 100.56 88.7976 100.499 88.9197C100.437 89.0418 100.403 89.1754 100.397 89.3118C100.349 89.8892 100.769 90.4691 101.184 90.8339C101.598 91.1986 102.58 91.5319 102.921 91.6421C102.861 91.9255 102.803 92.2089 102.732 92.4818C102.677 92.6655 102.64 92.8466 102.577 93.0303C102.514 93.214 102.459 93.3924 102.404 93.5708C102.278 93.9094 102.155 94.261 102.026 94.589C101.937 94.8173 101.85 95.0351 101.764 95.2529C101.808 94.9695 101.884 94.4158 101.884 94.3686C101.874 93.7232 101.7 93.091 101.378 92.5317C101.38 92.4597 101.376 92.3877 101.365 92.3165C101.348 92.181 101.303 92.0506 101.232 91.9338C101.161 91.8169 101.067 91.7163 100.955 91.6383C100.843 91.5604 100.715 91.5069 100.581 91.4813C100.447 91.4557 100.309 91.4587 100.176 91.4899C99.3888 91.7024 98.8771 93.0985 98.8378 93.8306C98.8378 93.8726 98.864 94.3555 98.8876 94.6441C98.8483 94.4709 98.8115 94.303 98.7669 94.1193C98.6829 93.7677 98.5911 93.4213 98.4914 93.046L98.3024 92.4949C98.2526 92.3139 98.1739 92.1276 98.1109 91.9412C97.9534 91.5109 97.775 91.0831 97.586 90.6554C97.8931 90.5819 98.9821 90.3038 99.4229 89.9705C99.8638 89.6372 100.32 89.0888 100.315 88.5088C100.319 88.3724 100.294 88.2366 100.242 88.1104C100.19 87.9842 100.111 87.8704 100.013 87.7764C99.9135 87.6824 99.7959 87.6102 99.6672 87.5646C99.5385 87.519 99.4016 87.5009 99.2655 87.5117C98.4468 87.6009 97.7382 88.9025 97.5913 89.611C97.5913 89.6582 97.5336 90.1857 97.5126 90.4743C97.3945 90.2119 97.279 89.9653 97.1531 89.7081C96.7883 88.9733 96.3947 88.2412 96.0063 87.5064C95.8856 87.2807 95.7701 87.0577 95.6547 86.832C95.7649 86.8058 97.0638 86.504 97.5546 86.1287C97.9902 85.7955 98.4494 85.2496 98.4468 84.6697C98.4505 84.5332 98.4255 84.3975 98.3733 84.2713C98.3212 84.1451 98.2431 84.0313 98.1441 83.9373C98.0451 83.8432 97.9275 83.7711 97.7988 83.7254C97.6701 83.6798 97.5332 83.6618 97.3971 83.6725C96.581 83.7618 95.8725 85.0633 95.7229 85.7719C95.7229 85.827 95.6442 86.5853 95.6363 86.7795C95.3739 86.2836 95.1246 85.7876 94.8963 85.289C94.5851 84.6156 94.3169 83.9232 94.0933 83.2159C94.1458 83.2159 95.5051 82.8958 96.0063 82.51C96.4419 82.1768 96.9038 81.6309 96.8985 81.051C96.9022 80.9145 96.8772 80.7788 96.8251 80.6526C96.773 80.5264 96.6948 80.4126 96.5959 80.3185C96.4969 80.2245 96.3792 80.1523 96.2505 80.1067C96.1218 80.0611 95.985 80.0431 95.8489 80.0538C95.0301 80.143 94.3216 81.4446 94.172 82.1531C94.172 82.2004 94.109 82.7803 94.0907 83.0559H94.0434C93.8395 82.3375 93.6999 81.6025 93.6262 80.8594C93.5816 80.4527 93.5606 80.0591 93.5475 79.6759C93.8099 79.6445 94.9881 79.487 95.4788 79.1905C95.9696 78.8939 96.4655 78.4032 96.5285 77.8364C96.547 77.7013 96.5368 77.5637 96.4987 77.4328C96.4606 77.3018 96.3954 77.1803 96.3073 77.0761C96.2192 76.9719 96.1102 76.8875 95.9874 76.8281C95.8646 76.7688 95.7307 76.7359 95.5943 76.7316C94.7703 76.7316 93.9227 77.9466 93.697 78.6447C93.6839 78.684 93.6026 79.0829 93.5448 79.3742C93.5448 79.2036 93.5448 79.0252 93.5448 78.8493C93.5448 78.2274 93.5868 77.6606 93.6262 77.1568C93.6498 76.8681 93.6761 76.6109 93.7049 76.3695C93.9437 76.2042 94.8937 75.535 95.1876 75.0574C95.4815 74.5798 95.7124 73.9133 95.492 73.3727C95.4462 73.2442 95.3739 73.1267 95.2797 73.0279C95.1856 72.929 95.0717 72.8511 94.9455 72.7992C94.8193 72.7472 94.6836 72.7223 94.5472 72.7262C94.4108 72.7301 94.2767 72.7626 94.1536 72.8217C93.4241 73.1995 93.2299 74.6717 93.3507 75.396C93.3507 75.4563 93.6393 76.4168 93.6498 76.4089H93.6656C93.6341 76.6424 93.6 76.8917 93.5711 77.1646C93.5212 77.6685 93.4687 78.2379 93.4556 78.8625C93.433 79.5346 93.4488 80.2075 93.5029 80.8778C93.5609 81.6293 93.6865 82.3741 93.8781 83.1031C93.8773 83.1118 93.8773 83.1206 93.8781 83.1293C93.7469 82.9246 93.3533 82.3683 93.3323 82.329C92.8521 81.7753 91.5977 80.9854 90.842 81.3055C90.7176 81.3623 90.6066 81.4446 90.5161 81.5471C90.4256 81.6496 90.3578 81.7699 90.3169 81.9004C90.2761 82.0309 90.2632 82.1685 90.279 82.3042C90.2949 82.44 90.3392 82.5709 90.409 82.6885C90.6898 83.1976 91.3589 83.4469 91.9021 83.5282C92.5135 83.6174 93.802 83.2422 93.9044 83.2133C94.1169 83.9504 94.3799 84.672 94.6916 85.373C94.8674 85.785 95.059 86.1917 95.2558 86.5985C95.1377 86.4253 95.0327 86.2731 95.0144 86.2547C94.5342 85.6984 93.2798 84.9085 92.5241 85.2287C92.3997 85.2854 92.2886 85.3677 92.1982 85.4702C92.1077 85.5727 92.0399 85.6931 91.999 85.8235C91.9582 85.954 91.9453 86.0916 91.9611 86.2274C91.977 86.3631 92.0212 86.494 92.0911 86.6116C92.3718 87.1207 93.041 87.3726 93.5842 87.4513C94.1274 87.53 95.2374 87.2335 95.5287 87.1522C95.6074 87.307 95.6835 87.4618 95.7596 87.6166C96.1323 88.3593 96.5075 89.0993 96.8539 89.8367C96.9772 90.0991 97.0875 90.3615 97.1977 90.6239C97.0953 90.4717 97.0061 90.3431 96.9904 90.3248C96.5101 89.7711 95.2532 88.9786 94.4974 89.3013C94.373 89.358 94.2619 89.4403 94.1715 89.5429C94.0811 89.6454 94.0133 89.7659 93.9727 89.8965C93.9321 90.027 93.9195 90.1647 93.9357 90.3005C93.952 90.4362 93.9967 90.567 94.067 90.6843C94.3452 91.1907 95.0144 91.4427 95.5576 91.5214C96.1008 91.6001 97.1058 91.3351 97.4522 91.238C97.5572 91.5004 97.6648 91.7785 97.7566 92.0436C97.8143 92.2273 97.8826 92.3978 97.9298 92.5868C97.977 92.7757 98.0322 92.9515 98.082 93.1326C98.1686 93.4842 98.2578 93.8464 98.3313 94.1823C98.3838 94.4237 98.4284 94.652 98.4756 94.8829C98.3575 94.6205 98.1161 94.1193 98.0899 94.0799C97.6989 93.458 96.5784 92.4871 95.7832 92.6891C95.6504 92.7261 95.5269 92.7909 95.4209 92.8792C95.315 92.9676 95.229 93.0774 95.1687 93.2015C95.1084 93.3255 95.0752 93.461 95.0712 93.5988C95.0672 93.7367 95.0926 93.8739 95.1456 94.0012C95.345 94.547 95.9696 94.896 96.4944 95.0509C97.0717 95.2267 98.3497 95.0666 98.5097 95.0509C98.5858 95.4314 98.6567 95.804 98.717 96.1583C98.9322 97.3785 99.0661 98.4019 99.15 99.1209C99.1632 99.2469 99.1763 99.3623 99.1868 99.4699H96.7122L97.468 114.202H101.981L102.737 99.4699H100.402L100.454 99.3624C100.769 98.7037 101.21 97.7564 101.682 96.5991C101.835 96.2317 101.987 95.8381 102.142 95.4314C102.296 95.4655 103.561 95.7227 104.152 95.5888C104.677 95.4681 105.333 95.1663 105.574 94.6362C105.634 94.5138 105.668 94.38 105.673 94.2437C105.678 94.1073 105.655 93.9714 105.604 93.8447C105.553 93.718 105.477 93.6034 105.379 93.5083C105.281 93.4132 105.164 93.3397 105.036 93.2927C104.249 93.0303 103.068 93.9146 102.63 94.505C102.606 94.5418 102.367 94.9511 102.223 95.2109C102.286 95.0456 102.346 94.8829 102.409 94.7124C102.533 94.3738 102.648 94.0301 102.771 93.6627C102.826 93.4842 102.879 93.3032 102.934 93.1195C102.989 92.9358 103.031 92.7416 103.081 92.55C103.186 92.1039 103.273 91.6473 103.343 91.1881C103.64 91.2957 104.703 91.6631 105.251 91.6263C105.8 91.5896 106.485 91.3849 106.802 90.8995C106.881 90.7877 106.934 90.6606 106.96 90.5266C106.987 90.3926 106.984 90.2545 106.953 90.1216C106.922 89.9886 106.863 89.8636 106.781 89.7548C106.698 89.6461 106.594 89.5559 106.474 89.4903C105.745 89.1124 104.432 89.8078 103.913 90.3248C103.881 90.3563 103.548 90.7709 103.372 91.0018C103.414 90.7236 103.459 90.4481 103.496 90.1647C103.595 89.3486 103.674 88.522 103.758 87.6954L103.837 86.937C103.942 86.9763 105.193 87.4434 105.81 87.3988C106.356 87.3621 107.043 87.16 107.358 86.6746C107.437 86.5628 107.491 86.4357 107.517 86.3015C107.544 86.1674 107.541 86.0293 107.511 85.8961C107.48 85.7629 107.421 85.6377 107.339 85.5286C107.257 85.4195 107.153 85.3289 107.033 85.2628C106.301 84.8875 104.991 85.5803 104.472 86.0999C104.432 86.1392 103.947 86.7349 103.842 86.8871C103.9 86.3308 103.965 85.7771 104.049 85.2365C104.159 84.5025 104.318 83.7766 104.524 83.0637C104.572 83.0821 105.876 83.5754 106.506 83.5308C107.054 83.4915 107.739 83.292 108.056 82.8039C108.135 82.6922 108.189 82.5651 108.215 82.4311C108.241 82.2971 108.238 82.159 108.207 82.026C108.176 81.8931 108.118 81.7681 108.035 81.6593C107.953 81.5505 107.848 81.4604 107.728 81.3948C106.999 81.0169 105.689 81.7123 105.167 82.2292C105.133 82.2634 104.771 82.7173 104.603 82.9378L104.561 82.9142C104.786 82.2029 105.075 81.5134 105.424 80.8542C105.611 80.4868 105.81 80.1483 106.012 79.8229C106.246 79.9384 107.324 80.4606 107.888 80.4842C108.453 80.5078 109.14 80.3792 109.51 79.9331C109.6 79.8303 109.668 79.7096 109.708 79.579C109.749 79.4483 109.762 79.3107 109.746 79.1748C109.729 79.039 109.685 78.9081 109.615 78.7905C109.545 78.673 109.451 78.5714 109.34 78.4925C108.655 78.0385 107.277 78.5843 106.702 79.0435C106.671 79.0671 106.382 79.3558 106.178 79.5684C106.272 79.424 106.366 79.2718 106.458 79.1327C106.802 78.6079 107.148 78.1618 107.458 77.7629C107.637 77.5373 107.802 77.3378 107.959 77.1515C108.248 77.1515 109.41 77.1121 109.92 76.8734C110.429 76.6346 110.985 76.2042 111.106 75.6374C111.134 75.506 111.135 75.3701 111.108 75.2383C111.082 75.1065 111.028 74.9817 110.951 74.8716C110.874 74.7614 110.775 74.6684 110.66 74.5984C110.545 74.5283 110.418 74.4827 110.284 74.4644ZM101.231 96.4312C100.738 97.5674 100.284 98.4964 99.9557 99.1393C99.89 99.2705 99.8297 99.3833 99.7746 99.4909H99.7221C99.7037 99.365 99.688 99.2285 99.667 99.0737C99.5673 98.3494 99.4046 97.3155 99.1658 96.0874C99.0897 95.699 99.0005 95.287 98.9034 94.8645C99.2884 94.7115 99.6643 94.5362 100.029 94.3397C100.449 94.7963 101.528 95.329 101.667 95.3894C101.52 95.7515 101.375 96.1031 101.231 96.4312Z" fill="#263238"/>
<path opacity="0.3" d="M91.3769 79.3742C91.9674 79.6366 93.4107 79.5973 93.4107 79.5973C93.4107 79.5973 93.101 78.6526 93.0748 78.5948C92.7572 77.9336 91.7627 76.8393 90.9413 76.9495C90.8059 76.9708 90.6765 77.0205 90.5616 77.0953C90.4467 77.17 90.3489 77.2682 90.2746 77.3834C90.2003 77.4986 90.1512 77.6282 90.1304 77.7637C90.1096 77.8992 90.1177 78.0376 90.1541 78.1697C90.2958 78.7392 90.8731 79.159 91.3769 79.3742Z" fill="#263238"/>
<path opacity="0.3" d="M105.975 79.6969C105.988 79.6969 106.237 78.7365 106.237 78.6735C106.339 77.9466 106.108 76.4823 105.366 76.1228C105.242 76.0685 105.108 76.0408 104.972 76.0414C104.837 76.042 104.703 76.0709 104.58 76.1262C104.456 76.1816 104.345 76.2622 104.255 76.3628C104.164 76.4635 104.096 76.5819 104.054 76.7106C103.854 77.2564 104.106 77.9256 104.405 78.3848C104.752 78.9254 105.975 79.6943 105.975 79.6969Z" fill="#263238"/>
<path opacity="0.3" d="M110.284 74.4644C109.466 74.3778 108.495 75.4983 108.185 76.1675C108.159 76.2278 107.86 77.1804 107.875 77.1804H107.891C107.736 77.3562 107.574 77.5451 107.398 77.7577C107.078 78.1487 106.721 78.5948 106.364 79.1091C105.973 79.6569 105.616 80.2273 105.293 80.8175C104.927 81.4754 104.621 82.1648 104.377 82.8774V82.9037C104.377 82.6649 104.377 81.9904 104.364 81.938C104.27 81.2111 103.658 79.8596 102.85 79.7101C102.715 79.6885 102.578 79.6956 102.446 79.731C102.314 79.7665 102.191 79.8293 102.085 79.9156C101.979 80.0018 101.893 80.1094 101.832 80.2314C101.77 80.3534 101.736 80.4869 101.73 80.6233C101.68 81.2032 102.1 81.7805 102.517 82.1479C102.979 82.5599 104.259 82.9588 104.354 82.9903C104.124 83.7218 103.943 84.4678 103.813 85.2234C103.734 85.6643 103.669 86.1077 103.608 86.5565C103.608 86.3465 103.608 86.1602 103.608 86.1366C103.514 85.4071 102.903 84.0557 102.094 83.9061C101.959 83.8849 101.822 83.8924 101.69 83.9282C101.558 83.9639 101.435 84.0271 101.329 84.1135C101.224 84.1999 101.137 84.3077 101.076 84.4298C101.015 84.5518 100.98 84.6855 100.974 84.8219C100.924 85.3992 101.344 85.9792 101.761 86.3439C102.178 86.7087 103.262 87.0761 103.551 87.1705C103.527 87.3411 103.506 87.5117 103.485 87.6954C103.385 88.5193 103.291 89.3433 103.173 90.1489C103.134 90.4324 103.081 90.7105 103.031 90.9887C103.031 90.805 103.031 90.6475 103.031 90.6239C102.937 89.897 102.328 88.5456 101.517 88.396C101.382 88.3748 101.244 88.3824 101.112 88.4181C100.981 88.4538 100.858 88.517 100.752 88.6034C100.646 88.6899 100.56 88.7976 100.499 88.9197C100.437 89.0418 100.403 89.1754 100.397 89.3118C100.349 89.8892 100.769 90.4691 101.184 90.8339C101.598 91.1986 102.58 91.5319 102.921 91.6421C102.861 91.9255 102.803 92.2089 102.732 92.4818C102.677 92.6655 102.64 92.8466 102.577 93.0303C102.514 93.214 102.459 93.3924 102.404 93.5708C102.278 93.9094 102.155 94.261 102.026 94.589C101.937 94.8173 101.85 95.0351 101.764 95.2529C101.808 94.9695 101.884 94.4158 101.884 94.3686C101.874 93.7232 101.7 93.091 101.378 92.5317C101.38 92.4597 101.376 92.3877 101.365 92.3165C101.348 92.181 101.303 92.0506 101.232 91.9338C101.161 91.8169 101.067 91.7163 100.955 91.6383C100.843 91.5604 100.715 91.5069 100.581 91.4813C100.447 91.4557 100.309 91.4587 100.176 91.4899C99.3888 91.7024 98.8771 93.0985 98.8378 93.8306C98.8378 93.8726 98.864 94.3555 98.8876 94.6441C98.8483 94.4709 98.8115 94.303 98.7669 94.1193C98.6829 93.7677 98.5911 93.4213 98.4914 93.046L98.3024 92.4949C98.2526 92.3139 98.1739 92.1276 98.1109 91.9412C97.9534 91.5109 97.775 91.0831 97.586 90.6554C97.8931 90.5819 98.9821 90.3038 99.4229 89.9705C99.8638 89.6372 100.32 89.0888 100.315 88.5088C100.319 88.3724 100.294 88.2366 100.242 88.1104C100.19 87.9842 100.111 87.8704 100.013 87.7764C99.9135 87.6824 99.7959 87.6102 99.6672 87.5646C99.5385 87.519 99.4016 87.5009 99.2655 87.5117C98.4468 87.6009 97.7382 88.9025 97.5913 89.611C97.5913 89.6582 97.5336 90.1857 97.5126 90.4743C97.3945 90.2119 97.279 89.9653 97.1531 89.7081C96.7883 88.9733 96.3947 88.2412 96.0063 87.5064C95.8856 87.2807 95.7701 87.0577 95.6547 86.832C95.7649 86.8058 97.0638 86.504 97.5546 86.1287C97.9902 85.7955 98.4494 85.2496 98.4468 84.6697C98.4505 84.5332 98.4255 84.3975 98.3733 84.2713C98.3212 84.1451 98.2431 84.0313 98.1441 83.9373C98.0451 83.8432 97.9275 83.7711 97.7988 83.7254C97.6701 83.6798 97.5332 83.6618 97.3971 83.6725C96.581 83.7618 95.8725 85.0633 95.7229 85.7719C95.7229 85.827 95.6442 86.5853 95.6363 86.7795C95.3739 86.2836 95.1246 85.7876 94.8963 85.289C94.5851 84.6156 94.3169 83.9232 94.0933 83.2159C94.1458 83.2159 95.5051 82.8958 96.0063 82.51C96.4419 82.1768 96.9038 81.6309 96.8985 81.051C96.9022 80.9145 96.8772 80.7788 96.8251 80.6526C96.773 80.5264 96.6948 80.4126 96.5959 80.3185C96.4969 80.2245 96.3792 80.1523 96.2505 80.1067C96.1218 80.0611 95.985 80.0431 95.8489 80.0538C95.0301 80.143 94.3216 81.4446 94.172 82.1531C94.172 82.2004 94.109 82.7803 94.0907 83.0559H94.0434C93.8395 82.3375 93.6999 81.6025 93.6262 80.8594C93.5816 80.4527 93.5606 80.0591 93.5475 79.6759C93.8099 79.6445 94.9881 79.487 95.4788 79.1905C95.9696 78.8939 96.4655 78.4032 96.5285 77.8364C96.547 77.7013 96.5368 77.5637 96.4987 77.4328C96.4606 77.3018 96.3954 77.1803 96.3073 77.0761C96.2192 76.9719 96.1102 76.8875 95.9874 76.8281C95.8646 76.7688 95.7307 76.7359 95.5943 76.7316C94.7703 76.7316 93.9227 77.9466 93.697 78.6447C93.6839 78.684 93.6026 79.0829 93.5448 79.3742C93.5448 79.2036 93.5448 79.0252 93.5448 78.8493C93.5448 78.2274 93.5868 77.6606 93.6262 77.1568C93.6498 76.8681 93.6761 76.6109 93.7049 76.3695C93.9437 76.2042 94.8937 75.535 95.1876 75.0574C95.4815 74.5798 95.7124 73.9133 95.492 73.3727C95.4462 73.2442 95.3739 73.1267 95.2797 73.0279C95.1856 72.929 95.0717 72.8511 94.9455 72.7992C94.8193 72.7472 94.6836 72.7223 94.5472 72.7262C94.4108 72.7301 94.2767 72.7626 94.1536 72.8217C93.4241 73.1995 93.2299 74.6717 93.3507 75.396C93.3507 75.4563 93.6393 76.4168 93.6498 76.4089H93.6656C93.6341 76.6424 93.6 76.8917 93.5711 77.1646C93.5212 77.6685 93.4687 78.2379 93.4556 78.8625C93.433 79.5346 93.4488 80.2075 93.5029 80.8778C93.5609 81.6293 93.6865 82.3741 93.8781 83.1031C93.8773 83.1118 93.8773 83.1206 93.8781 83.1293C93.7469 82.9246 93.3533 82.3683 93.3323 82.329C92.8521 81.7753 91.5977 80.9854 90.842 81.3055C90.7176 81.3623 90.6066 81.4446 90.5161 81.5471C90.4256 81.6496 90.3578 81.7699 90.3169 81.9004C90.2761 82.0309 90.2632 82.1685 90.279 82.3042C90.2949 82.44 90.3392 82.5709 90.409 82.6885C90.6898 83.1976 91.3589 83.4469 91.9021 83.5282C92.5135 83.6174 93.802 83.2422 93.9044 83.2133C94.1169 83.9504 94.3799 84.672 94.6916 85.373C94.8674 85.785 95.059 86.1917 95.2558 86.5985C95.1377 86.4253 95.0327 86.2731 95.0144 86.2547C94.5342 85.6984 93.2798 84.9085 92.5241 85.2287C92.3997 85.2854 92.2886 85.3677 92.1982 85.4702C92.1077 85.5727 92.0399 85.6931 91.999 85.8235C91.9582 85.954 91.9453 86.0916 91.9611 86.2274C91.977 86.3631 92.0212 86.494 92.0911 86.6116C92.3718 87.1207 93.041 87.3726 93.5842 87.4513C94.1274 87.53 95.2374 87.2335 95.5287 87.1522C95.6074 87.307 95.6835 87.4618 95.7596 87.6166C96.1323 88.3593 96.5075 89.0993 96.8539 89.8367C96.9772 90.0991 97.0875 90.3615 97.1977 90.6239C97.0953 90.4717 97.0061 90.3431 96.9904 90.3248C96.5101 89.7711 95.2532 88.9786 94.4974 89.3013C94.373 89.358 94.2619 89.4403 94.1715 89.5429C94.0811 89.6454 94.0133 89.7659 93.9727 89.8965C93.9321 90.027 93.9195 90.1647 93.9357 90.3005C93.952 90.4362 93.9967 90.567 94.067 90.6843C94.3452 91.1907 95.0144 91.4427 95.5576 91.5214C96.1008 91.6001 97.1058 91.3351 97.4522 91.238C97.5572 91.5004 97.6648 91.7785 97.7566 92.0436C97.8143 92.2273 97.8826 92.3978 97.9298 92.5868C97.977 92.7757 98.0322 92.9515 98.082 93.1326C98.1686 93.4842 98.2578 93.8464 98.3313 94.1823C98.3838 94.4237 98.4284 94.652 98.4756 94.8829C98.3575 94.6205 98.1161 94.1193 98.0899 94.0799C97.6989 93.458 96.5784 92.4871 95.7832 92.6891C95.6504 92.7261 95.5269 92.7909 95.4209 92.8792C95.315 92.9676 95.229 93.0774 95.1687 93.2015C95.1084 93.3255 95.0752 93.461 95.0712 93.5988C95.0672 93.7367 95.0926 93.8739 95.1456 94.0012C95.345 94.547 95.9696 94.896 96.4944 95.0509C97.0717 95.2267 98.3497 95.0666 98.5097 95.0509C98.5858 95.4314 98.6567 95.804 98.717 96.1583C98.9322 97.3785 99.0661 98.4019 99.15 99.1209C99.1632 99.2469 99.1763 99.3623 99.1868 99.4699H96.7122L97.468 114.202H101.981L102.737 99.4699H100.402L100.454 99.3624C100.769 98.7037 101.21 97.7564 101.682 96.5991C101.835 96.2317 101.987 95.8381 102.142 95.4314C102.296 95.4655 103.561 95.7227 104.152 95.5888C104.677 95.4681 105.333 95.1663 105.574 94.6362C105.634 94.5138 105.668 94.38 105.673 94.2437C105.678 94.1073 105.655 93.9714 105.604 93.8447C105.553 93.718 105.477 93.6034 105.379 93.5083C105.281 93.4132 105.164 93.3397 105.036 93.2927C104.249 93.0303 103.068 93.9146 102.63 94.505C102.606 94.5418 102.367 94.9511 102.223 95.2109C102.286 95.0456 102.346 94.8829 102.409 94.7124C102.533 94.3738 102.648 94.0301 102.771 93.6627C102.826 93.4842 102.879 93.3032 102.934 93.1195C102.989 92.9358 103.031 92.7416 103.081 92.55C103.186 92.1039 103.273 91.6473 103.343 91.1881C103.64 91.2957 104.703 91.6631 105.251 91.6263C105.8 91.5896 106.485 91.3849 106.802 90.8995C106.881 90.7877 106.934 90.6606 106.96 90.5266C106.987 90.3926 106.984 90.2545 106.953 90.1216C106.922 89.9886 106.863 89.8636 106.781 89.7548C106.698 89.6461 106.594 89.5559 106.474 89.4903C105.745 89.1124 104.432 89.8078 103.913 90.3248C103.881 90.3563 103.548 90.7709 103.372 91.0018C103.414 90.7236 103.459 90.4481 103.496 90.1647C103.595 89.3486 103.674 88.522 103.758 87.6954L103.837 86.937C103.942 86.9763 105.193 87.4434 105.81 87.3988C106.356 87.3621 107.043 87.16 107.358 86.6746C107.437 86.5628 107.491 86.4357 107.517 86.3015C107.544 86.1674 107.541 86.0293 107.511 85.8961C107.48 85.7629 107.421 85.6377 107.339 85.5286C107.257 85.4195 107.153 85.3289 107.033 85.2628C106.301 84.8875 104.991 85.5803 104.472 86.0999C104.432 86.1392 103.947 86.7349 103.842 86.8871C103.9 86.3308 103.965 85.7771 104.049 85.2365C104.159 84.5025 104.318 83.7766 104.524 83.0637C104.572 83.0821 105.876 83.5754 106.506 83.5308C107.054 83.4915 107.739 83.292 108.056 82.8039C108.135 82.6922 108.189 82.5651 108.215 82.4311C108.241 82.2971 108.238 82.159 108.207 82.026C108.176 81.8931 108.118 81.7681 108.035 81.6593C107.953 81.5505 107.848 81.4604 107.728 81.3948C106.999 81.0169 105.689 81.7123 105.167 82.2292C105.133 82.2634 104.771 82.7173 104.603 82.9378L104.561 82.9142C104.786 82.2029 105.075 81.5134 105.424 80.8542C105.611 80.4868 105.81 80.1483 106.012 79.8229C106.246 79.9384 107.324 80.4606 107.888 80.4842C108.453 80.5078 109.14 80.3792 109.51 79.9331C109.6 79.8303 109.668 79.7096 109.708 79.579C109.749 79.4483 109.762 79.3107 109.746 79.1748C109.729 79.039 109.685 78.9081 109.615 78.7905C109.545 78.673 109.451 78.5714 109.34 78.4925C108.655 78.0385 107.277 78.5843 106.702 79.0435C106.671 79.0671 106.382 79.3558 106.178 79.5684C106.272 79.424 106.366 79.2718 106.458 79.1327C106.802 78.6079 107.148 78.1618 107.458 77.7629C107.637 77.5373 107.802 77.3378 107.959 77.1515C108.248 77.1515 109.41 77.1121 109.92 76.8734C110.429 76.6346 110.985 76.2042 111.106 75.6374C111.134 75.506 111.135 75.3701 111.108 75.2383C111.082 75.1065 111.028 74.9817 110.951 74.8716C110.874 74.7614 110.775 74.6684 110.66 74.5984C110.545 74.5283 110.418 74.4827 110.284 74.4644ZM101.231 96.4312C100.738 97.5674 100.284 98.4964 99.9557 99.1393C99.89 99.2705 99.8297 99.3833 99.7746 99.4909H99.7221C99.7037 99.365 99.688 99.2285 99.667 99.0737C99.5673 98.3494 99.4046 97.3155 99.1658 96.0874C99.0897 95.699 99.0005 95.287 98.9034 94.8645C99.2884 94.7115 99.6643 94.5362 100.029 94.3397C100.449 94.7963 101.528 95.329 101.667 95.3894C101.52 95.7515 101.375 96.1031 101.231 96.4312Z" fill="#263238"/>
<path d="M91.7412 114.223H113.978" stroke="#263238" stroke-width="0.659251" stroke-linejoin="round"/>
<path d="M13.2803 114.223H89.3808" stroke="#263238" stroke-width="0.659251" stroke-linejoin="round"/>
<path d="M3.07715 114.223H10.9181" stroke="#263238" stroke-width="0.659251" stroke-linejoin="round"/>
<path d="M76.8644 113.357C76.8511 113.55 76.8213 113.741 76.7752 113.929C76.56 114.716 75.3345 114.433 74.6155 114.716C73.8965 115 72.9597 115.364 72.3115 115.58C71.6633 115.795 69.6506 115.942 68.6377 115.724C67.9712 115.582 67.651 115.22 67.6379 114.845C67.6334 114.638 67.7086 114.438 67.8478 114.286C68.2782 113.782 69.9314 113.134 70.8682 112.415C71.805 111.696 73.0279 109.967 73.0279 109.967C74.3951 110.329 76.7017 110.04 76.7017 110.04C76.7017 110.04 76.8434 110.827 76.8434 111.048C76.8938 111.816 76.9008 112.587 76.8644 113.357Z" fill="white" stroke="#263238" stroke-width="0.659251" stroke-linecap="round" stroke-linejoin="round"/>
<path d="M76.8652 113.357C76.8519 113.55 76.8221 113.741 76.776 113.929C76.5608 114.716 75.3353 114.433 74.6163 114.716C73.8973 115 72.9605 115.364 72.3123 115.58C71.6641 115.795 69.6514 115.942 68.6385 115.724C67.9719 115.582 67.6518 115.22 67.6387 114.845C68.0061 115.107 68.9009 115.582 70.6013 115.433C72.9631 115.231 73.7687 114.412 74.7423 114.005C75.433 113.737 76.1425 113.52 76.8652 113.357Z" fill="white" stroke="#263238" stroke-width="0.659251" stroke-linecap="round" stroke-linejoin="round"/>
<path d="M76.7662 110.402C76.7347 110.203 76.7058 110.043 76.7058 110.043C75.982 110.126 75.2536 110.161 74.5251 110.148L74.4727 110.187C74.4727 110.187 74.617 110.113 74.6905 110.691C74.7317 111.073 74.7317 111.458 74.6905 111.84C74.6905 111.84 76.3279 111.452 76.5615 110.906C76.6297 110.746 76.7006 110.57 76.7662 110.402Z" fill="white" stroke="#263238" stroke-width="0.659251" stroke-linecap="round" stroke-linejoin="round"/>
<path d="M84.9192 116.348C84.2579 116.768 81.0144 118.582 80.4581 118.687C79.9018 118.792 77.834 118.65 77.2488 118.162C76.7895 117.784 76.6662 117.277 76.9627 116.85C77.0587 116.716 77.18 116.603 77.3196 116.516C78.0176 116.062 79.2379 114.771 79.7968 114.039C80.3558 113.307 81.227 112.016 81.227 112.016L81.2952 111.633L84.8536 111.738C84.8536 111.738 84.9218 112.504 84.9559 112.646C85.0858 113.138 85.1797 113.638 85.2367 114.144C85.2787 114.441 85.3259 114.719 85.3548 114.973C85.4099 115.587 85.3758 116.055 84.9192 116.348Z" fill="white" stroke="#263238" stroke-width="0.659251" stroke-linecap="round" stroke-linejoin="round"/>
<path d="M84.9192 116.348C84.2579 116.768 81.0144 118.582 80.4581 118.687C79.9018 118.792 77.834 118.65 77.2488 118.162C76.7895 117.784 76.6662 117.277 76.9627 116.85C77.0073 117.094 77.3432 118.33 79.5108 118.24C81.9119 118.138 83.8013 115.992 84.8746 115.275C85.0451 115.16 85.2052 115.06 85.3548 114.973C85.4099 115.587 85.3758 116.055 84.9192 116.348Z" fill="white" stroke="#263238" stroke-width="0.659251" stroke-linecap="round" stroke-linejoin="round"/>
<path d="M84.8395 111.746L81.2811 111.641L81.2129 112.024L81.0449 112.268C81.1341 112.268 82.2022 112.21 82.5013 112.478C82.8005 112.746 82.8503 113.664 83.5825 113.42C84.0805 113.239 84.5398 112.966 84.9365 112.614C84.8998 112.41 84.8395 111.746 84.8395 111.746Z" fill="white" stroke="#263238" stroke-width="0.659251" stroke-linecap="round" stroke-linejoin="round"/>
<path d="M70.371 76.9363C70.371 76.9363 70.0823 84.4939 70.6597 89.0993C71.237 93.7046 71.3787 97.0163 71.4469 97.2341C71.5151 97.4519 72.8849 106.589 72.9558 107.167C73.0266 107.744 73.2444 108.389 73.2444 108.605C73.2444 108.82 73.4596 108.893 74.5408 109.182C75.2597 109.34 76.0089 109.29 76.7005 109.038C76.7005 109.038 77.2043 104.073 77.2043 102.776C77.2043 101.48 76.5561 95.5783 76.5561 95.3631C76.5561 95.1479 76.9865 85.289 76.9865 85.289L77.346 85.575C77.346 85.575 77.8498 93.9959 78.0676 95.5783C78.2854 97.1607 78.3537 98.6013 78.6423 99.3938C78.931 100.186 79.5791 105.222 79.8652 105.954C80.1512 106.686 80.369 109.408 80.369 109.408L80.5842 110.271C80.5842 110.271 80.8729 111.058 82.6835 111.058C84.4942 111.058 84.8432 110.625 84.8432 110.625C84.8432 110.625 84.9141 106.812 84.9141 105.012C84.9141 103.212 83.9772 97.8875 83.8355 96.6647C83.6938 95.4418 83.4734 90.4743 83.7621 89.4666C84.0507 88.459 84.5493 82.5599 84.5493 80.0407C84.5733 78.8632 84.5251 77.6854 84.405 76.5138C84.405 76.5138 77.569 76.9442 75.265 76.5847C72.961 76.2252 70.804 75.7213 70.804 75.7213L70.371 76.9363Z" fill="#263238" stroke="#263238" stroke-width="0.659251" stroke-linecap="round" stroke-linejoin="round"/>
<path d="M72.459 76.6503C72.459 76.6503 75.5529 77.5845 80.5178 77.1542L80.5886 75.8579L72.6742 73.1943L72.459 76.6503Z" fill="#808080" stroke="#263238" stroke-width="0.659251" stroke-linecap="round" stroke-linejoin="round"/>
<path d="M76.6541 76.4159L74.6113 76.3396L74.5812 77.1447L76.624 77.221L76.6541 76.4159Z" fill="white" stroke="#263238" stroke-width="0.659251" stroke-linecap="round" stroke-linejoin="round"/>
<path d="M81.1658 55.4183C81.1658 55.4183 78.6466 55.1323 77.4238 55.4918C76.2009 55.8513 74.6894 56.279 74.2564 57.4336C73.8234 58.5883 71.7031 75.6794 71.7031 75.6794C71.7031 75.6794 74.0412 76.4351 76.1274 76.4351C78.2136 76.4351 80.4468 76.2908 80.4468 76.2908C80.4468 76.2908 80.662 67.0774 81.1658 65.4242C81.6697 63.771 81.1658 55.4183 81.1658 55.4183Z" fill="#6C94EC" stroke="#263238" stroke-width="0.659251" stroke-linecap="round" stroke-linejoin="round"/>
<path d="M75.4502 56.5965C75.4502 56.5965 75.5394 58.3835 76.0616 58.8191C76.5838 59.2547 76.6284 59.3886 76.6284 59.3886L76.9328 62.8C76.9328 62.8 78.0691 60.7426 78.2003 60.4802C78.3278 60.009 78.4156 59.528 78.4627 59.0422C78.8427 58.7566 79.2071 58.4509 79.5544 58.1264C79.9454 57.7327 80.2524 55.1164 80.2524 54.8094C80.2524 54.5024 80.1658 52.8466 80.1658 52.8466C80.1658 52.8466 79.2473 54.896 78.2449 55.8119C77.2425 56.7277 76.2821 56.8169 76.0642 56.7723C75.8464 56.7277 75.4502 56.5965 75.4502 56.5965Z" fill="white" stroke="#263238" stroke-width="0.659251" stroke-linecap="round" stroke-linejoin="round"/>
<path d="M75.4089 56.0717C75.4089 56.0717 75.3196 62.3985 75.3196 64.9702C75.3196 67.5419 74.5324 70.7722 73.7058 72.9529C72.8792 75.1336 71.0816 81.0012 70.5227 82.3552C70.1567 83.2497 69.8507 84.1675 69.6069 85.1027C69.6069 85.1027 68.7776 84.4467 68.733 82.3106C68.6884 80.1746 69.2132 77.6869 69.2998 76.1596C69.3864 74.6323 69.431 71.4361 69.431 71.4361C69.431 71.4361 69.431 72.1761 68.2974 72.7482C67.1638 73.3203 66.4605 73.5774 65.7231 72.1814C64.9857 70.7853 65.0697 69.9561 65.7677 68.6913C66.4657 67.4264 67.1192 64.1541 67.686 62.6715C68.2528 61.1888 68.2108 59.0947 68.8222 58.6591C69.4337 58.2235 72.3543 57.0453 73.5326 56.3472C74.7108 55.6492 75.1911 55.6492 75.1911 55.6492C75.1911 55.6492 75.3643 55.5495 75.4089 56.0717Z" fill="white" stroke="#263238" stroke-width="0.659251" stroke-linecap="round" stroke-linejoin="round"/>
<path d="M67.0365 68.0667C67.0365 68.0667 66.1626 69.8721 66.4119 70.494C66.6612 71.1159 67.4616 71.8061 68.4063 71.2419C69.351 70.6777 69.6501 70.62 69.3379 69.4365C69.0256 68.253 67.8447 67.3818 67.0365 68.0667Z" stroke="#263238" stroke-width="0.659251" stroke-linecap="round" stroke-linejoin="round"/>
<path d="M69.9164 61.9708C69.8875 61.362 69.8691 60.9579 69.8691 60.9579L69.9164 61.9708Z" fill="white"/>
<path d="M69.9164 61.9708C69.8875 61.362 69.8691 60.9579 69.8691 60.9579" stroke="#263238" stroke-width="0.659251" stroke-linecap="round" stroke-linejoin="round"/>
<path d="M69.4375 71.4282C69.4375 71.4282 70.0489 68.1113 70.0489 66.235C70.0489 65.209 69.9964 63.7237 69.9492 62.5901" fill="white"/>
<path d="M69.4375 71.4282C69.4375 71.4282 70.0489 68.1113 70.0489 66.235C70.0489 65.209 69.9964 63.7237 69.9492 62.5901" stroke="#263238" stroke-width="0.659251" stroke-linecap="round" stroke-linejoin="round"/>
<path d="M75.1909 55.6361C75.1909 55.6361 74.8104 55.6361 73.9024 56.1242C73.7003 57.2735 73.312 59.9476 73.5744 62.3985C73.8001 64.4716 74.5453 66.6313 75.0518 67.9092C75.2171 66.9363 75.3048 65.9518 75.3142 64.9649C75.3142 62.3933 75.4034 56.0664 75.4034 56.0664C75.3641 55.5495 75.1909 55.6361 75.1909 55.6361Z" fill="white" stroke="#263238" stroke-width="0.659251" stroke-linecap="round" stroke-linejoin="round"/>
<path d="M72.5864 49.9968C72.5864 49.9968 72.9459 52.3008 73.308 53.2954C73.6702 54.2899 74.5283 55.3711 74.8825 56.0507C75.2368 56.7304 76.0109 57.4494 76.869 57.4494C77.7271 57.4494 78.9001 56.2764 79.1258 55.8749C79.3515 55.4734 79.9839 54.7439 80.0311 54.3004C80.0784 53.8569 80.0757 53.1274 80.0757 53.1274C80.3516 53.0361 80.5963 52.8691 80.7819 52.6455C80.9675 52.4218 81.0865 52.1506 81.1254 51.8626C81.2508 51.3193 81.2031 50.7504 80.9889 50.2356C80.7784 49.7315 80.521 49.2483 80.2201 48.7923C79.5876 47.7426 77.5119 47.1653 75.5228 47.4802C73.5337 47.7951 72.5418 48.6427 72.5864 49.9968Z" fill="white" stroke="#263238" stroke-width="0.659251" stroke-linecap="round" stroke-linejoin="round"/>
<path d="M72.6401 51.8205C73.5029 51.6552 74.3903 51.6668 75.2485 51.8546C75.2485 51.8546 75.4742 52.6681 74.9861 53.2087C74.498 53.7493 73.5848 53.5708 73.3145 53.4711C73.0442 53.3714 72.6243 52.9095 72.6401 51.8205Z" fill="white" stroke="#263238" stroke-width="0.659251" stroke-linecap="round" stroke-linejoin="round"/>
<path d="M76.1523 51.7812C77.018 51.6032 77.9108 51.6032 78.7765 51.7812C78.7765 51.7812 79.0127 52.5895 78.5141 53.1405C78.0155 53.6916 77.118 53.521 76.8477 53.4344C76.5775 53.3478 76.1523 52.8703 76.1523 51.7812Z" fill="white" stroke="#263238" stroke-width="0.659251" stroke-linecap="round" stroke-linejoin="round"/>
<path d="M75.248 51.8494C75.5298 51.7146 75.8519 51.6902 76.1508 51.7811" stroke="#263238" stroke-width="0.659251" stroke-linecap="round" stroke-linejoin="round"/>
<path d="M78.7627 51.776L79.9908 50.9468" stroke="#263238" stroke-width="0.659251" stroke-linecap="round" stroke-linejoin="round"/>
<path d="M75.3193 52.2246C75.3193 52.2246 75.8048 52.0357 76.1066 52.2246" stroke="#263238" stroke-width="0.659251" stroke-linecap="round" stroke-linejoin="round"/>
<path d="M76.3975 51.4715C76.9175 51.2546 77.4904 51.198 78.0428 51.3088" stroke="#263238" stroke-width="0.659251" stroke-linecap="round" stroke-linejoin="round"/>
<path d="M74.9681 51.6054C74.5256 51.3558 74.0033 51.2881 73.5117 51.4165" stroke="#263238" stroke-width="0.659251" stroke-linecap="round" stroke-linejoin="round"/>
<path d="M75.3192 52.6838C75.3192 52.6838 75.264 54.6546 75.2903 54.7359C75.4435 54.8858 75.6437 54.9785 75.8571 54.9983C76.0947 54.9713 76.3299 54.9257 76.5604 54.8619" stroke="#263238" stroke-width="0.659251" stroke-linecap="round" stroke-linejoin="round"/>
<path d="M75.5352 55.4944C75.5352 55.4944 76.0757 55.9536 77.0729 55.5469" stroke="#263238" stroke-width="0.659251" stroke-linecap="round" stroke-linejoin="round"/>
<path d="M71.7716 47.8292C71.7716 47.8292 70.281 48.2806 70.5513 49.2305C70.8216 50.1805 72.5404 50.4954 74.2566 50.0414C75.4846 49.6908 76.6811 49.2379 77.8334 48.6873C77.7208 48.826 77.6673 49.0033 77.6845 49.1811C77.7017 49.3589 77.7882 49.5227 77.9252 49.6372C78.4212 50.0886 78.3766 48.6873 78.3766 48.6873C78.3766 48.6873 78.3319 50.3143 78.9644 50.54C79.5968 50.7656 79.6414 50.8995 79.6414 50.8995C79.6414 50.8995 79.4157 51.8048 79.686 51.894C79.9563 51.9832 80.0009 50.9467 80.0009 50.9467C80.0009 50.9467 80.0927 50.4035 80.5441 50.3143L80.9955 50.2224C80.9955 50.2224 80.9062 47.1968 80.6333 46.0684C80.3604 44.94 77.6077 43.6279 75.2144 44.4939C72.8212 45.3599 71.6797 46.5198 71.7716 47.8292Z" fill="#263238" stroke="#263238" stroke-width="0.659251" stroke-linecap="round" stroke-linejoin="round"/>
<path d="M66.5967 69.2896L67.6463 67.6311L68.5176 69.0272C68.1245 69.2571 67.7169 69.4614 67.2973 69.6386C67.0512 69.5494 66.8161 69.4323 66.5967 69.2896Z" fill="white" stroke="#263238" stroke-width="0.659251" stroke-linecap="round" stroke-linejoin="round"/>
<path d="M68.7324 70.1608C68.9872 70.2698 69.2505 70.3576 69.5197 70.4232C69.7812 70.4079 70.0366 70.3378 70.2694 70.2175C70.5022 70.0973 70.7072 69.9296 70.8711 69.7252C71.1335 69.2896 70.6953 69.245 70.6953 69.245L70.1705 69.7252L69.2966 69.6832L68.7324 70.1608Z" fill="white" stroke="#263238" stroke-width="0.659251" stroke-linecap="round" stroke-linejoin="round"/>
<path d="M66.0303 65.7994L68.56 69.6386L70.696 69.6832L68.4288 65.7994H66.0303Z" fill="#263238" stroke="#263238" stroke-width="0.659251" stroke-linecap="round" stroke-linejoin="round"/>
<path d="M68.65 68.2871C68.65 68.2871 66.6006 68.9852 66.6006 69.2896C66.6191 69.4452 66.6979 69.5874 66.82 69.6855C66.9422 69.7836 67.098 69.8299 67.254 69.8144C67.603 69.8144 68.9544 68.9406 69.0909 68.6781C69.2274 68.4157 69.083 68.2425 68.65 68.2871Z" fill="white" stroke="#263238" stroke-width="0.659251" stroke-linecap="round" stroke-linejoin="round"/>
<path d="M67.4678 69.8564C67.4992 69.9763 67.5594 70.0867 67.643 70.1782C67.7267 70.2696 67.8314 70.3393 67.948 70.3813C68.3416 70.5098 69.5225 69.6832 69.7377 69.3762C69.9528 69.0692 69.2994 69.1584 68.8218 69.3342C68.3442 69.51 67.4678 69.8564 67.4678 69.8564Z" fill="white" stroke="#263238" stroke-width="0.659251" stroke-linecap="round" stroke-linejoin="round"/>
<path d="M66.6384 66.8044C66.5839 66.8472 66.5384 66.9003 66.5046 66.9607C66.4707 67.0211 66.4491 67.0876 66.4411 67.1564C66.433 67.2252 66.4387 67.2949 66.4577 67.3615C66.4767 67.4281 66.5087 67.4903 66.5519 67.5445C66.8589 67.9801 67.6015 68.0693 67.6015 68.0693L66.6384 66.8044Z" fill="white" stroke="#263238" stroke-width="0.659251" stroke-linecap="round" stroke-linejoin="round"/>
<path d="M80.2503 54.8069C80.2503 54.8069 78.5499 66.1931 78.151 67.1955C77.7521 68.1979 78.8936 75.8972 78.8936 76.9442C78.8936 77.9913 79.896 78.1671 80.287 78.3849C80.678 78.6027 83.8664 80.13 84.344 80.9146C84.8216 81.6992 86.0471 83.3577 86.0471 83.3577C86.0471 83.3577 85.3149 75.9523 85.2178 71.9505C85.1785 70.3366 85.3044 67.9382 85.3044 67.9382C85.3044 67.9382 87.1413 58.4282 86.9629 57.7302C86.7845 57.0322 83.8664 55.8933 82.5989 55.4629C81.8301 55.1969 81.0457 54.9778 80.2503 54.8069Z" fill="white" stroke="#263238" stroke-width="0.659251" stroke-linecap="round" stroke-linejoin="round"/>
<path d="M82.3864 56.2816C82.431 55.9851 82.473 55.6675 82.5045 55.4209C81.7658 55.1701 81.0131 54.9624 80.2503 54.799C80.2503 54.799 78.5499 66.1852 78.151 67.1876C78.0744 67.4766 78.0478 67.7766 78.0723 68.0745C78.3032 67.7491 79.2794 66.3531 80.1585 64.7891C81.1662 63.0073 82.2946 56.9009 82.3864 56.2816Z" fill="white" stroke="#263238" stroke-width="0.659251" stroke-linecap="round" stroke-linejoin="round"/>
<path d="M79.1162 77.7314C79.9401 77.9893 80.7874 78.1651 81.6459 78.2563C83.1731 78.4295 86.784 79.8701 88.0698 81.4499C88.485 81.9202 88.8509 82.432 89.1615 82.9771C89.1615 82.9771 87.3587 83.2395 87.0097 83.2737C86.6607 83.3078 85.876 83.3603 85.876 83.3603C85.876 83.3603 84.48 81.3528 83.7767 80.786C83.0734 80.2191 79.376 78.3849 79.1162 77.7314Z" fill="white" stroke="#263238" stroke-width="0.659251" stroke-linecap="round" stroke-linejoin="round"/>
<path d="M72.6739 108.549V109.793C72.6743 109.896 72.7046 109.996 72.761 110.081C72.8174 110.166 72.8975 110.233 72.9915 110.274C73.5383 110.481 74.1084 110.621 74.6893 110.691C75.4064 110.808 76.1423 110.692 76.7886 110.36C76.8687 110.314 76.9352 110.247 76.9812 110.167C77.0273 110.087 77.0514 109.996 77.051 109.904V108.765C77.0515 108.701 77.038 108.638 77.0115 108.58C76.985 108.522 76.9462 108.47 76.8977 108.429C76.8492 108.387 76.7923 108.357 76.7308 108.339C76.6694 108.322 76.6049 108.319 76.5419 108.329C75.7547 108.458 74.2064 108.631 73.0544 108.25C73.0091 108.238 72.9614 108.237 72.9154 108.246C72.8693 108.255 72.826 108.275 72.7891 108.304C72.7521 108.333 72.7225 108.371 72.7025 108.413C72.6825 108.456 72.6727 108.502 72.6739 108.549Z" fill="#808080" stroke="#263238" stroke-width="0.659251" stroke-linecap="round" stroke-linejoin="round"/>
<path d="M80.1945 109.872V111.276C80.1943 111.392 80.2284 111.505 80.2924 111.601C80.3564 111.697 80.4474 111.772 80.554 111.817C81.1711 112.05 81.8144 112.208 82.4696 112.286C83.2807 112.422 84.1139 112.291 84.8445 111.914C84.9385 111.863 85.0167 111.787 85.0704 111.694C85.1241 111.601 85.1512 111.496 85.1489 111.389V110.114C85.1491 110.042 85.1336 109.971 85.1036 109.906C85.0735 109.84 85.0296 109.783 84.9749 109.736C84.9202 109.69 84.856 109.656 84.7868 109.636C84.7175 109.617 84.645 109.614 84.5742 109.625C83.6846 109.77 81.95 109.964 80.638 109.534C80.5858 109.518 80.5306 109.515 80.477 109.524C80.4234 109.534 80.3728 109.556 80.3295 109.589C80.2862 109.622 80.2514 109.665 80.2279 109.714C80.2044 109.764 80.193 109.818 80.1945 109.872Z" fill="#808080" stroke="#263238" stroke-width="0.659251" stroke-linecap="round" stroke-linejoin="round"/>
<path d="M83.1335 78.9254L81.7139 80.2322L83.8158 82.2765L84.6083 80.9696L83.1335 78.9254Z" fill="white" stroke="#263238" stroke-width="0.659251" stroke-linecap="round" stroke-linejoin="round"/>
<path d="M85.0918 63.1831C85.0918 63.1831 84.7874 65.7574 84.916 66.6733C85.0446 67.5891 87.0967 72.6826 87.0967 72.6826L82.7354 78.9963C82.7354 78.9963 83.2602 81.2189 84.7428 81.917C84.7428 81.917 89.0307 77.7419 89.8468 76.8576C91.5945 74.963 92.2637 73.3176 92.2637 72.6196C92.2637 71.9216 87.9705 59.2128 87.8839 58.9058C87.7973 58.5987 87.3591 57.4231 86.2701 57.1161" fill="white"/>
<path d="M85.0918 63.1831C85.0918 63.1831 84.7874 65.7574 84.916 66.6733C85.0446 67.5891 87.0967 72.6826 87.0967 72.6826L82.7354 78.9963C82.7354 78.9963 83.2602 81.2189 84.7428 81.917C84.7428 81.917 89.0307 77.7419 89.8468 76.8576C91.5945 74.963 92.2637 73.3176 92.2637 72.6196C92.2637 71.9216 87.9705 59.2128 87.8839 58.9058C87.7973 58.5987 87.3591 57.4231 86.2701 57.1161" stroke="#263238" stroke-width="0.659251" stroke-linecap="round" stroke-linejoin="round"/>
<path d="M87.5156 72.6721C87.5156 72.6721 88.7595 71.9269 90.0663 72.4228" stroke="#263238" stroke-width="0.659251" stroke-linecap="round" stroke-linejoin="round"/>
<path d="M89.0098 71.8639C89.5493 71.7672 90.1054 71.8788 90.5659 72.1762" stroke="#263238" stroke-width="0.659251" stroke-linecap="round" stroke-linejoin="round"/>
<path d="M74.2805 17.0269C75.4582 17.027 76.6211 17.2899 77.6843 17.7966C78.7475 18.3032 79.6843 19.0407 80.4262 19.9554H95.1372C96.2164 19.9826 97.2422 20.4304 97.9959 21.2033C98.7495 21.9761 99.1713 23.0129 99.1713 24.0924C99.1713 25.1719 98.7495 26.2087 97.9959 26.9815C97.2422 27.7544 96.2164 28.2022 95.1372 28.2294H81.4916C80.9114 29.5016 80.0063 30.5985 78.8675 31.4098L74.4615 34.8212C74.4448 34.8335 74.4245 34.84 74.4038 34.8396C74.3847 34.8398 74.3661 34.8333 74.3513 34.8212L69.515 31.3075C68.5231 30.5731 67.7202 29.6132 67.1726 28.5072C66.6251 27.4011 66.3486 26.1806 66.366 24.9465C66.3688 22.8479 67.2034 20.8359 68.6869 19.3514C70.1703 17.8669 72.1818 17.031 74.2805 17.0269Z" fill="#263238"/>
<path d="M95.3361 27.4159L76.2585 27.4159V19.3256L95.3361 19.3256C96.4085 19.3256 97.4371 19.7517 98.1955 20.51C98.9538 21.2684 99.3799 22.297 99.3799 23.3694C99.3802 23.9007 99.2759 24.4268 99.0728 24.9178C98.8698 25.4087 98.5719 25.8548 98.1964 26.2306C97.8209 26.6063 97.375 26.9044 96.8842 27.1078C96.3934 27.3112 95.8673 27.4159 95.3361 27.4159Z" fill="white" stroke="#263238" stroke-width="0.659251" stroke-linecap="round" stroke-linejoin="round"/>
<path d="M95.7661 22.1833H85.5371" stroke="#263238" stroke-width="0.659251" stroke-linejoin="round"/>
<path d="M95.7661 23.4744H85.5371" stroke="#263238" stroke-width="0.659251" stroke-linejoin="round"/>
<path d="M95.7661 24.7628H85.5371" stroke="#263238" stroke-width="0.659251" stroke-linejoin="round"/>
<path d="M69.766 30.5097L74.5997 34.0261L79.0057 30.6147C80.1012 29.8372 80.9783 28.7909 81.5526 27.5764C82.1269 26.3619 82.3791 25.0201 82.285 23.68C82.1908 22.3399 81.7534 21.0466 81.0149 19.9243C80.2764 18.8021 79.2616 17.8888 78.0681 17.2721C76.8745 16.6555 75.5424 16.3562 74.1998 16.4032C72.8572 16.4502 71.5493 16.8418 70.4018 17.5404C69.2543 18.239 68.3058 19.2211 67.6476 20.3922C66.9894 21.5633 66.6435 22.8841 66.6433 24.2275C66.627 25.4475 66.9018 26.6537 67.4449 27.7463C67.988 28.8388 68.7837 29.7861 69.766 30.5097Z" fill="white" stroke="#263238" stroke-width="0.659251" stroke-linecap="round" stroke-linejoin="round"/>
<path d="M81.313 24.2669C81.3135 25.6293 80.91 26.9613 80.1535 28.0944C79.397 29.2274 78.3215 30.1108 77.063 30.6326C75.8045 31.1544 74.4196 31.2914 73.0833 31.0261C71.7469 30.7608 70.5193 30.1052 69.5556 29.1422C68.5918 28.1792 67.9353 26.9521 67.669 25.616C67.4027 24.2799 67.5386 22.8948 68.0595 21.6359C68.5804 20.377 69.4629 19.3008 70.5954 18.5435C71.7279 17.7862 73.0595 17.3817 74.4219 17.3811C75.3273 17.378 76.2243 17.554 77.0615 17.8988C77.8986 18.2437 78.6593 18.7507 79.2997 19.3907C79.9401 20.0306 80.4477 20.7909 80.7932 21.6278C81.1387 22.4646 81.3154 23.3615 81.313 24.2669Z" fill="#6C94EC" stroke="#263238" stroke-width="0.659251" stroke-linejoin="round"/>
<path d="M79.4224 29.0061L74.468 27.7177L69.2197 28.7857C69.2853 28.8644 69.3562 28.9405 69.427 29.014C70.0706 29.6925 70.8457 30.2329 71.7049 30.6021C72.5641 30.9714 73.4895 31.1618 74.4247 31.1618C75.36 31.1618 76.2854 30.9714 77.1446 30.6021C78.0038 30.2329 78.7788 29.6925 79.4224 29.014V29.0061Z" fill="white" stroke="#263238" stroke-width="0.659251" stroke-linecap="round" stroke-linejoin="round"/>
<path d="M73.5841 27.3765C73.1601 27.6031 72.7805 27.9045 72.4636 28.2661C71.9729 28.8407 71.1515 30.3654 71.2276 30.3076C71.3037 30.2499 73.613 28.8407 73.613 28.8407L73.5841 27.3765Z" fill="#6C94EC" stroke="#263238" stroke-width="0.659251" stroke-linecap="round" stroke-linejoin="round"/>
<path d="M75.5079 27.0878L73.6973 29.0716L74.2142 30.8823L76.3424 28.182L75.5079 27.0878Z" fill="#6C94EC" stroke="#263238" stroke-width="0.659251" stroke-linecap="round" stroke-linejoin="round"/>
<path d="M72.1744 20.1627C72.1744 20.1627 70.9961 20.3936 70.8623 19.3597C70.7285 18.3258 72.3292 16.8589 74.628 16.8589C76.9267 16.8589 78.7374 18.785 78.6508 20.6534C78.5718 21.8588 78.1603 23.0187 77.462 24.0045C77.0323 24.356 76.5321 24.6111 75.9951 24.7523C75.5936 24.8074 75.3076 24.2275 75.5071 23.4875C75.7065 22.7475 75.0767 22.5376 75.3365 21.85C75.5963 21.1625 75.94 21.1599 76.0529 20.9289C76.1657 20.698 74.9035 20.2099 73.7541 20.2677C72.6047 20.3254 72.1744 20.1627 72.1744 20.1627Z" fill="#263238" stroke="#263238" stroke-width="0.659251" stroke-linecap="round" stroke-linejoin="round"/>
<path d="M73.4403 26.256L73.4193 26.3662C73.359 26.7205 73.1727 27.8279 73.1228 28.497C73.0677 29.3026 73.6476 29.2843 73.8707 29.0428C74.0938 28.8014 75.3087 27.6074 75.5082 27.0905C75.7076 26.5735 76.1695 25.02 76.1695 25.02L73.4403 26.256Z" fill="white" stroke="#263238" stroke-width="0.659251" stroke-linecap="round" stroke-linejoin="round"/>
<path d="M72.1756 20.1627C72.1756 20.1627 71.7741 22.4064 71.6298 23.5741C71.4855 24.7419 71.3411 25.4399 71.8319 26.1983C72.3226 26.9567 73.6976 26.4607 74.3878 26.1694C75.1121 25.8114 75.8133 25.4082 76.4871 24.9623C76.4871 24.9623 77.4633 25.02 77.8648 24.5319C77.9325 24.4448 77.9799 24.3437 78.0034 24.2359C78.027 24.1281 78.0262 24.0165 78.0011 23.909C77.9759 23.8016 77.927 23.7012 77.8581 23.6151C77.7891 23.529 77.7017 23.4594 77.6024 23.4114C77.4338 23.4054 77.2657 23.4326 77.1076 23.4916C76.9496 23.5506 76.8047 23.6402 76.6813 23.7552C76.5107 23.9572 76.5396 24.1882 76.3375 24.1882C76.1355 24.1882 75.8494 24.2433 75.9072 24.0438C75.9649 23.8444 76.3953 23.1805 76.2798 22.7501C76.1643 22.3198 75.3036 22.0311 76.0174 21.6296C76.7312 21.2281 77.4843 21.257 77.1405 20.6534C76.7968 20.0499 75.0123 19.4175 73.8918 19.6458C73.3029 19.7559 72.7275 19.9293 72.1756 20.1627Z" fill="white" stroke="#263238" stroke-width="0.659251" stroke-linecap="round" stroke-linejoin="round"/>
<path d="M72.5476 20.824C72.5476 20.824 73.222 20.6823 73.18 21.3698C73.1643 21.6322 71.9729 22.8944 72.1461 23.1805C72.2638 23.3653 72.4205 23.522 72.6053 23.6397" stroke="#263238" stroke-width="0.659251" stroke-linecap="round" stroke-linejoin="round"/>
<path d="M73.9863 21.5431C74.0781 21.4676 74.1859 21.4139 74.3014 21.386C74.4169 21.3581 74.5373 21.3567 74.6534 21.382C74.7696 21.4072 74.8785 21.4584 74.972 21.5318C75.0655 21.6051 75.1412 21.6987 75.1934 21.8055" stroke="#263238" stroke-width="0.659251" stroke-linecap="round" stroke-linejoin="round"/>
<path d="M72.3223 24.4742C72.3223 24.4742 72.4955 24.9046 73.183 24.8469C73.4916 24.8482 73.7965 24.7801 74.0752 24.6474" stroke="#263238" stroke-width="0.659251" stroke-linecap="round" stroke-linejoin="round"/>
<path d="M74.3821 22.4877C74.3428 22.6766 74.2273 22.8131 74.1197 22.7921C74.0121 22.7711 73.9702 22.5979 74.0121 22.4089C74.0541 22.22 74.167 22.0836 74.2746 22.1045C74.3821 22.1255 74.4215 22.2987 74.3821 22.4877Z" fill="#263238"/>
<path d="M72.7104 21.8501C72.6737 22.0338 72.5661 22.1676 72.469 22.1492C72.3719 22.1309 72.322 21.9655 72.3588 21.7819C72.3955 21.5982 72.5031 21.4643 72.6002 21.4853C72.6973 21.5063 72.7471 21.6664 72.7104 21.8501Z" fill="#263238"/>
<path d="M40.1081 30.7197C38.93 30.7198 37.7669 30.983 36.7036 31.4901C35.6403 31.9972 34.7037 32.7355 33.9623 33.6509H19.2513C18.6992 33.637 18.15 33.7337 17.6359 33.9354C17.1218 34.137 16.6533 34.4395 16.2579 34.8251C15.8626 35.2106 15.5484 35.6714 15.3338 36.1802C15.1193 36.689 15.0088 37.2357 15.0088 37.7879C15.0088 38.3401 15.1193 38.8867 15.3338 39.3956C15.5484 39.9044 15.8626 40.3652 16.2579 40.7507C16.6533 41.1362 17.1218 41.4387 17.6359 41.6404C18.15 41.842 18.6992 41.9388 19.2513 41.9249H32.8969C33.4765 43.1975 34.3817 44.2946 35.521 45.1053L39.927 48.5167C39.9424 48.5298 39.9619 48.5372 39.9821 48.5377C40.0019 48.5372 40.0211 48.5308 40.0372 48.5194L44.8761 44.9977C45.8677 44.2636 46.6704 43.3042 47.2179 42.1986C47.7654 41.093 48.0421 39.873 48.0251 38.6394C48.0224 36.5403 47.1874 34.5279 45.7034 33.0433C44.2193 31.5588 42.2072 30.7232 40.1081 30.7197Z" fill="#263238"/>
<path d="M18.8316 41.1324H37.9092V33.0421H18.8316C17.7586 33.0428 16.7298 33.4694 15.9711 34.2281C15.2124 34.9868 14.7859 36.0156 14.7852 37.0886C14.7859 38.1613 15.2125 39.1898 15.9713 39.9481C16.73 40.7064 17.7589 41.1324 18.8316 41.1324Z" fill="white" stroke="#263238" stroke-width="0.659251" stroke-linecap="round" stroke-linejoin="round"/>
<path d="M18.4014 35.8998H28.6303" stroke="#263238" stroke-width="0.659251" stroke-linejoin="round"/>
<path d="M18.4014 37.1909H28.6303" stroke="#263238" stroke-width="0.659251" stroke-linejoin="round"/>
<path d="M18.4014 38.4819H28.6303" stroke="#263238" stroke-width="0.659251" stroke-linejoin="round"/>
<path d="M44.4012 44.2263L39.5649 47.7426L35.1589 44.3312C34.0634 43.5537 33.1862 42.5074 32.6119 41.293C32.0376 40.0785 31.7854 38.7367 31.8796 37.3966C31.9738 36.0565 32.4112 34.7631 33.1497 33.6409C33.8882 32.5187 34.903 31.6053 36.0965 30.9887C37.29 30.372 38.6221 30.0728 39.9647 30.1198C41.3073 30.1668 42.6153 30.5584 43.7628 31.257C44.9103 31.9556 45.8587 32.9376 46.517 34.1088C47.1752 35.2799 47.5211 36.6006 47.5213 37.944C47.5381 39.1638 47.2638 40.37 46.7211 41.4626C46.1785 42.5551 45.3832 43.5025 44.4012 44.2263Z" fill="white" stroke="#263238" stroke-width="0.659251" stroke-linecap="round" stroke-linejoin="round"/>
<path d="M40.7804 44.744C44.5364 44.1397 47.0914 40.6049 46.4871 36.8489C45.8828 33.0928 42.348 30.5378 38.592 31.1421C34.8359 31.7464 32.2809 35.2812 32.8852 39.0373C33.4895 42.7933 37.0243 45.3483 40.7804 44.744Z" fill="#6C94EC" stroke="#263238" stroke-width="0.659251" stroke-linejoin="round"/>
<path d="M45.6709 41.3554C46.1669 38.5501 43.4115 37.4008 43.136 35.9732C43.136 35.9732 43.8261 35.8341 44.0571 34.6349C44.288 33.4357 43.7789 31.8218 41.3358 31.3154C38.8927 30.8089 36.0324 32.8898 35.5627 34.774C35.093 36.6581 36.4392 37.5398 35.7464 38.2326C35.6275 38.3377 35.4918 38.422 35.3449 38.4819C34.9985 38.6918 34.5104 38.991 34.1824 39.1721C33.6313 39.4765 33.3243 42.4785 36.203 42.8459C39.0817 43.2133 39.7535 42.2948 41.3463 42.1111C42.3488 41.9957 44.0072 42.098 45.0989 42.1898" fill="#263238"/>
<path d="M45.6709 41.3554C46.1669 38.5501 43.4115 37.4008 43.136 35.9732C43.136 35.9732 43.8261 35.8341 44.0571 34.6349C44.288 33.4357 43.7789 31.8218 41.3358 31.3154C38.8927 30.8089 36.0324 32.8898 35.5627 34.774C35.093 36.6581 36.4392 37.5398 35.7464 38.2326C35.6275 38.3377 35.4918 38.422 35.3449 38.4819C34.9985 38.6918 34.5104 38.991 34.1824 39.1721C33.6313 39.4765 33.3243 42.4785 36.203 42.8459C39.0817 43.2133 39.7535 42.2948 41.3463 42.1111C42.3488 41.9957 44.0072 42.098 45.0989 42.1898" stroke="#263238" stroke-width="0.659251" stroke-linecap="round" stroke-linejoin="round"/>
<path d="M44.9307 40.6757C43.965 40.6757 42.7658 41.3659 42.3511 41.3659C41.9365 41.3659 41.8893 39.6155 41.8893 39.6155L39.7217 39.1537C39.7217 39.1537 39.9527 40.8594 39.8608 41.5522C39.769 42.2449 38.1997 42.3394 37.5542 42.426C36.9086 42.5126 36.5413 42.9351 36.3576 43.9034C36.3561 43.9235 36.3561 43.9437 36.3576 43.9638C37.1864 44.4259 38.1025 44.7102 39.0473 44.7982C39.9815 44.6329 40.9236 44.4466 41.6715 44.255C42.1727 44.1265 42.6608 44.0136 43.1226 43.9165C44.2089 43.2932 45.1051 42.3861 45.7153 41.2924C45.6792 41.1131 45.5804 40.9525 45.4366 40.8394C45.2928 40.7264 45.1134 40.6684 44.9307 40.6757Z" fill="white" stroke="#263238" stroke-width="0.659251" stroke-linecap="round" stroke-linejoin="round"/>
<path d="M36.502 44.0504C37.9737 44.8169 39.6727 45.0267 41.2867 44.641C42.9007 44.2553 44.3214 43.3002 45.2876 41.951C44.1382 42.098 44.0333 42.7042 43.3641 42.7042C42.6267 42.7042 41.7503 42.6123 40.74 43.0716C39.7297 43.5308 39.5853 43.7171 38.1578 43.7171C37.589 43.7155 37.0258 43.8289 36.502 44.0504Z" fill="#6C94EC" stroke="#263238" stroke-width="0.659251" stroke-linecap="round" stroke-linejoin="round"/>
<path d="M41.6589 33.4357C41.6589 33.4357 43.2727 34.6821 43.3646 36.3878C43.4564 38.0935 42.9027 39.3374 42.3517 39.9383C41.8006 40.5393 41.0606 40.3057 40.3232 39.7992C39.8358 39.4446 39.414 39.0077 39.0767 38.5082C38.8522 38.4853 38.6417 38.3884 38.4784 38.2326C38.2913 38.0793 38.161 37.8677 38.1084 37.6317C38.1084 37.6317 39.4913 37.5871 39.8141 36.6634C40.1369 35.7397 39.8613 34.9131 40.3232 34.2675C40.6648 33.8508 41.1342 33.5584 41.6589 33.4357Z" fill="white" stroke="#263238" stroke-width="0.659251" stroke-linecap="round" stroke-linejoin="round"/>
<path d="M41.2451 35.7869C41.2451 35.7869 40.4578 35.4195 40.1377 36.1097" stroke="#263238" stroke-width="0.659251" stroke-linecap="round" stroke-linejoin="round"/>
<path d="M42.1641 35.5508C42.1641 35.5508 42.7178 35.1361 42.9014 35.5954" stroke="#263238" stroke-width="0.659251" stroke-linecap="round" stroke-linejoin="round"/>
<path d="M41.9375 39.0619C41.8263 39.0869 41.7109 39.0874 41.5995 39.0633C41.488 39.0393 41.3831 38.9914 41.292 38.9229" stroke="#263238" stroke-width="0.659251" stroke-linecap="round" stroke-linejoin="round"/>
<path d="M42.2129 35.926C42.1123 36.3799 42.0656 36.8441 42.0738 37.309C42.121 37.8627 41.9373 38.0017 41.6592 37.9099" stroke="#263238" stroke-width="0.659251" stroke-linecap="round" stroke-linejoin="round"/>
<path d="M40.7522 37.0648C40.8435 37.0648 40.9176 36.9051 40.9176 36.708C40.9176 36.5109 40.8435 36.3511 40.7522 36.3511C40.6609 36.3511 40.5869 36.5109 40.5869 36.708C40.5869 36.9051 40.6609 37.0648 40.7522 37.0648Z" fill="#263238"/>
<path d="M42.677 36.8733C42.7683 36.8733 42.8424 36.7135 42.8424 36.5164C42.8424 36.3193 42.7683 36.1595 42.677 36.1595C42.5857 36.1595 42.5117 36.3193 42.5117 36.5164C42.5117 36.7135 42.5857 36.8733 42.677 36.8733Z" fill="#263238"/>
<path d="M39.8762 76.0756C38.6985 76.0757 37.5356 76.3386 36.4724 76.8453C35.4091 77.3519 34.4724 78.0895 33.7304 79.0041H19.0194C17.9403 79.0313 16.9145 79.4791 16.1608 80.252C15.4072 81.0248 14.9854 82.0616 14.9854 83.1411C14.9854 84.2206 15.4072 85.2574 16.1608 86.0302C16.9145 86.8031 17.9403 87.2509 19.0194 87.2781H32.665C33.2456 88.5501 34.1506 89.6469 35.2892 90.4585L39.6952 93.8699C39.7119 93.8822 39.7321 93.8887 39.7529 93.8883C39.772 93.8886 39.7906 93.882 39.8054 93.8699L44.6417 90.3562C45.6336 89.6218 46.4365 88.6619 46.9841 87.5559C47.5316 86.4498 47.8081 85.2293 47.7907 83.9953C47.7879 81.8966 46.9533 79.8846 45.4698 78.4001C43.9863 76.9156 41.9749 76.0797 39.8762 76.0756Z" fill="#263238"/>
<path d="M18.6727 86.5695H37.7503V78.4792H18.6727C17.6002 78.4792 16.5717 78.9053 15.8133 79.6637C15.055 80.422 14.6289 81.4506 14.6289 82.5231C14.6286 83.0543 14.7329 83.5805 14.936 84.0714C15.139 84.5623 15.4368 85.0084 15.8124 85.3842C16.1879 85.76 16.6338 86.0581 17.1246 86.2614C17.6154 86.4648 18.1415 86.5695 18.6727 86.5695Z" fill="white" stroke="#263238" stroke-width="0.659251" stroke-linecap="round" stroke-linejoin="round"/>
<path d="M18.2422 81.337H28.4711" stroke="#263238" stroke-width="0.659251" stroke-linejoin="round"/>
<path d="M18.2422 82.6281H28.4711" stroke="#263238" stroke-width="0.659251" stroke-linejoin="round"/>
<path d="M18.2422 83.9165H28.4711" stroke="#263238" stroke-width="0.659251" stroke-linejoin="round"/>
<path d="M44.2449 89.6634L39.4086 93.1798L35.0027 89.7684C33.9071 88.9909 33.03 87.9446 32.4557 86.7301C31.8814 85.5156 31.6292 84.1738 31.7234 82.8337C31.8175 81.4936 32.2549 80.2002 32.9934 79.078C33.7319 77.9558 34.7467 77.0424 35.9403 76.4258C37.1338 75.8091 38.4659 75.5099 39.8085 75.5569C41.1511 75.6039 42.459 75.9955 43.6065 76.6941C44.754 77.3927 45.7025 78.3748 46.3607 79.5459C47.0189 80.717 47.3648 82.0378 47.3651 83.3812C47.3814 84.6009 47.1069 85.8069 46.5643 86.8994C46.0217 87.9919 45.2266 88.9394 44.2449 89.6634Z" fill="white" stroke="#263238" stroke-width="0.659251" stroke-linecap="round" stroke-linejoin="round"/>
<path d="M32.6572 83.326C32.6572 84.6884 33.0612 86.0202 33.8181 87.153C34.5751 88.2858 35.6509 89.1687 36.9096 89.6901C38.1683 90.2115 39.5533 90.3479 40.8895 90.0821C42.2257 89.8163 43.4531 89.1602 44.4165 88.1969C45.3798 87.2335 46.0359 86.0061 46.3017 84.6699C46.5675 83.3337 46.4311 81.9487 45.9097 80.69C45.3883 79.4313 44.5054 78.3554 43.3726 77.5985C42.2398 76.8416 40.908 76.4376 39.5456 76.4376C38.6406 76.4359 37.744 76.6129 36.9075 76.9585C36.071 77.304 35.3109 77.8114 34.6709 78.4513C34.031 79.0913 33.5236 79.8514 33.1781 80.6879C32.8325 81.5244 32.6555 82.421 32.6572 83.326Z" fill="#6C94EC" stroke="#263238" stroke-width="0.659251" stroke-linejoin="round"/>
<path d="M34.2393 87.7215C34.861 88.4711 35.6346 89.0806 36.5089 89.5096C37.3833 89.9386 38.3387 90.1774 39.3121 90.2104C40.2855 90.2434 41.2548 90.0697 42.1562 89.7009C43.0576 89.332 43.8706 88.7764 44.5417 88.0705L41.2248 87.3305L36.6351 87.1022L34.2393 87.7215Z" fill="#6C94EC" stroke="#263238" stroke-width="0.659251" stroke-linecap="round" stroke-linejoin="round"/>
<path d="M37.5742 85.4307C37.8734 84.3311 37.5244 82.6307 37.5244 82.6307C38.2749 81.8828 40.5238 85.5173 40.5238 85.5173C40.5238 85.5173 40.4739 86.1681 41.2244 87.3174C41.2665 87.3845 41.3121 87.4493 41.3609 87.5116C40.8964 88.2569 39.9123 89.6661 39.1749 89.5191C38.4376 89.3721 37.2856 87.9446 36.6348 87.0891C37.317 86.6719 37.3459 86.2704 37.5742 85.4307Z" fill="white" stroke="#263238" stroke-width="0.659251" stroke-linecap="round" stroke-linejoin="round"/>
<path d="M36.7999 81.1847C36.7999 81.1847 36.4509 81.1323 36.401 81.783C36.3511 82.4338 36.6503 82.7855 36.897 82.7855H37.2958C37.3597 83.1736 37.4473 83.5575 37.5583 83.9348C37.7577 84.6854 37.7577 85.0868 39.3584 85.735C40.9592 86.3832 41.358 86.2861 41.8094 85.5854C42.2607 84.8848 42.2581 82.3367 42.308 81.2372C42.3578 80.1377 42.5573 78.8755 42.5573 78.8755C42.2269 78.5399 41.8372 78.2685 41.4079 78.0751C40.6574 77.7261 38.3586 78.125 37.658 78.4766C36.9573 78.8282 37.2092 80.6258 37.2092 80.6258L36.7999 81.1847Z" fill="white" stroke="#263238" stroke-width="0.659251" stroke-linecap="round" stroke-linejoin="round"/>
<path d="M41.5579 84.5489C41.0923 84.6713 40.5998 84.6428 40.1514 84.4675" stroke="#263238" stroke-width="0.659251" stroke-linecap="round" stroke-linejoin="round"/>
<path d="M41.5508 81.833C41.5508 81.9983 41.619 82.1347 41.7004 82.1347C41.7817 82.1347 41.8526 81.9983 41.8526 81.833C41.8526 81.6676 41.7843 81.5338 41.7004 81.5338C41.6164 81.5338 41.5508 81.6676 41.5508 81.833Z" fill="#263238"/>
<path d="M40.1025 82.0323C40.1025 82.2003 40.1681 82.3341 40.2521 82.3341C40.3361 82.3341 40.4017 82.2003 40.4017 82.0323C40.4017 81.8644 40.3361 81.7332 40.2521 81.7332C40.1681 81.7332 40.1025 81.867 40.1025 82.0323Z" fill="#263238"/>
<path d="M42.0013 80.883C41.9246 80.8212 41.8314 80.7835 41.7333 80.7746C41.6352 80.7657 41.5367 80.7861 41.4502 80.8331" stroke="#263238" stroke-width="0.659251" stroke-linecap="round" stroke-linejoin="round"/>
<path d="M40.3504 80.9828C40.3504 80.9828 39.7495 80.7335 39.3008 81.4341" stroke="#263238" stroke-width="0.659251" stroke-linecap="round" stroke-linejoin="round"/>
<path d="M41.1614 81.5731L41.3503 83.5832L40.4004 83.6829" stroke="#263238" stroke-width="0.659251" stroke-linecap="round" stroke-linejoin="round"/>
<path d="M35.8006 77.6841C35.8504 76.8837 37.1126 77.1829 37.8999 76.8837C38.6871 76.5846 40.0989 75.6845 41.2982 75.6845C41.6118 75.6607 41.9239 75.7478 42.18 75.9305C42.436 76.1132 42.6199 76.38 42.6995 76.6843L42.647 75.8839C42.647 75.8839 43.4473 76.3353 43.3975 77.1829C43.3476 78.0305 42.7493 79.0329 42.3478 78.9831C41.9463 78.9332 38.548 78.7836 38.3486 79.2848C38.1492 79.7861 38.8997 80.7334 38.8997 80.7334C38.8498 81.2346 38.1124 81.1322 38.0495 81.3343C38.0211 81.8176 38.0378 82.3026 38.0993 82.7828C38.1032 83.0642 38.0316 83.3415 37.892 83.5858C37.8823 83.835 37.9552 84.0804 38.0993 84.2838C38.2189 84.4157 38.3659 84.5198 38.53 84.5887C38.6941 84.6576 38.8714 84.6897 39.0493 84.6827C39.0493 84.6827 40.1986 83.6331 41.0489 83.7826C41.8991 83.9322 42.0985 84.3337 42.0985 84.3337H42.1221C42.0985 84.5122 42.0723 84.6775 42.0434 84.8349C41.9017 84.6145 41.4871 84.0765 40.8494 84.0765C40.0622 84.0765 39.1988 85.0265 39.1988 85.0265C39.1988 85.0265 40.0491 85.5749 40.4978 85.5749C40.9465 85.5749 40.8494 85.0265 41.1486 85.0763C41.4477 85.1262 41.348 85.4254 41.4976 85.4254C41.685 85.3914 41.8537 85.2908 41.9726 85.142C41.9347 85.2935 41.8765 85.4391 41.7994 85.5749C41.348 86.2756 40.9491 86.3622 39.3484 85.7245C37.7477 85.0868 37.7477 84.6749 37.5482 83.9243L37.4931 83.7118C37.5405 83.3553 37.6204 83.004 37.7319 82.6621C37.745 82.0559 37.6663 81.4708 37.4984 81.2687C37.236 80.9669 36.7977 81.169 36.7977 81.169C36.7977 81.169 35.7507 78.4845 35.8006 77.6841Z" fill="#263238" stroke="#263238" stroke-width="0.659251" stroke-linecap="round" stroke-linejoin="round"/>
</svg>
