<svg width="167" height="24" viewBox="0 0 167 24" fill="none" xmlns="http://www.w3.org/2000/svg">
<path d="M2.25336 5.76C4.3874 1.9216 7.15992 0.0391347 12.2395 0.0391347H29.2954C30.3614 -0.123864 32.4934 0.136934 32.4934 2.48412C32.4934 4.83131 30.3614 5.41811 29.2954 5.41811H13.3054C12.2394 5.41811 7.05334 5.86799 7.05334 12.2641C7.30396 17.1149 10.8911 18.5819 13.0231 18.5819L29.2954 18.621C30.1838 18.621 31.9604 19.11 31.9604 21.066C31.9604 23.022 30.1838 23.837 29.2954 24H12.2395C8.50848 24 5.02007 22.9817 2.73334 19.68C-0.0854653 15.61 -0.152321 10.087 2.25336 5.76Z" fill="#6C94EC"/>
<path d="M15.4374 9.33011C12.879 9.33011 12.5948 11.2861 12.7724 12.2641C12.7724 14.2201 14.5491 14.7091 15.4374 14.7091H26.0974C28.2294 14.7091 32.4934 15.1981 32.4934 12.2641C32.4934 9.9169 31.0721 9.33011 30.3614 9.33011H15.4374Z" fill="#6C94EC"/>
<path d="M40.5523 18.3281C39.7554 17.25 38.9586 15.8359 38.1617 14.0859L36.6383 10.8047C36.5601 10.6328 36.5133 10.4453 36.4976 10.2422C36.4664 9.80469 36.5992 9.42969 36.8961 9.11719C37.1929 8.80469 37.5836 8.64844 38.0679 8.64844C38.5992 8.64844 38.9898 8.75781 39.2398 8.97656C39.5054 9.17969 39.7164 9.44531 39.8726 9.77344L40.9742 12.4922C41.2554 13.1328 41.5289 13.7422 41.7945 14.3203C42.0758 14.8828 42.3883 15.3984 42.732 15.8672C43.0914 16.3359 43.4898 16.5859 43.9273 16.6172C44.3492 16.5859 44.7476 16.3359 45.1226 15.8672C45.4508 15.3984 45.7476 14.8828 46.0133 14.3203C46.2945 13.7422 46.5758 13.1328 46.857 12.4922L47.9586 9.77344C48.1148 9.44531 48.3179 9.17969 48.5679 8.97656C48.8336 8.75781 49.232 8.64844 49.7633 8.64844C50.2476 8.64844 50.6383 8.80469 50.9351 9.11719C51.232 9.42969 51.3648 9.80469 51.3336 10.2422C51.3179 10.4453 51.2711 10.6328 51.1929 10.8047L49.6695 14.0859C48.8726 15.8359 48.0758 17.25 47.2789 18.3281C46.5133 19.3906 45.3961 19.9297 43.9273 19.9453C42.4429 19.9297 41.3179 19.3906 40.5523 18.3281Z" fill="#353A5A"/>
<path d="M58.7398 19.5703C57.3648 19.5234 56.3258 19.2031 55.6226 18.6094C54.9195 18 54.4117 17.3203 54.0992 16.5703C53.7867 15.8047 53.6304 15.0312 53.6304 14.25C53.6304 13.4375 53.7789 12.6562 54.0758 11.9062C54.3883 11.1406 54.8961 10.4609 55.5992 9.86719C56.3179 9.25781 57.2242 8.94531 58.3179 8.92969H67.2242C67.6617 8.92969 68.0289 9.07812 68.3258 9.375C68.6383 9.65625 68.7945 10 68.7945 10.4062C68.7945 10.8281 68.6383 11.1875 68.3258 11.4844C68.0289 11.7656 67.6617 11.9062 67.2242 11.9062H58.4586C58.1148 11.9062 57.8101 12.0234 57.5445 12.2578C57.2945 12.4922 57.107 12.7969 56.982 13.1719C56.8726 13.5469 56.8179 13.9141 56.8179 14.2734C56.8179 14.6641 56.8726 15.0469 56.982 15.4219C57.107 15.7969 57.2945 16.1016 57.5445 16.3359C57.8101 16.5547 58.1148 16.6719 58.4586 16.6875H67.2242C67.6617 16.6875 68.0289 16.8281 68.3258 17.1094C68.6383 17.3906 68.7945 17.7266 68.7945 18.1172C68.7945 18.5234 68.6383 18.8672 68.3258 19.1484C68.0289 19.4297 67.6617 19.5703 67.2242 19.5703H58.7398ZM68.5133 14.2031C68.5133 14.5 68.3804 14.7578 68.1148 14.9766C67.8804 15.1797 67.5836 15.2812 67.2242 15.2812H59.5601C59.2008 15.2812 58.8961 15.1797 58.6461 14.9766C58.3961 14.7578 58.2711 14.5 58.2711 14.2031C58.2711 13.9219 58.3961 13.6719 58.6461 13.4531C58.8961 13.25 59.2008 13.1484 59.5601 13.1484H67.2242C67.5836 13.1484 67.8883 13.2578 68.1383 13.4766C68.3883 13.6797 68.5133 13.9219 68.5133 14.2031Z" fill="#353A5A"/>
<path d="M78.9664 8.57812C79.7789 8.57812 80.5758 8.67188 81.357 8.85938C82.1539 9.04688 82.9117 9.32812 83.6304 9.70312C84.3492 10.0625 84.982 10.5469 85.5289 11.1562C86.0914 11.7656 86.3961 12.4922 86.4429 13.3359V18.3281C86.3492 19.2656 85.8336 19.7734 84.8961 19.8516C84.4586 19.8516 84.0758 19.7109 83.7476 19.4297C83.4351 19.1328 83.2789 18.7656 83.2789 18.3281V14.0625C83.2476 13.5781 83.0601 13.1797 82.7164 12.8672C82.3883 12.5391 82.0133 12.2812 81.5914 12.0938C81.1851 11.9062 80.7554 11.7656 80.3023 11.6719C79.8648 11.5781 79.4195 11.5312 78.9664 11.5312C78.5133 11.5312 78.0601 11.5781 77.607 11.6719C77.1695 11.7656 76.7398 11.9062 76.3179 12.0938C75.9117 12.2812 75.5367 12.5391 75.1929 12.8672C74.8648 13.1797 74.6851 13.5781 74.6539 14.0625V18.3281C74.5758 19.2656 74.0679 19.7734 73.1304 19.8516C72.6929 19.8516 72.3101 19.7109 71.982 19.4297C71.6695 19.1328 71.5133 18.7656 71.5133 18.3281V13.3359C71.5601 12.4922 71.857 11.7656 72.4039 11.1562C72.9508 10.5469 73.5836 10.0625 74.3023 9.70312C75.0211 9.32812 75.7711 9.04688 76.5523 8.85938C77.3492 8.67188 78.1539 8.57812 78.9664 8.57812Z" fill="#353A5A"/>
<path d="M94.5054 5.36719C94.9429 5.36719 95.3179 5.51562 95.6304 5.8125C95.9429 6.09375 96.107 6.45312 96.1226 6.89062V8.92969H104.091C104.529 8.92969 104.904 9.07812 105.216 9.375C105.513 9.6875 105.662 10.0625 105.662 10.5C105.662 10.9375 105.505 11.3125 105.193 11.625C104.896 11.9219 104.529 12.0703 104.091 12.0703H96.1226V12.5391C96.107 13.1797 96.1461 13.7734 96.2398 14.3203C96.3492 14.8516 96.5992 15.3281 96.9898 15.75C97.3804 16.1719 97.8726 16.3984 98.4664 16.4297H104.185C104.623 16.4453 104.982 16.6094 105.263 16.9219C105.56 17.2344 105.709 17.6094 105.709 18.0469C105.693 18.4688 105.537 18.8281 105.24 19.125C104.959 19.4062 104.607 19.5547 104.185 19.5703H97.6695C96.5758 19.5078 95.6695 19.1406 94.9508 18.4688C94.2476 17.7812 93.7398 16.9453 93.4273 15.9609C93.1304 14.9766 92.9742 13.9297 92.9586 12.8203V12.0703H90.2633C89.8258 12.0703 89.4586 11.9141 89.1617 11.6016C88.8492 11.3047 88.6929 10.9375 88.6929 10.5C88.6929 10.0625 88.8414 9.69531 89.1383 9.39844C89.4508 9.08594 89.8258 8.92969 90.2633 8.92969H92.9586V6.89062C92.9742 6.46875 93.1304 6.11719 93.4273 5.83594C93.7242 5.53906 94.0836 5.38281 94.5054 5.36719Z" fill="#353A5A"/>
<path d="M112.927 19.875C112.396 19.875 111.865 19.7812 111.334 19.5938C110.818 19.4062 110.318 19.1328 109.834 18.7734C109.349 18.3984 108.927 17.9062 108.568 17.2969C108.209 16.6875 108.013 15.9609 107.982 15.1172V10.125C107.982 9.6875 108.138 9.32812 108.451 9.04688C108.779 8.75 109.162 8.60156 109.599 8.60156C110.537 8.67969 111.045 9.1875 111.123 10.125V14.9297C111.138 15.3047 111.216 15.625 111.357 15.8906C111.498 16.1406 111.654 16.3438 111.826 16.5C111.998 16.6406 112.17 16.75 112.341 16.8281C112.529 16.8906 112.716 16.9219 112.904 16.9219C113.091 16.9219 113.279 16.8906 113.466 16.8281C113.654 16.75 113.834 16.6406 114.005 16.5C114.177 16.3438 114.334 16.1406 114.474 15.8906C114.615 15.625 114.685 15.3047 114.685 14.9297V10.125C114.685 9.6875 114.841 9.32812 115.154 9.04688C115.482 8.75 115.865 8.60156 116.302 8.60156C117.24 8.67969 117.755 9.1875 117.849 10.125V14.9297C117.865 15.3047 117.943 15.6172 118.084 15.8672C118.224 16.1328 118.38 16.3438 118.552 16.5C118.724 16.6406 118.896 16.75 119.068 16.8281C119.255 16.8906 119.443 16.9219 119.63 16.9219C119.818 16.9219 120.005 16.8906 120.193 16.8281C120.38 16.75 120.56 16.6406 120.732 16.5C120.904 16.3438 121.06 16.1406 121.201 15.8906C121.341 15.625 121.412 15.3047 121.412 14.9297V10.125C121.412 9.6875 121.568 9.32812 121.88 9.04688C122.209 8.75 122.591 8.60156 123.029 8.60156C123.966 8.67969 124.482 9.1875 124.576 10.125V15.1172C124.576 15.9609 124.388 16.6875 124.013 17.2969C123.654 17.9062 123.232 18.3984 122.748 18.7734C122.279 19.1328 121.779 19.4062 121.248 19.5938C120.732 19.7812 120.201 19.875 119.654 19.875C119.123 19.875 118.591 19.7812 118.06 19.5938C117.545 19.4062 117.045 19.125 116.56 18.75C116.466 18.6875 116.38 18.6172 116.302 18.5391C116.209 18.6172 116.123 18.6875 116.045 18.75C115.56 19.125 115.052 19.4062 114.521 19.5938C114.005 19.7812 113.474 19.875 112.927 19.875Z" fill="#353A5A"/>
<path d="M129.287 8.69531C129.709 8.71094 130.068 8.86719 130.365 9.16406C130.662 9.44531 130.818 9.79688 130.834 10.2188V18.3281C130.74 19.2656 130.224 19.7734 129.287 19.8516C128.849 19.8516 128.466 19.7109 128.138 19.4297C127.826 19.1328 127.67 18.7656 127.67 18.3281V10.2188C127.685 9.78125 127.849 9.42188 128.162 9.14062C128.474 8.84375 128.849 8.69531 129.287 8.69531ZM127.318 5.64844C127.318 5.21094 127.505 4.83594 127.88 4.52344C128.255 4.21094 128.709 4.05469 129.24 4.05469C129.771 4.05469 130.224 4.21094 130.599 4.52344C130.974 4.83594 131.162 5.21094 131.162 5.64844C131.162 6.10156 130.974 6.48438 130.599 6.79688C130.224 7.10938 129.771 7.26562 129.24 7.26562C128.709 7.26562 128.255 7.10938 127.88 6.79688C127.505 6.48438 127.318 6.10156 127.318 5.64844Z" fill="#353A5A"/>
<path d="M148.576 10.2891C148.576 10.6797 148.42 11.0078 148.107 11.2734C147.81 11.5234 147.443 11.6484 147.005 11.6484H137.091C136.888 11.6484 136.724 11.6875 136.599 11.7656C136.474 11.8438 136.38 11.9297 136.318 12.0234C136.255 12.1016 136.224 12.1719 136.224 12.2344C136.224 12.3125 136.255 12.3984 136.318 12.4922C136.38 12.5703 136.474 12.6484 136.599 12.7266C136.724 12.7891 136.888 12.8281 137.091 12.8438H144.755C145.74 12.8594 146.552 13.0547 147.193 13.4297C147.834 13.7891 148.287 14.2188 148.552 14.7188C148.834 15.2031 148.974 15.6953 148.974 16.1953C148.974 16.6797 148.834 17.1719 148.552 17.6719C148.271 18.1562 147.81 18.5859 147.17 18.9609C146.545 19.3203 145.74 19.5 144.755 19.5C144.584 19.5156 144.459 19.5234 144.38 19.5234H135.287C134.849 19.5234 134.474 19.3984 134.162 19.1484C133.865 18.8828 133.716 18.5625 133.716 18.1875C133.716 17.7969 133.873 17.4688 134.185 17.2031C134.482 16.9531 134.849 16.8281 135.287 16.8281H144.943C145.177 16.8438 145.365 16.8125 145.505 16.7344C145.662 16.6562 145.779 16.5703 145.857 16.4766C145.935 16.3828 145.974 16.2891 145.974 16.1953C145.974 16.1484 145.935 16.0703 145.857 15.9609C145.779 15.8359 145.662 15.7422 145.505 15.6797C145.365 15.6016 145.177 15.5547 144.943 15.5391H137.255C136.349 15.5234 135.599 15.3359 135.005 14.9766C134.412 14.6016 133.99 14.1719 133.74 13.6875C133.49 13.2031 133.365 12.7188 133.365 12.2344C133.365 11.75 133.49 11.2734 133.74 10.8047C134.005 10.3203 134.427 9.90625 135.005 9.5625C135.599 9.20312 136.349 9.00781 137.255 8.97656C137.412 8.96094 137.529 8.95312 137.607 8.95312H147.005C147.443 8.95312 147.81 9.08594 148.107 9.35156C148.42 9.60156 148.576 9.91406 148.576 10.2891Z" fill="#353A5A"/>
<path d="M156.38 19.5703C155.005 19.5234 153.966 19.2031 153.263 18.6094C152.56 18 152.052 17.3203 151.74 16.5703C151.427 15.8047 151.271 15.0312 151.271 14.25C151.271 13.4375 151.42 12.6562 151.716 11.9062C152.029 11.1406 152.537 10.4609 153.24 9.86719C153.959 9.25781 154.865 8.94531 155.959 8.92969H164.865C165.302 8.92969 165.67 9.07812 165.966 9.375C166.279 9.65625 166.435 10 166.435 10.4062C166.435 10.8281 166.279 11.1875 165.966 11.4844C165.67 11.7656 165.302 11.9062 164.865 11.9062H156.099C155.755 11.9062 155.451 12.0234 155.185 12.2578C154.935 12.4922 154.748 12.7969 154.623 13.1719C154.513 13.5469 154.459 13.9141 154.459 14.2734C154.459 14.6641 154.513 15.0469 154.623 15.4219C154.748 15.7969 154.935 16.1016 155.185 16.3359C155.451 16.5547 155.755 16.6719 156.099 16.6875H164.865C165.302 16.6875 165.67 16.8281 165.966 17.1094C166.279 17.3906 166.435 17.7266 166.435 18.1172C166.435 18.5234 166.279 18.8672 165.966 19.1484C165.67 19.4297 165.302 19.5703 164.865 19.5703H156.38ZM166.154 14.2031C166.154 14.5 166.021 14.7578 165.755 14.9766C165.521 15.1797 165.224 15.2812 164.865 15.2812H157.201C156.841 15.2812 156.537 15.1797 156.287 14.9766C156.037 14.7578 155.912 14.5 155.912 14.2031C155.912 13.9219 156.037 13.6719 156.287 13.4531C156.537 13.25 156.841 13.1484 157.201 13.1484H164.865C165.224 13.1484 165.529 13.2578 165.779 13.4766C166.029 13.6797 166.154 13.9219 166.154 14.2031Z" fill="#353A5A"/>
</svg>
