<svg width="70" height="81" viewBox="0 0 70 81" fill="none" xmlns="http://www.w3.org/2000/svg">
<path d="M67.3276 38.8313L56.4049 40.5222C55.9876 40.5868 55.7018 40.9774 55.7664 41.3946L56.7963 48.0475C56.8609 48.4647 57.2515 48.7506 57.6687 48.686L68.5915 46.995C69.0087 46.9305 69.2946 46.5399 69.23 46.1226L68.2001 39.4698C68.1355 39.0526 67.7449 38.7667 67.3276 38.8313Z" stroke="#263238" stroke-width="0.286659" stroke-linecap="round" stroke-linejoin="round"/>
<path d="M55.9316 42.4685L68.3653 40.5438" stroke="#263238" stroke-width="0.286659" stroke-linecap="round" stroke-linejoin="round"/>
<path d="M67.3942 42.7263L65.3857 43.0372L65.8335 45.9293L67.842 45.6184L67.3942 42.7263Z" stroke="#263238" stroke-width="0.286659" stroke-linecap="round" stroke-linejoin="round"/>
<path d="M66.2006 43.5109C66.6249 43.0057 67.322 43.3425 67.1587 44.9102L67.78 45.2183L67.8406 45.6123L65.8335 45.9238L65.751 45.3968L66.5087 45.1021C66.5087 45.1021 65.8015 43.9874 66.2006 43.5109Z" stroke="#263238" stroke-width="0.286659" stroke-linecap="round" stroke-linejoin="round"/>
<path d="M61.8438 47.0469C61.8438 47.0469 63.2952 47.0587 62.8793 46.7691C62.4634 46.4795 62.4011 46.1865 62.7547 46.1814C63.1083 46.1764 63.701 46.855 63.6539 46.4407C63.6068 46.0265 63.8627 46.2959 63.9115 46.3229C63.9604 46.3498 64.3796 46.1814 64.3999 46.2303C64.4201 46.2791 64.3914 46.4155 65.757 46.205" stroke="#263238" stroke-width="0.286659" stroke-linecap="round" stroke-linejoin="round"/>
<path d="M56.9873 43.76L63.0761 42.817" stroke="#263238" stroke-width="0.286659" stroke-linecap="round" stroke-linejoin="round"/>
<path d="M57.0938 44.4503L60.6804 43.8947" stroke="#263238" stroke-width="0.286659" stroke-linecap="round" stroke-linejoin="round"/>
<path d="M57.2832 45.6679L62.286 44.8933" stroke="#263238" stroke-width="0.286659" stroke-linecap="round" stroke-linejoin="round"/>
<path d="M58.835 41.1147L64.9406 40.1683" stroke="#263238" stroke-width="0.286659" stroke-linecap="round" stroke-linejoin="round"/>
<path d="M0.686523 36.8495L14.3376 34.1233L19.1046 57.0103L4.59476 60.1221L0.686523 36.8495Z" stroke="#263238" stroke-width="0.286659" stroke-linecap="round" stroke-linejoin="round"/>
<path d="M4.04492 56.8571L18.5261 54.2354" stroke="#263238" stroke-width="0.286659" stroke-linecap="round" stroke-linejoin="round"/>
<path d="M16.8111 52.2888L9.89551 53.5652" stroke="#263238" stroke-width="0.286659" stroke-linecap="round" stroke-linejoin="round"/>
<path d="M15.7853 51.1404L13.7646 51.4384" stroke="#263238" stroke-width="0.286659" stroke-linecap="round" stroke-linejoin="round"/>
<path d="M16.0935 48.8032L5.77148 50.7397" stroke="#263238" stroke-width="0.286659" stroke-linecap="round" stroke-linejoin="round"/>
<path d="M2.4707 47.4813L16.6 44.9875" stroke="#263238" stroke-width="0.286659" stroke-linecap="round" stroke-linejoin="round" stroke-dasharray="0.29 0.57"/>
<path d="M17.485 56.2694L8.90234 58.0678" stroke="#263238" stroke-width="0.286659" stroke-linecap="round" stroke-linejoin="round"/>
<path d="M17.2289 55.5454L13.1943 56.2695" stroke="#263238" stroke-width="0.286659" stroke-linecap="round" stroke-linejoin="round"/>
<path d="M15.046 43.4788L7.96875 44.8814" stroke="#263238" stroke-width="0.286659" stroke-linecap="round" stroke-linejoin="round"/>
<path d="M14.4881 41.9078L12.2334 42.3507" stroke="#263238" stroke-width="0.286659" stroke-linecap="round" stroke-linejoin="round"/>
<path d="M14.3535 40.8167L4.04492 42.8036" stroke="#263238" stroke-width="0.286659" stroke-linecap="round" stroke-linejoin="round"/>
<path d="M13.4182 35.5057L10.6348 36.0816" stroke="#263238" stroke-width="0.286659" stroke-linecap="round" stroke-linejoin="round"/>
<path d="M4.04669 37.4844L1.64551 37.9508" stroke="#263238" stroke-width="0.286659" stroke-linecap="round" stroke-linejoin="round"/>
<path d="M2.51855 39.2742C2.56863 39.1035 2.65464 38.9455 2.7708 38.8107C2.88697 38.676 3.03062 38.5676 3.1921 38.4929" stroke="#263238" stroke-width="0.286659" stroke-linecap="round" stroke-linejoin="round"/>
<path d="M3.58676 40.8166C3.2886 40.7813 3.01299 40.6402 2.80999 40.419C2.60699 40.1978 2.49007 39.9111 2.48047 39.611" stroke="#263238" stroke-width="0.286659" stroke-linecap="round" stroke-linejoin="round"/>
<path d="M4.52237 40.5304C4.35144 40.6842 4.13872 40.7838 3.91113 40.8167" stroke="#263238" stroke-width="0.286659" stroke-linecap="round" stroke-linejoin="round"/>
<path d="M3.7041 38.3784C3.92091 38.3855 4.13218 38.4486 4.31734 38.5616C4.50251 38.6746 4.65526 38.8336 4.76072 39.0232C4.86618 39.2128 4.92076 39.4264 4.91914 39.6433C4.91751 39.8602 4.85975 40.073 4.75146 40.261" stroke="#263238" stroke-width="0.286659" stroke-linecap="round" stroke-linejoin="round"/>
<path d="M6.1589 38.695C5.93494 38.6243 5.71267 38.5434 5.48535 38.4929" stroke="#263238" stroke-width="0.286659" stroke-linecap="round" stroke-linejoin="round"/>
<path d="M8.06821 38.8566C7.87794 39.3096 6.81374 38.897 6.50391 38.8027" stroke="#263238" stroke-width="0.286659" stroke-linecap="round" stroke-linejoin="round"/>
<path d="M6.24707 37.6543L8.23739 38.1224C8.2054 38.2554 8.18014 38.3901 8.15488 38.5232" stroke="#263238" stroke-width="0.286659" stroke-linecap="round" stroke-linejoin="round"/>
<path d="M5.26074 38.1224C5.47291 37.6173 5.38872 37.4489 5.91745 37.5718" stroke="#263238" stroke-width="0.286659" stroke-linecap="round" stroke-linejoin="round"/>
<path d="M29.5488 73.8657L32.1841 74.674L30.2257 72.3671C31.2993 71.1736 31.9139 69.6375 31.9601 68.0328" stroke="#263238" stroke-width="0.286659" stroke-linecap="round" stroke-linejoin="round"/>
<path d="M26.3506 74.8827C27.2339 74.6009 28.0674 74.1821 28.8208 73.6417" stroke="#263238" stroke-width="0.286659" stroke-linecap="round" stroke-linejoin="round"/>
<path d="M16.1826 69.9827C16.9589 73.7225 21.0911 76.026 25.4135 75.1302" stroke="#263238" stroke-width="0.286659" stroke-linecap="round" stroke-linejoin="round"/>
<path d="M16.8116 65.7662C16.6457 66.0813 16.5049 66.409 16.3906 66.7462" stroke="#263238" stroke-width="0.286659" stroke-linecap="round" stroke-linejoin="round"/>
<path d="M31.8333 66.7361C31.0587 62.9963 26.9248 60.6928 22.604 61.5903C20.642 61.9755 18.8738 63.028 17.5996 64.569" stroke="#263238" stroke-width="0.286659" stroke-linecap="round" stroke-linejoin="round"/>
<path d="M27.2491 65.3656C26.0047 64.0101 24.3091 64.9497 23.6035 66.3254C22.4383 65.3151 20.5136 65.0676 19.8637 66.7901C18.7658 69.6914 22.5208 71.4612 24.2585 72.101C24.4556 72.1751 24.6172 72.2374 24.7519 72.2829C24.8614 72.1903 24.9893 72.0724 25.1443 71.931C26.5183 70.69 29.3472 67.6523 27.2491 65.3656Z" stroke="#263238" stroke-width="0.286659" stroke-linecap="round" stroke-linejoin="round"/>
<path d="M37.5961 10.1704L35.0518 9.11121L36.7777 11.5966C35.598 12.681 34.8414 14.1489 34.6426 15.7389" stroke="#263238" stroke-width="0.286659" stroke-linecap="round" stroke-linejoin="round"/>
<path d="M40.8739 9.46155C39.968 9.65793 39.0982 9.99425 38.2959 10.4584" stroke="#263238" stroke-width="0.286659" stroke-linecap="round" stroke-linejoin="round"/>
<path d="M50.527 15.3179C50.1145 11.5175 46.2231 8.82329 41.835 9.30656" stroke="#263238" stroke-width="0.286659" stroke-linecap="round" stroke-linejoin="round"/>
<path d="M49.4941 19.4535C49.6866 19.1556 49.8555 18.8431 49.9993 18.5189" stroke="#263238" stroke-width="0.286659" stroke-linecap="round" stroke-linejoin="round"/>
<path d="M34.6426 17.0422C35.0551 20.8393 38.9465 23.5302 43.3347 23.0536C45.3243 22.8581 47.1852 21.9806 48.6018 20.5699" stroke="#263238" stroke-width="0.286659" stroke-linecap="round" stroke-linejoin="round"/>
<path d="M44.4311 19.366C46.3767 18.3245 47.1096 15.903 46.0681 13.9574C45.0267 12.0118 42.6052 11.2788 40.6595 12.3203C38.7139 13.3618 37.981 15.7833 39.0225 17.7289C40.064 19.6745 42.4855 20.4074 44.4311 19.366Z" stroke="#263238" stroke-width="0.286659" stroke-linecap="round" stroke-linejoin="round"/>
<path d="M41.0264 16.3484L42.2219 17.4766L44.2156 14.0432" stroke="#263238" stroke-width="0.286659" stroke-linecap="round" stroke-linejoin="round"/>
<path opacity="0.2" d="M47.5388 53.9018C47.5388 53.9018 46.9393 61.1559 47.8065 62.9155C48.6737 64.6752 49.1081 76.6979 48.7192 78.2101C48.7192 78.2101 51.511 78.9139 52.6156 77.9137C53.7202 76.9135 55.4192 77.8766 58.2178 76.9034C61.0164 75.9301 58.9974 54.3279 58.9974 54.3279L59.0833 46.4693L54.4678 42.3573L47.5388 53.9018Z" fill="black" fill-opacity="0.7"/>
<path d="M51.2598 57.3908C51.2424 57.4426 51.2143 57.4902 51.1773 57.5305C50.5812 58.0946 48.0369 58.721 45.8513 59.1723C44.0411 59.5478 42.4835 59.8021 42.4835 59.8021C42.4835 59.8021 41.2846 49.8387 41.2846 48.7913C41.2846 47.7439 39.3516 30.7875 39.3516 30.7875L43.9855 30.5871L50.1333 30.321C50.1333 30.321 50.1704 30.774 50.2327 31.5654C50.6385 36.6069 52.0327 55.4021 51.2598 57.3908Z" fill="#E69FBD"/>
<mask id="mask0_106_1757" style="mask-type:luminance" maskUnits="userSpaceOnUse" x="39" y="30" width="13" height="30">
<path d="M51.2579 57.3908C51.2405 57.4426 51.2123 57.4902 51.1754 57.5305C50.5793 58.0946 48.035 58.721 45.8493 59.1723C44.0392 59.5478 42.4816 59.8021 42.4816 59.8021C42.4816 59.8021 41.2827 49.8387 41.2827 48.7913C41.2827 47.7439 39.3496 30.7875 39.3496 30.7875L43.9836 30.5871L50.1314 30.321C50.1314 30.321 50.1684 30.774 50.2307 31.5654C50.6365 36.6069 52.0308 55.4021 51.2579 57.3908Z" fill="white"/>
</mask>
<g mask="url(#mask0_106_1757)">
<path opacity="0.2" d="M51.2589 57.3908L45.8503 58.4971L43.8078 58.9163C43.2538 58.3725 42.8311 58.3624 42.8311 58.3624L42.6628 56.8385L42.3984 54.3447L40.0713 32.404C40.5764 32.0554 40.8257 31.2926 40.8257 31.2926L43.9408 31.1798L49.3376 30.9828L50.2283 31.5587C50.6375 36.6069 52.0317 55.4021 51.2589 57.3908Z" fill="black" fill-opacity="0.7"/>
<path d="M51.2589 57.3908L45.8503 58.4971L43.8078 58.9163C43.2538 58.3725 42.8311 58.3624 42.8311 58.3624L42.6628 56.8385L42.3984 54.3447L40.0713 32.404C40.5764 32.0554 40.8257 31.2926 40.8257 31.2926L43.9408 31.1798L49.3376 30.9828L50.2283 31.5587C50.6375 36.6069 52.0317 55.4021 51.2589 57.3908Z" stroke="#263238" stroke-width="0.286659" stroke-linecap="round" stroke-linejoin="round"/>
<path d="M43.1172 50.9315L44.9223 50.9281L44.924 51.4922L44.4222 51.6707L43.2654 51.797L43.1172 50.9315Z" fill="#E69FBD" stroke="#263238" stroke-width="0.286659" stroke-linecap="round" stroke-linejoin="round"/>
<path d="M43.2285 52.0933L44.5554 52.0479L44.8955 52.2095L44.8787 52.9588L43.3295 52.9757L43.2285 52.0933Z" fill="#E69FBD" stroke="#263238" stroke-width="0.286659" stroke-linecap="round" stroke-linejoin="round"/>
<path d="M43.441 53.2906L44.9565 53.1812L44.9397 53.7486L44.2072 54.0079L43.4326 53.9641L43.441 53.2906Z" fill="#E69FBD" stroke="#263238" stroke-width="0.286659" stroke-linecap="round" stroke-linejoin="round"/>
<path d="M43.5325 54.2469L44.7567 54.3093L44.8678 54.6224L44.6894 54.9676L43.5948 55.0384L43.4062 54.5046L43.5325 54.2469Z" fill="#E69FBD" stroke="#263238" stroke-width="0.286659" stroke-linecap="round" stroke-linejoin="round"/>
<path d="M44.9439 55.3433L45.1123 55.8333C45.1391 55.8853 45.1532 55.9431 45.1532 56.0017C45.1532 56.0602 45.1391 56.118 45.1123 56.17C45.081 56.2058 45.041 56.233 44.9962 56.2489C44.9513 56.2648 44.9032 56.269 44.8563 56.261C44.762 56.2525 44.6694 56.2206 44.5751 56.2155C44.2905 56.2037 44.0295 56.4378 43.75 56.3839C43.6406 56.0808 43.3644 55.6363 43.7382 55.4999C43.8073 55.478 44.9843 55.4544 44.9439 55.3433Z" fill="#E69FBD" stroke="#263238" stroke-width="0.286659" stroke-linecap="round" stroke-linejoin="round"/>
<path d="M44.9383 56.7223C44.9651 56.8388 44.9842 56.9569 44.9956 57.0759C45.0127 57.1511 45.0102 57.2295 44.9884 57.3035C44.9666 57.3775 44.9262 57.4446 44.871 57.4986C44.7992 57.538 44.7189 57.5594 44.6369 57.5609L43.6637 57.6484C43.6495 57.4647 43.6467 57.2802 43.6552 57.0961C43.7125 56.8772 43.6721 56.8957 43.8792 56.8065C44.2076 56.6667 44.6016 56.889 44.9383 56.7223Z" fill="#E69FBD" stroke="#263238" stroke-width="0.286659" stroke-linecap="round" stroke-linejoin="round"/>
<path d="M41.3984 32.9023C41.3984 32.9023 41.7655 36.4502 41.7824 37.1524" stroke="#263238" stroke-width="0.286659" stroke-linecap="round" stroke-linejoin="round"/>
<path d="M42.1904 32.9412L42.3622 34.8961" stroke="#263238" stroke-width="0.286659" stroke-linecap="round" stroke-linejoin="round"/>
<path d="M44.9336 32.2019L45.1559 34.4936L45.4674 34.5239L45.3663 32.2238L44.9336 32.2019Z" fill="#E69FBD" stroke="#263238" stroke-width="0.286659" stroke-linecap="round" stroke-linejoin="round"/>
<path opacity="0.2" d="M51.2597 57.3908C51.2423 57.4426 51.2142 57.4902 51.1772 57.5305C50.5811 58.0946 48.0368 58.721 45.8511 59.1723V57.6568L42.6703 56.8418L42.1904 56.7189L42.406 54.348L43.2294 45.2889L43.9484 31.1865L43.9787 30.5871L50.1332 30.321C50.1332 30.321 50.1702 30.774 50.2325 31.5654C50.6384 36.6069 52.0326 55.4021 51.2597 57.3908Z" fill="black" fill-opacity="0.7"/>
</g>
<path d="M51.2598 57.3908C51.2424 57.4426 51.2143 57.4903 51.1773 57.5305C50.5812 58.0946 48.0369 58.721 45.8513 59.1723C44.0411 59.5478 42.4835 59.8021 42.4835 59.8021C42.4835 59.8021 41.2846 49.8387 41.2846 48.7913C41.2846 47.7439 39.3516 30.7875 39.3516 30.7875L43.9855 30.5871L50.1333 30.321C50.1333 30.321 50.1704 30.774 50.2327 31.5654C50.6385 36.6069 52.0327 55.4021 51.2598 57.3908Z" stroke="#263238" stroke-width="0.286659" stroke-linecap="round" stroke-linejoin="round"/>
<path d="M54.5214 80.0001C54.5602 79.6448 54.0011 74.5477 53.991 73.9937C53.9641 72.4783 53.5347 70.4896 53.5347 70.4896C52.9352 68.9573 52.4688 65.4262 50.8691 63.1615C49.2695 60.8967 49.2712 58.2328 49.0051 55.9714C48.7391 53.7099 48.8047 53.9053 48.8721 51.8981C48.9207 50.3904 48.8537 48.8812 48.6717 47.3837C48.5387 46.0501 48.2726 43.7044 48.6717 42.6116C49.0708 41.5188 50.1148 41.2645 51.2581 42.359C52.4015 43.4536 52.8679 47.941 52.8679 48.495C52.8679 49.049 52.8679 50.78 53.2686 51.4468C53.2686 51.4468 55.5334 50.2883 55.5334 49.9684C55.5334 49.6485 55.4661 46.8213 55.7995 46.6697L54.4676 42.359L56.9933 41.4615C57.4688 41.888 57.8795 42.3815 58.2125 42.9265C58.4976 43.3778 58.7362 43.8567 58.9247 44.3561C59.9906 47.1833 61.7031 49.1551 62.0567 49.9684C62.4103 50.7817 62.0567 57.241 62.0567 58.4416C62.0567 59.6422 61.2821 65.177 61.3023 66.1082C61.3175 66.7818 61.7721 69.2873 62.2251 71.2086C62.3935 71.9495 63.4156 77.3177 63.5722 77.7437L54.5214 80.0001Z" fill="white"/>
<path opacity="0.4" d="M56.5151 46.3852C56.4983 46.7472 56.931 49.6333 56.931 49.6333C57.2308 50.3523 55.5941 52.804 55.5941 52.804C55.2404 53.0027 55.0889 54.2353 55.0889 54.2353C53.9809 53.9895 51.4433 51.4384 51.4433 51.4384C51.4433 51.4384 51.1436 52.4841 50.8068 55.0722C50.4701 57.6603 52.6052 63.8081 53.5145 68.0531C54.4238 72.2981 53.991 73.9887 53.991 73.9887C53.9641 72.4732 53.5347 70.4846 53.5347 70.4846C52.9352 68.9523 52.4688 65.4212 50.8691 63.1564C49.2695 60.8916 49.2712 58.2328 49.0051 55.9714C48.7391 53.7099 48.8047 53.9053 48.8721 51.8981C48.9207 50.3904 48.8537 48.8812 48.6717 47.3837C48.5387 46.0501 48.2726 43.7045 48.6717 42.6116C49.0708 41.5188 50.1148 41.2645 51.2581 42.359C52.4015 43.4536 52.8679 47.941 52.8679 48.495C52.8679 49.049 52.8679 50.78 53.2686 51.4468C53.2686 51.4468 55.5334 50.2883 55.5334 49.9684C55.5334 49.6485 55.4661 46.8213 55.7995 46.6697L54.4676 42.359L56.9933 41.4615C57.4688 41.888 57.8795 42.3815 58.2125 42.9265C57.3958 44.5599 56.532 46.1595 56.5151 46.3852Z" fill="#E69FBD"/>
<path opacity="0.4" d="M60.7614 66.5543C60.8726 65.544 61.2043 63.1428 61.4148 61.6441C61.1571 62.8144 60.7412 63.4072 60.7412 63.4072C60.7412 63.4072 61.4585 54.8195 61.5293 54.2958C61.6 53.7721 62.324 51.4181 62.058 49.9598C62.4116 50.7715 62.058 57.2324 62.058 58.433C62.058 59.6336 61.2834 65.1685 61.3036 66.0996C61.3188 66.7732 62.0412 71.0653 62.4941 72.9866C61.5208 71.5722 60.6503 67.5697 60.7614 66.5543Z" fill="#E69FBD"/>
<path d="M63.5689 77.7351C63.0368 76.2028 61.3277 67.0258 61.3075 66.0997C61.2873 65.1735 62.0618 59.632 62.0618 58.4331C62.0618 57.2341 62.4155 50.7715 62.0618 49.9599C61.7082 49.1482 59.9957 47.1748 58.9299 44.3476C58.527 43.2421 57.8646 42.2494 56.9985 41.453L54.4727 42.3505L55.8046 46.6612C55.4678 46.8127 55.5386 49.6399 55.5386 49.9599C55.5386 50.2798 53.2738 51.4383 53.2738 51.4383C52.873 50.7647 52.873 49.0405 52.873 48.4865C52.873 47.9325 52.4066 43.4433 51.2632 42.3505C50.1199 41.2577 49.0742 41.5086 48.6768 42.6031C48.2794 43.6976 48.5438 46.0415 48.6768 47.3751C48.8591 48.8743 48.9261 50.3852 48.8772 51.8946C48.8099 53.9018 48.7425 53.7031 49.0102 55.9679C49.278 58.2327 49.2763 60.8965 50.8743 63.1613C52.4723 65.4261 52.9404 68.9572 53.5398 70.4895C53.5398 70.4895 54.6714 78.668 54.5266 79.9999" stroke="#263238" stroke-width="0.286659" stroke-linecap="round" stroke-linejoin="round"/>
<path d="M53.2695 51.4382C53.2695 51.4382 53.6686 53.3023 54.5678 54.2351" stroke="#263238" stroke-width="0.286659" stroke-linecap="round" stroke-linejoin="round"/>
<path d="M53.5107 52.2887C53.5107 52.2887 55.1946 52.804 55.8985 52.836" stroke="#263238" stroke-width="0.286659" stroke-linecap="round" stroke-linejoin="round"/>
<path d="M55.5342 49.9599C55.5342 49.9599 56.7331 49.4059 57.4992 49.7393" stroke="#263238" stroke-width="0.286659" stroke-linecap="round" stroke-linejoin="round"/>
<path d="M55.7998 46.6613C55.7998 46.6613 56.7327 46.5754 56.9314 46.109" stroke="#263238" stroke-width="0.286659" stroke-linecap="round" stroke-linejoin="round"/>
<path d="M51.1777 63.6362C51.1777 63.6362 52.9694 65.8606 53.5015 66.9922" stroke="#263238" stroke-width="0.286659" stroke-linecap="round" stroke-linejoin="round"/>
<path d="M61.5952 53.9019C61.2955 55.6682 60.8947 60.4975 60.7617 61.363" stroke="#263238" stroke-width="0.286659" stroke-linecap="round" stroke-linejoin="round"/>
<path d="M62.1678 50.5712C62.2183 52.1708 61.8311 53.0027 61.8311 53.0027" stroke="#263238" stroke-width="0.286659" stroke-linecap="round" stroke-linejoin="round"/>
<path d="M48.396 28.1876L60.742 31.4442C60.742 31.4442 56.4027 44.6137 55.5221 46.247L54.0504 57.7276C54.0504 57.7276 46.1632 57.3807 42.5361 56.2845C42.5361 56.2845 44.8296 44.3291 44.9525 42.7345C45.0754 41.1399 48.396 28.1876 48.396 28.1876Z" fill="#E69FBD"/>
<mask id="mask1_106_1757" style="mask-type:luminance" maskUnits="userSpaceOnUse" x="42" y="28" width="19" height="30">
<path d="M48.394 28.1876L60.7401 31.4442C60.7401 31.4442 56.4008 44.6137 55.5201 46.247L54.0484 57.7276C54.0484 57.7276 46.1612 57.3807 42.5342 56.2845C42.5342 56.2845 44.8276 44.3291 44.9505 42.7345C45.0734 41.1399 48.394 28.1876 48.394 28.1876Z" fill="white"/>
</mask>
<g mask="url(#mask1_106_1757)">
<path opacity="0.2" d="M45.7392 42.0274L48.4603 30.3936C48.4603 30.3936 49.6306 29.8126 50.0835 29.2822L58.9289 31.7979C58.9289 31.7979 58.9558 32.6651 59.4627 33.2208L54.9987 46.0838L53.916 55.5656C53.916 55.5656 52.4763 55.6801 52.3382 56.7443C52.3382 56.7443 47.6706 56.9969 44.5403 56.1718C44.5403 56.1718 44.1715 55.0217 43.6074 54.2943L45.7392 42.0274Z" fill="black" fill-opacity="0.7"/>
<path d="M45.7392 42.0274L48.4603 30.3936C48.4603 30.3936 49.6306 29.8126 50.0835 29.2822L58.9289 31.7979C58.9289 31.7979 58.9558 32.6651 59.4627 33.2208L54.9987 46.0838L53.916 55.5656C53.916 55.5656 52.4763 55.6801 52.3382 56.7443C52.3382 56.7443 47.6706 56.9969 44.5403 56.1718C44.5403 56.1718 44.1715 55.0217 43.6074 54.2943L45.7392 42.0274Z" stroke="#263238" stroke-width="0.286659" stroke-linecap="round" stroke-linejoin="round"/>
<path d="M48.0036 42.6319C48.0036 42.6319 48.8068 39.6009 51.6357 40.1448C54.4646 40.6887 52.8666 44.4235 52.8666 44.4235C52.8666 44.4235 52.8834 47.4376 50.5883 47.0217C48.598 46.6613 47.5372 45.5685 48.0036 42.6319Z" fill="#E69FBD" stroke="#263238" stroke-width="0.286659" stroke-linecap="round" stroke-linejoin="round"/>
<path d="M49.5369 31.4999C49.5369 31.4999 48.6815 34.9636 48.4609 35.6304" stroke="#263238" stroke-width="0.286659" stroke-linecap="round" stroke-linejoin="round"/>
<path d="M50.268 31.7997L49.7695 33.6991" stroke="#263238" stroke-width="0.286659" stroke-linecap="round" stroke-linejoin="round"/>
<path d="M56.5141 33.1315L58.2165 33.7309L58.0296 34.2647H57.4975L56.3643 33.9987L56.5141 33.1315Z" fill="#E69FBD" stroke="#263238" stroke-width="0.286659" stroke-linecap="round" stroke-linejoin="round"/>
<path d="M56.2307 34.2648L57.4969 34.6638L57.763 34.9299L57.4969 35.6304L56.0303 35.1303L56.2307 34.2648Z" fill="#E69FBD" stroke="#263238" stroke-width="0.286659" stroke-linecap="round" stroke-linejoin="round"/>
<path d="M56.0302 35.4636L57.4969 35.8677L57.2898 36.3965H56.5135L55.7979 36.0968L56.0302 35.4636Z" fill="#E69FBD" stroke="#263238" stroke-width="0.286659" stroke-linecap="round" stroke-linejoin="round"/>
<path d="M55.7992 36.3966L56.9307 36.863V37.1948L56.6478 37.4625L55.5938 37.1628V36.5953L55.7992 36.3966Z" fill="#E69FBD" stroke="#263238" stroke-width="0.286659" stroke-linecap="round" stroke-linejoin="round"/>
<path d="M56.7637 37.9002V38.4188C56.7724 38.476 56.7677 38.5343 56.7499 38.5893C56.732 38.6443 56.7016 38.6943 56.6609 38.7354C56.6191 38.7582 56.5722 38.7702 56.5246 38.7702C56.4769 38.7702 56.43 38.7582 56.3882 38.7354C56.3023 38.695 56.2198 38.6344 56.139 38.599C55.8746 38.4929 55.5496 38.626 55.297 38.4845C55.297 38.1629 55.1842 37.6527 55.5816 37.6426C55.6473 37.6476 56.7637 38.0181 56.7637 37.9002Z" fill="#E69FBD" stroke="#263238" stroke-width="0.286659" stroke-linecap="round" stroke-linejoin="round"/>
<path d="M56.2975 39.1984C56.2848 39.3172 56.2634 39.4348 56.2335 39.5504C56.1965 39.7002 56.1241 39.8669 55.9742 39.9073C55.8935 39.9207 55.8108 39.9138 55.7334 39.8871L54.7871 39.6379C54.8329 39.4608 54.8891 39.2865 54.9555 39.1159C55.0835 38.929 55.0397 38.9324 55.2636 38.9172C55.6274 38.9021 55.9237 39.2439 56.2975 39.1984Z" fill="#E69FBD" stroke="#263238" stroke-width="0.286659" stroke-linecap="round" stroke-linejoin="round"/>
<path d="M53.1016 32.0337L52.5342 34.2648L52.8171 34.3978L53.5007 32.1987L53.1016 32.0337Z" fill="#E69FBD" stroke="#263238" stroke-width="0.286659" stroke-linecap="round" stroke-linejoin="round"/>
<path d="M45.9908 47.0166L47.7387 47.4696L47.5972 48.0151L47.0668 48.0623L45.915 47.8922L45.9908 47.0166Z" fill="#E69FBD" stroke="#263238" stroke-width="0.286659" stroke-linecap="round" stroke-linejoin="round"/>
<path d="M45.8053 48.1702L47.1002 48.4598L47.3898 48.7023L47.1843 49.423L45.6807 49.0491L45.8053 48.1702Z" fill="#E69FBD" stroke="#263238" stroke-width="0.286659" stroke-linecap="round" stroke-linejoin="round"/>
<path d="M45.7088 49.3824L47.204 49.6586L47.0424 50.2025L46.2695 50.2698L45.5303 50.0324L45.7088 49.3824Z" fill="#E69FBD" stroke="#263238" stroke-width="0.286659" stroke-linecap="round" stroke-linejoin="round"/>
<path d="M45.5551 50.3306L46.7237 50.6993L46.7523 51.0311L46.493 51.3207L45.417 51.1119L45.3682 50.5478L45.5551 50.3306Z" fill="#E69FBD" stroke="#263238" stroke-width="0.286659" stroke-linecap="round" stroke-linejoin="round"/>
<path d="M46.6455 51.7466L46.691 52.2635C46.7048 52.3198 46.7051 52.3786 46.6919 52.4351C46.6788 52.4915 46.6525 52.5441 46.6152 52.5885C46.5755 52.6148 46.5299 52.6306 46.4825 52.6344C46.435 52.6382 46.3874 52.63 46.3441 52.6104C46.2548 52.5784 46.1757 52.5245 46.0831 52.4976C45.812 52.4134 45.4988 52.5733 45.2412 52.4538C45.2108 52.1339 45.0576 51.6354 45.4516 51.5967C45.5123 51.5933 46.6556 51.8644 46.6455 51.7466Z" fill="#E69FBD" stroke="#263238" stroke-width="0.286659" stroke-linecap="round" stroke-linejoin="round"/>
<path d="M46.2938 53.0803C46.2914 53.2027 46.2802 53.3248 46.2601 53.4457C46.2349 53.5972 46.1776 53.7706 46.0328 53.8228C45.9532 53.8431 45.8699 53.8431 45.7903 53.8228L44.8271 53.6545C44.8596 53.4735 44.9029 53.2947 44.9568 53.119C45.0679 52.922 45.0242 52.9287 45.2464 52.895C45.6 52.8428 45.9233 53.1577 46.2938 53.0803Z" fill="#E69FBD" stroke="#263238" stroke-width="0.286659" stroke-linecap="round" stroke-linejoin="round"/>
<path d="M53.2676 54.7152C53.2676 54.7152 53.6683 50.2462 53.6683 49.7966" stroke="#263238" stroke-width="0.286659" stroke-linecap="round" stroke-linejoin="round"/>
<path d="M52.4678 54.5148C52.4678 54.5148 52.6362 52.1911 52.6665 51.787" stroke="#263238" stroke-width="0.286659" stroke-linecap="round" stroke-linejoin="round"/>
<path d="M49.3442 52.8361L48.8037 55.4814H49.3442L49.7366 52.8361H49.3442Z" fill="#E69FBD" stroke="#263238" stroke-width="0.286659" stroke-linecap="round" stroke-linejoin="round"/>
<path opacity="0.2" d="M55.5492 46.1814C54.3806 45.9373 53.3383 45.5786 52.5671 45.0617C52.5671 45.0617 53.1261 46.6681 55.108 49.406L54.0422 57.7277C54.0422 57.7277 48.8946 57.502 45.0049 56.8369C46.2004 53.4692 48.3726 47.0874 48.115 45.8228C47.7664 44.0867 48.9973 42.0375 48.9973 42.0375C52.8887 41.337 56.6622 38.3953 59.252 35.9082C57.9336 39.8063 56.1335 45.0263 55.5492 46.1814Z" fill="black" fill-opacity="0.7"/>
</g>
<path d="M48.396 28.1876L60.742 31.4442C60.742 31.4442 56.4027 44.6137 55.5221 46.247L54.0504 57.7276C54.0504 57.7276 46.1632 57.3807 42.5361 56.2845C42.5361 56.2845 44.8296 44.3291 44.9525 42.7345C45.0754 41.1399 48.396 28.1876 48.396 28.1876Z" stroke="#263238" stroke-width="0.286659" stroke-linecap="round" stroke-linejoin="round"/>
<path d="M55.2404 54.4037L53.501 66.9922C53.1137 66.1688 52.058 64.7645 51.5124 64.0623C51.3103 63.7996 51.1756 63.6363 51.1756 63.6363L50.8675 63.1615C49.2695 60.8967 49.2695 58.2328 49.0034 55.968C48.7374 53.7032 48.803 53.9019 48.8704 51.8947C48.9194 50.3882 48.853 48.8801 48.6717 47.3837C48.5387 46.0501 48.2726 43.7044 48.6717 42.6116C48.867 42.0762 49.219 41.7427 49.6601 41.672C50.1013 41.6013 50.6704 41.8034 51.2581 42.359C52.4015 43.4519 52.8679 47.941 52.8679 48.495C52.8679 49.049 52.8679 50.78 53.2686 51.4468C53.2686 51.4384 54.3429 53.4708 55.2404 54.4037Z" fill="white"/>
<path opacity="0.4" d="M50.7361 62.2639C51.0998 62.7287 51.3474 63.3988 51.5124 64.0623C51.3103 63.7996 51.1756 63.6363 51.1756 63.6363L50.8675 63.1614C49.2695 60.8966 49.2695 58.2328 49.0034 55.968C48.7374 53.7032 48.803 53.9019 48.8704 51.8947C48.9194 50.3882 48.853 48.8801 48.6717 47.3837C48.5387 46.05 48.2726 43.7044 48.6717 42.6116C48.867 42.0761 49.219 41.7427 49.6601 41.672C50.5021 41.9111 51.344 42.7682 51.637 44.2348C52.1421 46.6966 49.8639 44.708 49.3368 46.7943C48.8098 48.8806 49.5759 49.443 49.8908 49.9684C50.2057 50.4937 49.8033 51.6522 49.3368 53.2081C48.8704 54.764 49.7376 60.9859 50.7361 62.2639Z" fill="#E69FBD"/>
<path d="M55.2407 54.4036C54.3415 53.4707 53.2689 51.4383 53.2689 51.4383C52.8681 50.7647 52.8681 49.0405 52.8681 48.4865C52.8681 47.9325 52.4017 43.4433 51.2584 42.3505C50.115 41.2577 49.0693 41.5086 48.672 42.6031C48.2746 43.6976 48.5389 46.0415 48.672 47.3751C48.8542 48.8743 48.9212 50.3852 48.8723 51.8946C48.805 53.9018 48.7376 53.7031 49.0054 55.9679C49.2731 58.2327 49.2714 60.8965 50.8694 63.1613L51.1775 63.6362C51.1775 63.6362 52.9692 65.8605 53.5013 66.9921" stroke="#263238" stroke-width="0.286659" stroke-linecap="round" stroke-linejoin="round"/>
<path d="M49.3447 49.0758C49.3447 49.0758 50.872 48.2861 51.6365 48.3534" stroke="#263238" stroke-width="0.286659" stroke-linecap="round" stroke-linejoin="round"/>
<path opacity="0.2" d="M26.0232 27.4821C26.0232 27.4821 22.1604 23.2286 21.8944 22.9676C21.6283 22.7066 21.4279 18.1703 20.6938 16.1733C19.9596 14.1762 19.6043 2.44979 19.6043 2.44979C19.6043 2.44979 18.9055 1.58429 16.9354 2.05072C14.9653 2.51715 13.0339 1.64996 10.8365 2.91622C8.63903 4.18249 12.9009 22.2941 12.9009 22.2941L17.2267 36.0798L26.0232 27.4821Z" fill="black" fill-opacity="0.7"/>
<path d="M28.6764 27.5141C28.6764 27.5141 26.9454 38.572 25.1403 40.0369C24.098 40.8789 22.4731 41.2662 21.0317 41.2156C19.9877 41.1786 19.038 40.9159 18.479 40.4394C17.147 39.3061 15.2796 38.7067 14.3501 37.9742C13.4206 37.2417 13.4173 34.6435 12.8178 32.4444C12.2184 30.2453 11.3512 30.1796 11.1525 27.9822C10.9538 25.7847 10.1523 19.0577 8.70415 17.1903C7.25603 15.3229 7.22235 13.8596 6.6229 11.9602C6.02344 10.0609 1.63867 3.18902 1.63867 3.18902L12.3278 1C12.3278 1 13.3785 5.34941 14.5034 8.89731C15.0371 10.5812 15.5878 12.0865 16.0491 12.8577C16.9351 14.3495 17.7025 15.9085 18.3443 17.5204C19.5533 18.7866 20.215 21.5919 20.4154 24.0487L23.278 25.645C25.4788 26.2461 28.6764 27.5141 28.6764 27.5141Z" fill="white"/>
<path opacity="0.4" d="M28.6761 27.514C28.6761 27.514 26.9451 38.5719 25.14 40.0369C24.0977 40.8788 22.4728 41.2661 21.0314 41.2156C17.6131 40.3737 16.6938 38.4675 16.2307 38.0062C15.6144 37.3915 14.8045 33.6466 15.249 31.4677C15.6935 29.2888 15.3736 28.4822 15.0065 27.418C14.1932 25.0606 16.6736 23.791 16.9295 22.8986C17.1854 22.0061 17.0979 17.0152 15.9815 15.3919C15.3888 14.5281 13.8615 10.076 14.5047 8.90063C15.0385 10.5845 15.5891 12.0899 16.0505 12.8611C16.9364 14.3528 17.7038 15.9118 18.3456 17.5237C19.5546 18.7899 20.2164 21.5953 20.4168 24.052L23.2793 25.6483C25.4785 26.2461 28.6761 27.514 28.6761 27.514Z" fill="#E69FBD"/>
<path d="M15.6232 26.7362C15.6232 26.7362 15.0204 27.4451 14.4883 27.4451" stroke="#263238" stroke-width="0.286659" stroke-linecap="round" stroke-linejoin="round"/>
<path d="M16.9348 29.1322C16.9348 29.1322 16.2866 30.5096 15.251 30.8161" stroke="#263238" stroke-width="0.286659" stroke-linecap="round" stroke-linejoin="round"/>
<path d="M15.7832 37.2046C15.7832 37.2046 17.2498 36.5715 17.4822 35.5056" stroke="#263238" stroke-width="0.286659" stroke-linecap="round" stroke-linejoin="round"/>
<path d="M23.2811 25.6467C23.2811 25.6467 22.9141 26.1132 22.9141 26.4887" stroke="#263238" stroke-width="0.286659" stroke-linecap="round" stroke-linejoin="round"/>
<path d="M12.3346 1C12.3346 1 14.6212 10.4582 16.0559 12.8645C16.9418 14.3562 17.7092 15.9152 18.351 17.5271C19.56 18.7934 20.2218 21.6003 20.4221 24.0571L23.2847 25.6534C25.4821 26.2529 28.673 27.5191 28.673 27.5191C28.673 27.5191 26.942 38.577 25.1369 40.042C23.3318 41.5069 19.8244 41.5676 18.4773 40.436C17.1302 39.3045 15.2779 38.7033 14.3484 37.9708C13.419 37.2384 13.4156 34.6402 12.8161 32.441C12.2167 30.2419 11.3495 30.1762 11.1508 27.9788C10.9521 25.7814 10.1506 19.0544 8.70246 17.1869C7.25434 15.3195 7.22067 13.8563 6.62121 11.9569C6.02176 10.0575 1.63867 3.18902 1.63867 3.18902" stroke="#263238" stroke-width="0.286659" stroke-linecap="round" stroke-linejoin="round"/>
<path d="M32.7267 26.7968L15.0479 54.0096L19.2205 54.4744L31.8982 55.0014L33.1965 30.7959L32.7267 26.7968Z" fill="#263238" stroke="#263238" stroke-width="0.286659" stroke-linecap="round" stroke-linejoin="round"/>
<path d="M32.7267 26.7951L31.0934 54.5367L15.0479 54.0096L16.3141 32.7526L16.7081 26.1519L23.6995 26.4331L32.7267 26.7951Z" fill="#757575"/>
<mask id="mask2_106_1757" style="mask-type:luminance" maskUnits="userSpaceOnUse" x="15" y="26" width="18" height="29">
<path d="M32.7267 26.7951L31.0934 54.5367L15.0479 54.0096L16.3141 32.7526L16.7081 26.1519L23.6995 26.4331L32.7267 26.7951Z" fill="white"/>
</mask>
<g mask="url(#mask2_106_1757)">
<path d="M28.6925 51.3423C29.7713 51.3423 30.6458 50.4678 30.6458 49.3891C30.6458 48.3103 29.7713 47.4358 28.6925 47.4358C27.6138 47.4358 26.7393 48.3103 26.7393 49.3891C26.7393 50.4678 27.6138 51.3423 28.6925 51.3423Z" fill="#BFBFBF" stroke="#263238" stroke-width="0.286659" stroke-miterlimit="10"/>
<path d="M28.1416 48.0924L29.4651 48.2658" stroke="#263238" stroke-width="0.286659" stroke-linecap="round" stroke-linejoin="round"/>
<path d="M27.7871 48.4141L29.7757 48.6077" stroke="#263238" stroke-width="0.286659" stroke-linecap="round" stroke-linejoin="round"/>
<path d="M27.5654 50.3741L29.5558 50.5678" stroke="#263238" stroke-width="0.286659" stroke-linecap="round" stroke-linejoin="round"/>
<path d="M28.4363 48.8569C28.491 48.8705 28.5488 48.8625 28.5977 48.8346C28.6466 48.8067 28.6829 48.761 28.699 48.707L28.8472 48.7222L28.6973 50.1282L28.4767 50.1046L28.5912 49.032L28.4229 49.0135L28.4363 48.8569Z" fill="#263238"/>
<path d="M29.1729 48.9158C29.2605 48.9158 29.3009 48.9814 29.2908 49.0741V49.0909L29.2049 49.0825V49.0673C29.2049 49.0269 29.1948 49.0084 29.1662 49.005C29.1376 49.0016 29.1191 49.0168 29.1157 49.0572C29.1123 49.0976 29.1258 49.133 29.1797 49.1902C29.207 49.2134 29.2285 49.2427 29.2422 49.2758C29.256 49.3089 29.2617 49.3448 29.2588 49.3805C29.2487 49.4731 29.1982 49.5203 29.109 49.5102C29.0197 49.5001 28.981 49.4428 28.9894 49.3519V49.3165L29.0736 49.3249V49.367C29.0736 49.4075 29.0854 49.4243 29.114 49.4277C29.1426 49.431 29.1628 49.4176 29.1662 49.3771C29.1696 49.3367 29.1561 49.3014 29.1022 49.2441C29.0749 49.221 29.0534 49.1916 29.0397 49.1585C29.0259 49.1255 29.0202 49.0896 29.0231 49.0538C29.0349 48.9528 29.0871 48.8989 29.1729 48.9158Z" fill="#263238"/>
<path d="M29.3307 48.9395L29.6102 48.9681L29.6001 49.0506L29.5058 49.0405L29.4536 49.5322L29.3644 49.5238L29.4166 49.0304L29.3223 49.0203L29.3307 48.9395Z" fill="#263238"/>
<path d="M24.5971 28.0264L21.4648 27.3429C21.3839 27.3252 21.3041 27.3765 21.2864 27.4573L20.8603 29.4101C20.8426 29.491 20.8939 29.5708 20.9747 29.5885L24.1071 30.272C24.188 30.2897 24.2678 30.2384 24.2855 30.1576L24.7116 28.2048C24.7292 28.1239 24.678 28.044 24.5971 28.0264Z" fill="white" stroke="#263238" stroke-width="0.286659" stroke-linecap="round" stroke-linejoin="round"/>
<path d="M22.0141 29.2686L22.0024 29.2568C22.0024 29.2568 22.0024 29.2366 21.9939 29.2281C21.9859 29.2206 21.9796 29.2114 21.9754 29.2012C21.9747 29.1979 21.9747 29.1944 21.9754 29.1911C21.9754 29.1911 21.9838 29.1911 21.9889 29.1793C21.993 29.1768 21.9966 29.1734 21.9992 29.1693C22.0018 29.1652 22.0035 29.1606 22.004 29.1557C22.0034 29.153 22.0034 29.1501 22.004 29.1473H22.0141C22.0141 29.1153 21.9939 29.0918 21.9737 29.0665C21.9249 29.0059 21.9148 28.9756 21.9249 28.9352C21.935 28.8947 21.9518 28.883 21.9805 28.888C22.0091 28.8931 22.0209 28.9133 22.0125 28.9537V28.9773L22.0967 28.9958V28.9773C22.108 28.9475 22.1076 28.9145 22.0953 28.885C22.0831 28.8556 22.0601 28.8319 22.031 28.819L22.0411 28.7786L21.9687 28.7617L21.9603 28.8038C21.8946 28.8038 21.8525 28.8459 21.8357 28.9217C21.8292 28.9556 21.8316 28.9905 21.8425 29.0232C21.8534 29.056 21.8725 29.0853 21.898 29.1086C21.9468 29.1675 21.9569 29.2012 21.9468 29.2399C21.9367 29.2787 21.9182 29.2921 21.8895 29.2854C21.8609 29.2787 21.8474 29.2601 21.8559 29.2214L21.866 29.1759L21.7818 29.1574V29.1962C21.7748 29.2115 21.771 29.2281 21.7706 29.2449C21.7701 29.2617 21.773 29.2785 21.7791 29.2942C21.7853 29.3099 21.7945 29.3242 21.8062 29.3363C21.8179 29.3483 21.8319 29.358 21.8474 29.3645V29.405L21.9198 29.4218L21.9283 29.3797H21.972C21.9853 29.3751 21.9974 29.3676 22.0074 29.3578C22.0177 29.3475 22.0262 29.3355 22.0327 29.3224C22.0141 29.2787 22.0141 29.2736 22.0141 29.2686Z" fill="#263238"/>
<path d="M22.4768 29.2416C22.4761 29.2282 22.4727 29.215 22.4667 29.2029C22.4651 29.1963 22.4651 29.1893 22.4667 29.1827C22.4693 29.1776 22.4735 29.1735 22.4785 29.1709C22.524 29.1305 22.4684 29.0766 22.4247 29.0665C22.4095 29.0628 22.3937 29.0629 22.3786 29.0671C22.3636 29.0712 22.3499 29.0791 22.3388 29.0901L22.3741 28.9587L22.529 28.9924L22.5459 28.9116L22.3135 28.8611C22.3086 28.8724 22.3052 28.8843 22.3034 28.8964C22.3034 28.9082 22.3186 28.9116 22.3186 28.9251C22.3186 28.9385 22.3186 28.9369 22.3186 28.9436C22.3216 28.9535 22.3282 28.9618 22.3371 28.9672C22.3455 28.9672 22.3539 28.9823 22.3522 28.9924C22.3534 28.9957 22.3534 28.9993 22.3522 29.0025C22.3459 29.018 22.3346 29.031 22.3203 29.0396C22.3136 29.0408 22.3077 29.0444 22.3034 29.0497V29.0598C22.3034 29.0716 22.2899 29.0783 22.2798 29.085C22.2697 29.0918 22.2445 29.1457 22.2344 29.1827L22.3186 29.2012V29.1844C22.327 29.144 22.3489 29.1339 22.3758 29.1389C22.4028 29.144 22.4196 29.1642 22.4095 29.2046L22.3826 29.3292C22.3826 29.3679 22.3539 29.3797 22.3253 29.373C22.2967 29.3662 22.2832 29.3494 22.2916 29.309L22.3034 29.2568L22.2192 29.2383L22.2091 29.2854C22.2026 29.3037 22.2 29.3231 22.2016 29.3425C22.2032 29.3618 22.2089 29.3806 22.2183 29.3975C22.2278 29.4145 22.2407 29.4293 22.2563 29.4408C22.2719 29.4524 22.2897 29.4605 22.3087 29.4646C22.3277 29.4687 22.3473 29.4687 22.3662 29.4646C22.3852 29.4605 22.4031 29.4525 22.4187 29.4409C22.4343 29.4294 22.4472 29.4147 22.4567 29.3977C22.4661 29.3808 22.4719 29.362 22.4735 29.3427C22.4795 29.3093 22.4806 29.2753 22.4768 29.2416Z" fill="#263238"/>
<path d="M23.5769 29.4774C23.5754 29.464 23.572 29.451 23.5668 29.4386C23.5652 29.432 23.5652 29.4251 23.5668 29.4184C23.5694 29.4133 23.5736 29.4092 23.5786 29.4066C23.6224 29.3662 23.5668 29.3123 23.5247 29.3022C23.5096 29.2985 23.4938 29.2987 23.4787 29.3028C23.4637 29.3069 23.45 29.3148 23.4389 29.3258L23.4742 29.1945L23.6291 29.2281L23.646 29.1473L23.4136 29.0968C23.408 29.1078 23.4045 29.1198 23.4035 29.1322C23.4035 29.144 23.417 29.1473 23.4187 29.1608C23.4203 29.1743 23.4187 29.1726 23.4187 29.1793C23.4217 29.1892 23.4283 29.1976 23.4372 29.2029C23.4456 29.2029 23.454 29.218 23.4523 29.2281C23.4507 29.2382 23.4523 29.2281 23.4523 29.2382C23.4459 29.2542 23.4339 29.2673 23.4187 29.2753C23.4127 29.277 23.4074 29.2806 23.4035 29.2854C23.4035 29.2854 23.4035 29.2854 23.4035 29.2955C23.4035 29.3056 23.3917 29.314 23.3816 29.3208C23.3715 29.3275 23.3463 29.3814 23.3362 29.4184L23.4203 29.4369V29.4201C23.4288 29.3797 23.4507 29.3696 23.4776 29.3746C23.5045 29.3797 23.5197 29.3999 23.5113 29.4403L23.4843 29.5649C23.4843 29.6036 23.4557 29.6154 23.4271 29.6087C23.3985 29.602 23.385 29.5851 23.3934 29.5447L23.4052 29.4925L23.321 29.474L23.3109 29.5211C23.3058 29.5388 23.3044 29.5574 23.3068 29.5757C23.3092 29.594 23.3153 29.6116 23.3247 29.6274C23.3342 29.6432 23.3468 29.6569 23.3617 29.6677C23.3767 29.6784 23.3937 29.686 23.4117 29.6899C23.4297 29.6939 23.4483 29.694 23.4664 29.6905C23.4845 29.6869 23.5016 29.6797 23.5168 29.6692C23.532 29.6588 23.5448 29.6453 23.5546 29.6297C23.5644 29.6141 23.5708 29.5966 23.5736 29.5784C23.5803 29.5451 23.5815 29.511 23.5769 29.4774Z" fill="#263238"/>
<path d="M22.6688 29.0748C22.6772 29.0344 22.6991 29.0226 22.726 29.0294C22.7347 29.0306 22.7426 29.0348 22.7485 29.0412C22.7543 29.0477 22.7577 29.056 22.758 29.0647H22.7866C22.7876 29.0696 22.7896 29.0743 22.7925 29.0783C22.7954 29.0824 22.7992 29.0858 22.8035 29.0883C22.8136 29.0967 22.827 29.1018 22.8388 29.1102C22.8444 29.0925 22.8461 29.0738 22.8439 29.0554C22.8417 29.037 22.8357 29.0192 22.8261 29.0033C22.8166 28.9874 22.8038 28.9737 22.7886 28.9631C22.7733 28.9525 22.756 28.9453 22.7378 28.9418C22.7192 28.9356 22.6995 28.9337 22.6801 28.9363C22.6607 28.9389 22.6421 28.9459 22.6259 28.9568C22.6096 28.9677 22.5961 28.9822 22.5863 28.9992C22.5765 29.0161 22.5707 29.0351 22.5694 29.0546C22.5686 29.0653 22.5686 29.076 22.5694 29.0866C22.5694 29.1136 22.5694 29.1052 22.5964 29.1153C22.6233 29.1254 22.6317 29.1388 22.6081 29.1473H22.6233C22.6233 29.1473 22.6233 29.159 22.6233 29.1641C22.6233 29.1691 22.6233 29.1725 22.6149 29.1792C22.6164 29.1836 22.6164 29.1884 22.6149 29.1927C22.6149 29.1927 22.6014 29.2146 22.598 29.218C22.5931 29.2263 22.5862 29.2333 22.5778 29.2382C22.5559 29.2517 22.5458 29.2382 22.5391 29.2719C22.5324 29.3055 22.5307 29.3089 22.5273 29.3257C22.5208 29.3442 22.5184 29.3638 22.52 29.3832C22.5217 29.4027 22.5275 29.4216 22.537 29.4387C22.5465 29.4557 22.5595 29.4706 22.5752 29.4822C22.5909 29.4939 22.6088 29.5021 22.6279 29.5063C22.647 29.5105 22.6668 29.5106 22.6859 29.5066C22.705 29.5026 22.7231 29.4946 22.7389 29.4831C22.7546 29.4716 22.7678 29.4569 22.7775 29.4399C22.7872 29.423 22.7932 29.4041 22.795 29.3847L22.822 29.2668H22.8119C22.7919 29.2578 22.7728 29.2471 22.7546 29.2348L22.7395 29.2213L22.7058 29.3729C22.7058 29.4133 22.6755 29.4251 22.6486 29.4184C22.6216 29.4116 22.6065 29.3931 22.6149 29.3527L22.6637 29.1237C22.6626 29.1095 22.6661 29.0953 22.6738 29.0833L22.6688 29.0748Z" fill="#263238"/>
<path d="M23.0832 29.3528H23.0916C23.0916 29.3444 23.0916 29.336 23.0916 29.3242H23.1286L23.1573 29.1945C23.1637 29.1761 23.1662 29.1565 23.1646 29.137C23.1629 29.1176 23.1571 29.0987 23.1476 29.0816C23.1381 29.0645 23.1251 29.0497 23.1094 29.038C23.0937 29.0264 23.0757 29.0182 23.0567 29.014C23.0376 29.0098 23.0178 29.0097 22.9987 29.0137C22.9796 29.0177 22.9615 29.0257 22.9457 29.0372C22.9299 29.0487 22.9168 29.0634 22.9071 29.0804C22.8974 29.0973 22.8914 29.1161 22.8895 29.1356V29.1592C22.9013 29.1693 22.9081 29.1861 22.9199 29.1945C22.9316 29.2029 22.9502 29.1945 22.9451 29.2231C22.9401 29.2518 22.935 29.2467 22.9451 29.2551C22.9552 29.2636 22.9569 29.2551 22.9586 29.2669C22.9606 29.2696 22.9617 29.2728 22.9617 29.2762C22.9617 29.2795 22.9606 29.2828 22.9586 29.2855C22.9586 29.2855 22.9468 29.2855 22.9451 29.3006C22.9434 29.3158 22.9451 29.3259 22.935 29.3292C22.9249 29.3326 22.903 29.309 22.8845 29.3107C22.8779 29.3126 22.8719 29.3163 22.8671 29.3213C22.8624 29.3264 22.8591 29.3326 22.8575 29.3393C22.849 29.368 22.8428 29.3972 22.839 29.4269C22.8329 29.4447 22.8307 29.4637 22.8328 29.4824C22.8348 29.5011 22.8409 29.5192 22.8508 29.5353C22.8606 29.5513 22.8738 29.5651 22.8895 29.5754C22.9053 29.5858 22.9231 29.5926 22.9417 29.5953C22.9609 29.6004 22.9809 29.6013 23.0004 29.5978C23.0199 29.5943 23.0384 29.5865 23.0546 29.5751C23.0695 29.5622 23.082 29.5468 23.0916 29.5296C23.0992 29.521 23.1034 29.5099 23.1034 29.4985C23.1034 29.487 23.0992 29.4759 23.0916 29.4673H23.0832L23.0714 29.4269C23.0714 29.4269 23.0714 29.4269 23.0832 29.4168C23.095 29.4067 23.0832 29.3848 23.1 29.373C23.1169 29.3612 23.0798 29.3562 23.0832 29.3528ZM23.0125 29.4673C23.004 29.5077 22.9822 29.5195 22.9535 29.5128C22.9249 29.506 22.9114 29.4875 22.9199 29.4471L22.9872 29.144C22.9956 29.1036 23.0158 29.0918 23.0445 29.0985C23.0731 29.1053 23.0866 29.1238 23.0781 29.1642L23.0125 29.4673Z" fill="#263238"/>
<path d="M23.2333 29.5616L23.2148 29.6475L23.1289 29.629L23.1474 29.5431L23.2333 29.5616Z" fill="#263238"/>
<path d="M23.9373 29.4116C23.9474 29.4116 23.9474 29.3729 23.9507 29.3594C23.9572 29.341 23.9597 29.3214 23.958 29.3019C23.9563 29.2825 23.9506 29.2636 23.9411 29.2465C23.9315 29.2295 23.9185 29.2146 23.9029 29.2029C23.8872 29.1913 23.8692 29.1831 23.8501 29.1789C23.831 29.1747 23.8113 29.1746 23.7922 29.1786C23.773 29.1826 23.755 29.1906 23.7392 29.2021C23.7234 29.2136 23.7102 29.2283 23.7005 29.2453C23.6908 29.2622 23.6849 29.2811 23.683 29.3005L23.6577 29.4133C23.6796 29.4335 23.6577 29.4655 23.6678 29.4891C23.6779 29.5127 23.6678 29.4891 23.6678 29.4992C23.6678 29.5093 23.6426 29.5144 23.6426 29.5278C23.6426 29.5278 23.6291 29.548 23.6207 29.5581C23.6154 29.5661 23.6125 29.5755 23.6123 29.5851C23.6058 29.6035 23.6033 29.6231 23.605 29.6426C23.6067 29.662 23.6124 29.6809 23.622 29.698C23.6315 29.7151 23.6445 29.7299 23.6602 29.7416C23.6758 29.7532 23.6938 29.7614 23.7129 29.7656C23.732 29.7698 23.7517 29.7699 23.7708 29.7659C23.79 29.7619 23.808 29.7539 23.8238 29.7424C23.8396 29.7309 23.8528 29.7162 23.8625 29.6993C23.8722 29.6823 23.8781 29.6635 23.88 29.644L23.9002 29.5514C23.9002 29.5278 23.9305 29.4655 23.9002 29.447C23.8699 29.4285 23.8867 29.447 23.8834 29.4352C23.8813 29.4313 23.8802 29.427 23.8802 29.4226C23.8802 29.4182 23.8813 29.4138 23.8834 29.41C23.9036 29.3931 23.9187 29.4217 23.9373 29.4116ZM23.8345 29.5598C23.8345 29.5699 23.8177 29.5733 23.8093 29.5868C23.8028 29.6035 23.7988 29.6211 23.7975 29.639C23.7891 29.6794 23.7672 29.6895 23.7403 29.6844C23.7133 29.6794 23.6965 29.6592 23.7066 29.6188C23.7066 29.607 23.7217 29.5733 23.7184 29.5632C23.715 29.5531 23.7015 29.5632 23.6948 29.543C23.6897 29.5254 23.6897 29.5067 23.6948 29.4891C23.6956 29.4852 23.6956 29.4812 23.6948 29.4773C23.6948 29.4773 23.6864 29.4622 23.6948 29.4554C23.6948 29.4554 23.6948 29.4335 23.6948 29.4184C23.7487 29.4386 23.747 29.3561 23.7554 29.3224C23.7638 29.2887 23.7857 29.2702 23.8127 29.2769C23.8396 29.2837 23.8548 29.3022 23.8463 29.3409C23.8349 29.3752 23.8281 29.4109 23.8261 29.447C23.8332 29.4481 23.8396 29.4515 23.8445 29.4567C23.8494 29.4619 23.8524 29.4685 23.8531 29.4756C23.8514 29.4845 23.8514 29.4937 23.8531 29.5026C23.8531 29.5026 23.8531 29.5177 23.8531 29.5245C23.8531 29.5312 23.843 29.5245 23.8362 29.5245C23.8316 29.5263 23.8274 29.5293 23.8242 29.5331C23.821 29.5369 23.8187 29.5415 23.8177 29.5464L23.8345 29.5598Z" fill="#263238"/>
<path d="M22.9951 28.1875L23.5643 28.3121" stroke="#263238" stroke-width="0.286659" stroke-linecap="round" stroke-linejoin="round"/>
<path d="M21.7021 27.9047L22.7125 28.1269" stroke="#263238" stroke-width="0.286659" stroke-linecap="round" stroke-linejoin="round"/>
<path d="M21.6182 28.2953L22.285 28.4401" stroke="#263238" stroke-width="0.286659" stroke-linecap="round" stroke-linejoin="round"/>
<path opacity="0.4" d="M15.7842 53.7636C16.669 53.5322 17.5789 53.41 18.4935 53.3999C20.137 53.3595 21.1877 53.671 22.5348 53.0042C23.8819 52.3374 24.7558 53.538 26.0439 52.8712C27.3321 52.2044 27.9299 51.1368 28.6741 51.1604C29.4184 51.184 30.5264 39.2572 30.8834 37.2046C31.2403 35.1519 31.9998 29.4302 32.2608 28.2683L30.7941 54.1274L15.7842 53.7636Z" fill="white"/>
<path d="M15.8547 48.675L19.9616 53.6711L15.624 53.4016L15.8547 48.675Z" fill="#E69FBD" stroke="#263238" stroke-width="0.286659" stroke-linecap="round" stroke-linejoin="round"/>
<path d="M26.7544 38.7958L26.6887 40.6969C26.6796 40.9621 26.6183 41.223 26.5083 41.4646C26.3984 41.7061 26.2419 41.9237 26.0478 42.1047C25.8538 42.2858 25.626 42.4269 25.3774 42.5199C25.1288 42.6129 24.8643 42.656 24.5991 42.6468L22.6458 42.5777C22.3798 42.5686 22.1182 42.5071 21.8761 42.3966C21.634 42.2861 21.416 42.1288 21.2349 41.9339C21.0537 41.7389 20.9128 41.5101 20.8203 41.2605C20.7278 41.011 20.6855 40.7456 20.6959 40.4797L20.7834 38.0044C20.8023 37.469 21.033 36.963 21.4249 36.5976C21.8168 36.2323 22.3377 36.0375 22.8731 36.0562L24.8264 36.1235C24.8803 36.1235 24.9341 36.1235 24.9948 36.1353C24.7214 36.3982 24.5489 36.7486 24.5072 37.1256C24.4655 37.5025 24.5572 37.8822 24.7664 38.1985C24.9756 38.5148 25.2891 38.7478 25.6523 38.8569C26.0155 38.9661 26.4055 38.9444 26.7544 38.7958Z" fill="#E69FBD" stroke="#263238" stroke-width="0.286659" stroke-linecap="round" stroke-linejoin="round"/>
<path d="M27.1062 37.1541C27.1001 37.3369 27.0399 37.5137 26.9333 37.6623C26.8267 37.8109 26.6784 37.9245 26.5072 37.9887C26.336 38.053 26.1496 38.0651 25.9715 38.0234C25.7935 37.9817 25.6318 37.8882 25.5069 37.7546C25.382 37.621 25.2996 37.4533 25.27 37.2729C25.2404 37.0924 25.265 36.9073 25.3407 36.7408C25.4163 36.5743 25.5397 36.434 25.6951 36.3376C25.8505 36.2413 26.031 36.1932 26.2137 36.1994C26.4585 36.2082 26.6898 36.3136 26.8571 36.4925C27.0243 36.6714 27.1139 36.9093 27.1062 37.1541Z" fill="#E69FBD" stroke="#263238" stroke-width="0.286659" stroke-linecap="round" stroke-linejoin="round"/>
<path opacity="0.4" d="M21.251 40.7155L24.122 38.2604C24.122 38.2604 23.7582 36.9453 24.122 36.5294H22.7429C22.4108 36.5283 22.0908 36.6541 21.8482 36.881C21.6057 37.1078 21.4589 37.4188 21.4379 37.7502L21.251 40.7155Z" fill="white"/>
<path opacity="0.4" d="M25.7908 37.2047L26.4054 36.5311C26.4054 36.5311 26.0231 36.2735 25.7908 36.5311C25.5584 36.7888 25.7908 37.2047 25.7908 37.2047Z" fill="white"/>
<path d="M25.4912 51.8727L30.1201 52.0731" stroke="#263238" stroke-width="0.286659" stroke-linecap="round" stroke-linejoin="round"/>
<path d="M23.8887 52.3391L30.1206 52.6725" stroke="#263238" stroke-width="0.286659" stroke-linecap="round" stroke-linejoin="round"/>
<path d="M28.4883 53.671H30.1199" stroke="#263238" stroke-width="0.286659" stroke-linecap="round" stroke-linejoin="round"/>
<path opacity="0.2" d="M22.8158 36.6691C20.4281 37.8175 17.8417 33.7948 16.9358 33.2408C16.7125 33.0998 16.5042 32.9362 16.3145 32.7525L16.7085 26.1517L23.6982 26.4329C23.6527 27.4163 23.6679 28.5024 23.8868 29.1271C24.3583 30.4894 25.2019 35.5224 22.8158 36.6691Z" fill="black" fill-opacity="0.7"/>
<path opacity="0.4" d="M20.1396 36.8745C20.1396 36.8745 22.0491 37.703 22.9147 37.2113C23.7802 36.7196 24.713 35.78 24.846 33.6937C24.846 33.6937 25.9826 36.6321 23.6909 37.5127C21.3992 38.3934 20.1396 36.8745 20.1396 36.8745Z" fill="white"/>
<path opacity="0.4" d="M19.3945 38.0499C19.3945 38.0499 23.2674 39.0906 24.9243 37.208C24.9243 37.208 24.7021 38.2537 22.9138 38.5551C21.1255 38.8565 19.3945 38.0499 19.3945 38.0499Z" fill="white"/>
<path opacity="0.4" d="M25.6243 31.3229C25.3296 30.7992 25.6917 35.5056 25.6917 35.5056C25.6917 35.5056 26.2238 32.3972 25.6243 31.3229Z" fill="white"/>
</g>
<path d="M32.7267 26.7951L31.0934 54.5367L15.0479 54.0096L16.3141 32.7526L16.7081 26.1519L23.6995 26.4331L32.7267 26.7951Z" stroke="#263238" stroke-width="0.286659" stroke-linecap="round" stroke-linejoin="round"/>
<path opacity="0.4" d="M31.9154 54.6848L31.3311 54.5366L32.727 29.1322L32.9745 30.8093L31.9154 54.6848Z" fill="white"/>
<path d="M22.815 36.6692C22.5942 36.7865 22.3486 36.8497 22.0986 36.8535C21.8486 36.8573 21.6012 36.8016 21.377 36.6911C20.9888 36.4874 20.6756 36.1654 20.4828 35.7717C19.8177 34.5728 18.0177 31.8416 17.6859 31.0569C17.3542 30.2722 16.62 28.0529 15.8876 27.1217C15.1551 26.1905 14.7543 24.7896 14.7543 24.7896L14.4883 11.2008C14.8874 13.1659 15.9869 15.397 15.9869 15.397C16.9422 15.8941 17.7539 16.6281 18.3443 17.5288C18.5162 17.7118 18.6701 17.9108 18.804 18.1232C19.8918 19.807 20.4188 22.838 20.4761 25.1954C20.5434 27.8609 21.4089 29.0682 22.8082 31.3903C24.2075 33.7123 23.7243 36.1523 22.815 36.6692Z" fill="white"/>
<path opacity="0.4" d="M22.8148 36.6692C22.5931 36.7837 22.3478 36.8453 22.0983 36.8491C21.8488 36.8528 21.6018 36.7988 21.3768 36.6911C22.1412 36.4823 23.1448 36.0899 22.9141 35.5124C22.5521 34.5896 21.4929 35.9586 20.9608 35.5124C20.4287 35.0661 18.4957 32.5067 19.7232 31.3802C20.9507 30.2537 20.5651 28.3644 19.7232 27.8323C18.8813 27.3002 19.4285 26.0322 19.6946 24.0369C19.863 22.8295 19.2854 20.0949 18.8105 18.1215C19.8983 19.8053 20.4254 22.8363 20.4826 25.1937C20.55 27.8592 21.4155 29.0666 22.8148 31.3886C24.2141 33.7106 23.7241 36.1842 22.8148 36.6692Z" fill="#E69FBD"/>
<path d="M14.4883 11.1924C14.8874 13.1574 15.9869 15.3886 15.9869 15.3886C16.9422 15.8857 17.7539 16.6197 18.3443 17.5203C19.7436 18.9853 20.4104 22.5163 20.4761 25.1802C20.5418 27.8441 21.4089 29.0531 22.8082 31.3751C24.2075 33.6972 23.8186 36.1186 22.8082 36.6692C22.1044 37.0548 21.1429 36.9706 20.4761 35.7717C19.8093 34.5728 18.0109 31.8416 17.6792 31.0569C17.3475 30.2722 16.6133 28.0529 15.8808 27.1217C15.1484 26.1905 14.7476 24.7896 14.7476 24.7896" stroke="#263238" stroke-width="0.286659" stroke-linecap="round" stroke-linejoin="round"/>
<path d="M18.8145 30.8095C18.8145 30.8095 19.9022 30.7118 20.4006 30.3043" stroke="#263238" stroke-width="0.286659" stroke-linecap="round" stroke-linejoin="round"/>
<path d="M14.3551 25.0573C14.3551 25.0573 14.1429 25.5624 15.2542 26.0676" stroke="#263238" stroke-width="0.286659" stroke-linecap="round" stroke-linejoin="round"/>
</svg>
