<svg width="116" height="114" viewBox="0 0 116 114" fill="none" xmlns="http://www.w3.org/2000/svg">
<path d="M97.5503 56.6935C96.3678 56.0498 95.829 56.5858 95.4008 56.0498C94.9725 55.5138 96.5833 54.1158 93.3563 52.7178C93.3563 52.7178 93.1435 49.7063 88.7368 49.5986C84.3301 49.4908 85.5126 52.6101 84.3301 53.3615C83.1476 54.113 82.8243 52.9305 81.6418 53.6848C80.4593 54.4391 80.9981 55.942 80.0283 56.1548C79.0586 56.3675 77.7711 55.1878 76.5913 55.942C75.4116 56.6963 75.4088 57.3235 74.8701 57.3235C74.3313 57.3235 73.2593 56.8952 72.6128 57.3235C71.9663 57.7517 71.2148 58.2905 71.2148 58.2905H98.4095C98.4095 58.2905 98.7328 57.3373 97.5503 56.6935Z" fill="white" stroke="#263238" stroke-width="0.490466" stroke-miterlimit="10"/>
<path opacity="0.5" d="M97.5503 56.6935C96.3678 56.0498 95.829 56.5858 95.4008 56.0498C94.9725 55.5138 96.5833 54.1158 93.3563 52.7178C93.3563 52.7178 93.1435 49.7063 88.7368 49.5986C84.3301 49.4908 85.5126 52.6101 84.3301 53.3615C83.1476 54.113 82.8243 52.9305 81.6418 53.6848C80.4593 54.4391 80.9981 55.942 80.0283 56.1548C79.0586 56.3675 77.7711 55.1878 76.5913 55.942C75.4116 56.6963 75.4088 57.3235 74.8701 57.3235C74.3313 57.3235 73.2593 56.8952 72.6128 57.3235C71.9663 57.7517 71.2148 58.2905 71.2148 58.2905H98.4095C98.4095 58.2905 98.7328 57.3373 97.5503 56.6935Z" fill="white" stroke="#263238" stroke-width="0.490466" stroke-miterlimit="10"/>
<path d="M27.3764 59.8432C26.5724 59.4039 26.2077 59.7713 25.9148 59.4039C25.622 59.0364 26.7188 58.0888 24.5334 57.1383C24.5334 57.1383 24.387 55.0911 21.3893 55.0192C18.3916 54.9474 19.1956 57.0665 18.3916 57.5776C17.5876 58.0888 17.3693 57.2848 16.5654 57.7959C15.7614 58.307 16.1261 59.332 15.4602 59.4785C14.7944 59.6249 13.9241 58.8209 13.1201 59.332C12.3161 59.8432 12.3161 60.2825 11.9514 60.2825C11.5867 60.2825 10.8463 59.9896 10.4153 60.2825C9.98426 60.5753 9.46484 60.94 9.46484 60.94H27.9593C27.9593 60.94 28.1804 60.2825 27.3764 59.8432Z" fill="white" stroke="#263238" stroke-width="0.490466" stroke-miterlimit="10"/>
<path opacity="0.5" d="M27.3764 59.8432C26.5724 59.4039 26.2077 59.7713 25.9148 59.4039C25.622 59.0364 26.7188 58.0888 24.5334 57.1383C24.5334 57.1383 24.387 55.0911 21.3893 55.0192C18.3916 54.9474 19.1956 57.0665 18.3916 57.5776C17.5876 58.0888 17.3693 57.2848 16.5654 57.7959C15.7614 58.307 16.1261 59.332 15.4602 59.4785C14.7944 59.6249 13.9241 58.8209 13.1201 59.332C12.3161 59.8432 12.3161 60.2825 11.9514 60.2825C11.5867 60.2825 10.8463 59.9896 10.4153 60.2825C9.98426 60.5753 9.46484 60.94 9.46484 60.94H27.9593C27.9593 60.94 28.1804 60.2825 27.3764 59.8432Z" fill="white" stroke="#263238" stroke-width="0.490466" stroke-miterlimit="10"/>
<path d="M40.5736 67.7947C39.7696 67.3554 39.405 67.7201 39.1121 67.3554C38.8192 66.9907 39.9161 66.0403 37.7307 65.0899C37.7307 65.0899 37.5842 63.0426 34.5865 62.9708C31.5889 62.8989 32.3928 65.0153 31.5889 65.5292C30.7849 66.0431 30.5666 65.2363 29.7626 65.7474C28.9586 66.2586 29.3233 67.2836 28.6575 67.43C27.9916 67.5764 27.1213 66.7697 26.3174 67.2836C25.5134 67.7975 25.5134 68.234 25.1487 68.234C24.784 68.234 24.0435 67.9411 23.6125 68.234C23.1815 68.5269 22.6621 68.8916 22.6621 68.8916H41.1566C41.1566 68.8916 41.3776 68.223 40.5736 67.7947Z" fill="white" stroke="#263238" stroke-width="0.490466" stroke-miterlimit="10"/>
<path opacity="0.5" d="M40.5736 67.7947C39.7696 67.3554 39.405 67.7201 39.1121 67.3554C38.8192 66.9907 39.9161 66.0403 37.7307 65.0899C37.7307 65.0899 37.5842 63.0426 34.5865 62.9708C31.5889 62.8989 32.3928 65.0153 31.5889 65.5292C30.7849 66.0431 30.5666 65.2363 29.7626 65.7474C28.9586 66.2586 29.3233 67.2836 28.6575 67.43C27.9916 67.5764 27.1213 66.7697 26.3174 67.2836C25.5134 67.7975 25.5134 68.234 25.1487 68.234C24.784 68.234 24.0435 67.9411 23.6125 68.234C23.1815 68.5269 22.6621 68.8916 22.6621 68.8916H41.1566C41.1566 68.8916 41.3776 68.223 40.5736 67.7947Z" fill="white" stroke="#263238" stroke-width="0.490466" stroke-miterlimit="10"/>
<path d="M93.385 34.4001C93.432 34.8229 93.4817 33.9995 93.5121 33.3447C93.4238 33.6895 93.3811 34.0443 93.385 34.4001Z" fill="#263238"/>
<path d="M89.414 39.7186C89.2648 39.9728 89.1377 40.2077 89.1377 40.2077L89.414 39.7186Z" fill="#263238"/>
<path d="M99.302 36.2788C99.5561 36.5116 99.8339 36.7172 100.131 36.8922L99.302 35.3367C99.302 35.3367 100.042 35.9252 99.8711 35.6323C99.6998 35.3395 98.1637 33.4027 98.1637 33.4027C98.1637 33.4027 100.015 35.0742 97.7382 32.5462C97.2795 32.0406 96.8541 31.5875 96.4507 31.1814L96.3761 30.9051L97.1718 31.8555L96.5446 30.2531C96.7518 30.604 96.7574 29.811 96.7574 29.811L95.5749 27.6671C95.5749 27.6671 96.3816 28.7722 96.3015 28.4959C96.2214 28.2196 95.8788 27.6422 95.1632 26.5619C94.7792 25.9817 93.7818 25.4899 92.9529 25.1584C92.7678 24.8821 92.4667 24.5229 92.4667 24.5229C92.8311 24.7024 93.1733 24.9241 93.4862 25.1833C93.7182 25.443 93.2099 24.7163 93.2099 24.7163C93.2099 24.7163 94.4007 25.6695 94.8096 25.8215C95.2185 25.9734 94.6051 25.0755 94.6051 25.0755L95.5334 25.711L96.8458 27.54C96.8458 27.54 95.6909 24.907 96.2241 25.1446C96.7574 25.3822 96.5833 25.4872 96.7214 25.722L97.1359 26.4238C97.1359 26.4238 98.1443 28.67 98.5919 29.4325C99.0395 30.1951 98.0835 27.3659 98.0835 27.3659L98.8074 28.5954C98.766 28.2889 98.6948 27.9873 98.5947 27.6947C98.4897 27.5206 99.1003 28.4213 99.1003 28.4213C99.0139 27.9841 98.8929 27.5545 98.7383 27.1366C98.6002 26.9017 99.8048 28.0097 99.8048 28.0097L98.7687 26.2525L100.31 27.3935C100.31 27.3935 97.7548 24.7965 96.901 23.8792C96.0473 22.9619 95.9838 23.3957 95.6578 23.1111C95.3317 22.8266 93.7928 23.0282 93.7928 23.0282L94.6935 22.8127C94.6935 22.8127 93.0883 22.4978 92.5965 22.4701C92.1047 22.4425 89.2811 23.0006 89.2811 23.0006C89.672 22.6213 90.041 22.2201 90.3862 21.7988C90.7066 21.8558 91.0143 21.969 91.2952 22.1331C91.6765 22.379 90.9388 21.3954 90.9388 21.3954L91.729 21.796L91.4223 20.8732L91.7594 20.9119C92.0964 20.9478 92.3119 21.0556 93.337 21.7187C94.362 22.3817 94.304 22.017 94.304 22.017L93.8757 21.5584L93.5552 20.8787L93.2789 20.6605L92.5247 20.0665L93.8509 20.3096L92.4694 19.1575C92.4694 19.1575 93.7293 19.2846 94.4338 19.8151C95.1383 20.3455 95.0251 20.4146 95.0251 20.4146L95.5113 22.1773L95.7185 21.1882L96.459 21.7767C96.459 21.7767 96.3733 20.9478 96.3181 20.5997C96.2628 20.2516 97.1469 21.2131 97.4066 21.3788C97.6663 21.5446 96.89 20.5002 96.6137 20.0306C96.3374 19.5609 97.5696 20.177 97.5696 20.177L96.8513 19.4946L97.6553 19.6548L97.7409 19.1299L97.0419 18.7707L96.3816 18.4309L97.3597 18.4861C96.2476 18.0569 95.0801 17.7881 93.8923 17.6877C92.0854 17.5689 91.4665 17.8534 91.4665 17.8534L92.102 16.9251L90.7206 17.66L91.5494 16.1405L90.5161 17.066L91.1681 15.8918L90.8172 16.099L89.5767 18.0137L89.1651 18.254L88.4357 19.1575L87.0322 19.5968L88.024 19.8012L86.5127 20.4533L87.5599 20.6246C87.5599 20.6246 86.347 20.7102 86.079 20.7876C85.811 20.8649 86.568 20.8152 86.568 20.8152L85.0622 21.0721C85.0622 21.0721 86.3663 21.4092 86.5873 21.517C86.8084 21.6247 86.2254 21.5722 85.4518 21.8678C85.2279 21.9542 85.0139 22.0644 84.8136 22.1966C84.7351 21.5429 84.6058 20.8963 84.4268 20.2626C83.4874 16.7925 83.3217 16.4996 82.794 16.0161C82.2662 15.5326 81.1804 15.1514 81.1804 15.1514C81.1804 15.1514 82.1309 16.0907 81.9679 15.9498C81.8048 15.8089 80.2245 15.3973 80.4428 15.5078C80.661 15.6183 81.7303 16.4858 81.7303 16.4858L80.2024 16.4389C80.2024 16.4389 81.4816 16.8671 81.2385 16.8533C80.8933 16.8743 80.5499 16.9186 80.2107 16.9859L80.9898 17.2373L80.2162 17.5329L80.9622 17.7263L79.7907 18.4171L79.6084 18.7431C79.5393 18.6823 79.473 18.6187 79.4039 18.5635C77.434 16.9638 76.3289 15.4857 75.0497 15.0547C73.7705 14.6237 71.8835 14.2258 71.1596 14.3474C70.77 14.4054 69.9136 14.6734 69.2422 14.8723C70.2147 14.7646 71.6127 14.7121 71.6127 14.7121C71.6127 14.7121 69.6456 15.7924 70.2644 15.505C70.8833 15.2177 72.646 15.1265 72.646 15.1265C72.646 15.1265 71.1651 15.2895 71.9332 15.4028C72.7013 15.5161 73.5053 15.6625 73.5053 15.6625C73.5053 15.6625 71.2176 16.0631 72.2896 16.1405C73.3616 16.2178 74.2236 16.3449 74.2236 16.3449C74.2236 16.3449 73.229 16.5328 73.8119 16.5853C74.3949 16.6378 75.0718 16.7124 75.0718 16.7124C75.0718 16.7124 72.9803 16.9168 73.7733 16.9224C74.3588 16.9392 74.9428 16.9909 75.5221 17.0771C75.5221 17.0771 73.9086 17.555 74.3977 17.5827C74.8772 17.6396 75.3519 17.7319 75.8178 17.859C75.8178 17.859 74.102 18.1573 74.5579 18.1352C74.7983 18.1187 75.3398 18.1352 75.7957 18.1352L76.5389 18.1546L76.9091 18.6464C76.9091 18.6464 74.8342 18.6077 75.5774 18.8011L75.9255 18.884C75.4832 18.9979 75.053 19.1543 74.6408 19.3509C72.1542 20.4975 70.0407 21.5888 70.3087 21.5087C70.5766 21.4286 72.3172 21.0362 72.1432 21.1385C72.0603 21.1882 71.61 21.4147 71.2066 21.6164C71.9995 21.3042 73.1931 20.9147 73.1931 20.9147C73.1931 20.9147 70.8502 22.2961 71.4718 22.0198C72.0934 21.7435 73.997 21.086 73.997 21.086L72.7068 21.8071C73.1185 21.5639 75.2928 20.8373 75.2928 20.8373C75.2928 20.8373 72.7538 22.017 73.6351 21.8955C73.9083 21.853 74.1786 21.794 74.4446 21.7187C74.4594 21.7444 74.4829 21.764 74.5109 21.7739C74.9502 21.9866 76.8096 21.5253 76.8096 21.5253C76.8096 21.5253 75.0055 22.3541 75.7542 22.1469C76.3386 22.0012 76.9308 21.8886 77.528 21.8098C77.528 21.8098 75.5746 22.6387 76.1134 22.4867C76.6521 22.3348 78.3071 22.0612 78.3071 22.0612C78.3071 22.0612 76.4118 22.8625 76.8345 22.7741C77.2551 22.707 77.6796 22.6674 78.1054 22.6553C78.1054 22.6553 76.13 23.1857 76.6798 23.1802C77.1335 23.1926 77.5853 23.2425 78.0308 23.3294L78.4922 23.8488C78.4922 23.8488 74.7099 22.9177 72.6212 23.1222C70.5324 23.3266 68.7366 23.3598 67.7392 23.951L64.7526 25.711C64.9874 25.5728 67.8525 24.6749 67.8525 24.6749C67.8525 24.6749 65.2858 25.9486 66.0704 25.8021C66.861 25.6068 67.6381 25.3604 68.3968 25.0645C68.3968 25.0645 65.5262 26.7553 66.3909 26.4818C67.2557 26.2083 69.5848 25.0727 69.5848 25.0727C69.5848 25.0727 67.3441 26.631 67.8 26.5978C68.2559 26.5647 70.864 25.4927 70.864 25.4927L69.2919 26.5757L71.2259 25.8353C71.2259 25.8353 69.9467 26.7443 70.2838 26.7829C70.6209 26.8216 72.2371 26.3437 72.2371 26.3437L71.4083 26.8272L74.1877 26.0563C74.1877 26.0563 72.7234 26.9183 72.9941 26.841C73.2649 26.7636 75.2597 26.1364 75.2597 26.1364C75.2597 26.1364 73.7263 26.8824 74.0882 26.8272C74.4502 26.7719 77.2213 25.8491 77.2213 25.8491L75.6603 27.0841L75.8951 27.0123L77.0638 26.6531C77.0638 26.6531 77.4092 27.2388 77.0113 27.2361C76.6135 27.2333 75.0525 27.5123 75.0525 27.5123C75.0525 27.5123 73.4141 28.0842 72.7952 28.3688C72.1763 28.6534 71.4939 28.9766 71.4939 28.9766L73.7594 28.67L71.9222 29.4353L72.9499 29.3027L71.3668 30.2337L72.2095 30.0542L70.5103 31.0571C70.5103 31.0571 71.8779 30.5653 71.679 30.7614C71.4801 30.9576 69.6925 32.4827 69.6925 32.4827C69.8417 32.8695 68.3719 34.5244 68.546 34.4167C68.72 34.3089 69.8113 33.7508 69.8113 33.7508C69.8113 33.7508 68.0984 34.9941 68.3664 34.914C68.6344 34.8339 70.5214 33.8835 70.5214 33.8835C70.5214 33.8835 68.9355 35.2124 68.7946 35.3726C68.6537 35.5329 69.3472 35.3726 69.3472 35.3726L68.7946 36.323C69.4642 36.3392 70.1341 36.3134 70.8004 36.2457C71.2069 36.1577 71.5973 36.0077 71.9581 35.8009L72.4057 35.2234L72.599 35.8175L72.7648 34.2233L73.0687 35.5439L73.0135 33.4442L73.3395 35.066L73.5439 34.4747L73.9335 35.2704L74.6601 33.4221L74.848 34.4139L75.5967 32.8695L75.442 34.6184L74.3811 37.489C72.2233 40.354 69.3168 44.1585 65.971 48.5072C61.2741 54.6048 49.731 66.3552 49.731 66.3552C49.731 66.3552 44.8104 73.2623 41.8154 78.3238C42.9746 77.7907 44.1759 77.3545 45.4071 77.0198C46.3215 75.3353 47.3211 73.6985 48.4021 72.1157C54.5742 63.037 62.5616 55.9669 65.1035 53.0521C67.6453 50.1373 73.7512 40.937 74.4502 39.5777C75.1023 38.4118 75.8656 37.3116 76.7295 36.2927L77.1743 35.8175L76.9229 36.5966L77.9755 35.0328L77.9949 35.334L78.8956 34.5051L79.1719 34.2509L79.9482 33.5574L79.2161 34.6101L80.4483 33.8862L79.5421 34.8919L81.0009 34.8228L79.9455 35.4445C79.9455 35.4445 81.2274 35.4776 80.9235 35.4997C80.6196 35.5218 79.1498 35.834 79.1498 35.834L80.6859 36.033L78.5364 36.6684L80.1554 36.7402L78.2049 37.1795L79.8847 37.2155L77.3373 37.8481L79.4592 37.7017C79.4592 37.7017 76.9726 38.1493 77.2158 38.3123C77.4589 38.4753 79.5808 38.5886 79.5808 38.5886L77.9894 39.3677L79.4122 39.2406L78.064 40.0336L79.5614 39.6274L77.8346 40.7077L79.2962 40.2435L77.8429 41.2575L78.2242 41.5061L77.9479 42.2245L79.3293 41.4896L77.7103 42.7605L78.8818 42.0698L78.1386 43.2191L79.0503 42.7605L78.18 43.8242L79.0586 43.3075L78.4204 44.2358L79.7465 42.5035L80.0698 42.0808L80.592 41.2216L80.6914 41.7935L81.1777 40.8762C81.1777 40.8762 81.418 39.9451 81.5893 40.238C81.7373 40.5531 81.8521 40.8827 81.9319 41.2216L81.9458 39.6357L82.3519 37.1077L82.8326 37.9366C82.8326 37.9366 82.7884 36.3866 82.9266 36.6187C83.0647 36.8508 83.4184 37.5912 83.4184 37.5912L83.189 35.9915L84.4848 37.1215L83.4957 38.257L84.5456 38.0333L83.2913 38.8621L84.4461 38.8124L82.6309 39.8816L83.9958 39.7877L82.3381 40.8458L83.6477 40.39L81.9458 41.788L83.5482 41.1608L81.9347 42.9787L83.6311 42.3737L82.2994 43.8656L83.4239 43.3628L82.7166 44.1723L83.2692 43.9209L82.8299 44.7718L82.2773 45.8493L82.4016 46.3273L83.8825 44.8243L82.8382 46.9379L84.1173 46.0262L83.1559 48.0126L84.2417 46.8909L84.5787 46.5428L85.3689 45.6062L85.3855 46.3052L85.7087 45.247L85.8828 45.5399C85.8828 45.5399 85.3302 42.7135 85.5292 43.0533C85.7281 43.3932 86.184 45.5095 86.184 45.5095C86.184 45.5095 86.2116 43.6777 86.1978 42.5809C86.184 41.484 86.2668 41.357 86.4962 40.2767C86.7255 39.1964 86.8056 38.1217 86.8912 37.5967C87.0069 37.0212 87.0588 36.4347 87.046 35.8478C87.046 35.2207 87.151 35.4334 87.1371 35.1433C87.1371 34.9969 87.0902 34.7234 86.9907 34.1459C86.8053 33.065 86.6891 31.9733 86.6426 30.8775L87.651 33.1264L87.546 36.0274C87.546 36.0274 87.8223 33.2646 87.8914 33.5409C87.9586 34.1769 87.9928 34.816 87.9936 35.4555C87.9936 35.4555 88.3196 33.9995 88.3417 34.3034C88.3638 34.6073 88.1069 37.1215 88.1069 37.1215C88.1069 37.1215 88.7645 35.1571 88.8888 35.6379C89.0131 36.1186 88.5655 38.036 88.5655 38.036C88.5655 38.036 89.375 36.0606 89.3004 36.7375C89.2259 37.4144 88.2892 40.6469 88.2892 40.6469C88.2892 40.6469 89.5381 37.5415 89.6513 37.8841C89.7523 38.1167 89.9021 38.325 90.0906 38.4946L89.4082 39.7462C89.632 39.3649 89.9249 38.9395 90.016 39.1688C90.1625 39.5556 89.5657 41.4868 89.5657 41.4868C89.5657 41.4868 90.4664 39.5335 90.5907 40.0142C90.715 40.4949 89.5905 42.7329 89.5905 42.7329L90.5879 41.752C90.5879 41.752 89.6209 43.1887 89.8558 43.0506C90.0906 42.9124 91.2372 41.7686 91.2372 41.7686L90.3697 43.3573L91.414 42.5837L90.5852 43.8601L91.5135 43.1556L90.8366 44.4209C90.8366 44.4209 91.5218 43.3158 91.4941 43.7965C91.4045 44.3199 91.2562 44.8315 91.0521 45.3216C91.0521 45.3216 92.0163 42.9401 92.1572 43.1721C92.2842 43.5006 92.3768 43.8413 92.4335 44.1889C92.4335 44.1889 92.5606 41.5918 92.801 42.0007C92.9529 42.2582 93.085 42.527 93.1961 42.8047L92.6794 40.5944L93.2513 41.8349C93.2513 41.8349 92.3092 38.7599 92.4225 38.9367L91.9749 38.1742C91.9749 38.1742 92.6932 37.5166 92.3009 35.3782C91.9086 33.2397 91.3864 31.8141 91.2151 31.5102C91.0438 31.2063 92.0799 32.5794 92.0799 32.5794C92.0799 32.5794 91.5991 31.3637 91.8036 31.5627C92.1476 32.0423 92.4667 32.5394 92.7595 33.0518C92.7595 33.0518 92.4501 31.1842 92.5882 31.4162C92.7264 31.6483 93.1629 33.6017 93.1629 33.6017L93.5552 32.6623C93.5552 32.6623 93.5552 32.98 93.5304 33.353C93.7265 32.4081 94.0691 31.2532 94.0691 31.2532L93.9558 33.6099C93.9558 33.6099 94.4587 32.0517 94.572 32.3777C94.6852 32.7037 94.572 33.9636 94.572 33.9636C94.572 33.9636 95.1024 33.1347 95.2903 32.8308C95.2037 33.2515 95.1501 33.6782 95.1301 34.1073L95.7434 33.2784L95.2406 34.8366L96.0252 34.2841L95.3759 35.8976L96.2573 34.9858L95.981 36.0081C95.981 36.0081 96.785 34.8256 96.6634 35.2897C96.4942 35.8161 96.2958 36.3326 96.0694 36.8369C96.0694 36.8369 96.9756 35.8285 96.948 36.3175C96.8357 36.9499 96.674 37.5725 96.4645 38.1797C96.4645 38.1797 97.6332 36.5468 97.5945 36.8839C97.537 37.1848 97.4443 37.4778 97.3182 37.757C97.3182 37.757 97.8128 36.9917 97.8929 37.2597C97.9354 37.6545 97.9354 38.0528 97.8929 38.4477C97.8929 38.4477 98.2051 37.6354 98.2825 37.8951C98.3598 38.1548 98.462 38.7378 98.462 38.7378C98.462 38.7378 98.3543 37.6161 98.5587 38.3648C98.6814 38.8151 98.7445 39.2795 98.7466 39.7462L98.8903 37.8454L99.4152 39.2738C99.4152 39.2738 99.1058 37.0082 99.2108 37.1851C99.3158 37.3619 99.8103 37.9338 99.7302 37.6658C99.6501 37.3978 98.9428 35.939 99.302 36.2788ZM80.0422 19.1492L80.871 19.0442L81.733 19.1658L80.6527 19.804C80.4511 19.5774 80.2466 19.3592 80.0449 19.152L80.0422 19.1492ZM83.3382 22.1662C83.0371 22.1856 82.6392 22.1828 82.6392 22.1828L83.2415 22.5365L82.689 22.5751C82.0882 21.6322 81.4265 20.7296 80.708 19.8731L81.3158 19.8206C81.8214 19.7791 82.3574 19.746 82.2635 19.804C82.0867 19.9062 82.4099 20.1908 82.4099 20.1908C82.4099 20.1908 81.2523 20.6356 81.523 20.5555C81.8357 20.5139 82.1525 20.5139 82.4652 20.5555L82.0314 20.8898L82.3906 21.0749L82.6005 21.1854L82.9348 21.6192L82.5508 21.7684C82.5508 21.7684 83.6366 22.1469 83.3382 22.169V22.1662ZM91.9031 27.5206L91.9859 27.3328L92.1793 27.6615C92.0854 27.609 91.9915 27.5704 91.9003 27.5234L91.9031 27.5206ZM92.9253 28.1202L92.8231 28.0539C92.7568 27.7389 92.696 27.4654 92.696 27.4654C92.696 27.4654 92.8286 27.7914 92.9888 28.1671L92.9253 28.1202ZM93.4281 28.4931C93.3701 28.2169 93.3093 27.9737 93.3093 27.9737L93.6022 28.6285L93.4281 28.4931ZM94.2404 29.1341C94.2404 28.9766 94.2238 28.8578 94.2238 28.8578C94.2238 28.8578 94.2598 28.9932 94.3123 29.2004L94.2404 29.1341Z" fill="#263238"/>
<path d="M71.204 21.5861C70.9994 21.6652 70.8 21.7575 70.6072 21.8623C70.3752 22.0005 70.7564 21.8071 71.204 21.5861Z" fill="#263238"/>
<path d="M69.2426 14.8751C68.9347 14.8833 68.6307 14.946 68.3447 15.0602C68.2259 15.1763 68.6652 15.0464 69.2426 14.8751Z" fill="#263238"/>
<path d="M7.5483 13.3971C7.50962 13.5545 7.80801 13.2064 8.18928 12.7395C7.93879 12.9195 7.72184 13.1421 7.5483 13.3971Z" fill="#263238"/>
<path d="M13.5734 17.2125C13.4461 17.3888 13.3307 17.5734 13.2281 17.7651C13.1038 18.0303 13.3248 17.6629 13.5734 17.2125Z" fill="#263238"/>
<path d="M38.6387 14.469C38.7579 14.8046 38.9205 15.1232 39.1222 15.4166C39.4012 15.7427 38.9813 15.0299 38.6387 14.469Z" fill="#263238"/>
<path d="M16.6742 21.4535L18.5474 19.2432C18.5474 19.2432 17.8152 20.7794 17.9948 20.5639C18.1744 20.3484 19.4785 18.7072 19.4785 18.7072C19.4785 18.7072 18.6247 20.1853 18.8955 19.9367C19.1663 19.688 20.9455 17.3672 20.9455 17.3672L20.3432 19.2681L20.4952 19.0774L21.2633 18.1243C21.2633 18.1243 21.8766 18.4171 21.5395 18.6354C21.2025 18.8537 20.0752 19.9754 20.0752 19.9754C20.0752 19.9754 19.0392 21.3568 18.6938 21.9508C18.3485 22.5448 17.9561 23.1858 17.9561 23.1858L19.6608 21.6607L18.5557 23.3184L19.332 22.6332L18.5446 24.2909L19.1414 23.6693L18.2932 25.4541C18.2932 25.4541 19.1524 24.2799 19.0972 24.5534C19.0419 24.8269 18.4148 27.098 18.4148 27.098C18.7546 27.3356 18.4617 29.5348 18.5474 29.3497C18.633 29.1646 19.2243 28.0871 19.2243 28.0871C19.2243 28.0871 18.5004 30.0819 18.6717 29.8664C18.843 29.6508 19.8791 27.7997 19.8791 27.7997C19.8791 27.7997 19.3072 29.7918 19.2823 30.01C19.2574 30.2283 19.7326 29.6951 19.7326 29.6951L19.8128 30.8002C20.3773 30.437 20.9189 30.0393 21.4346 29.6094C21.7215 29.3085 21.9609 28.9657 22.1446 28.5927L22.1916 27.8578L22.6861 28.2446L21.9291 26.8272L22.9182 27.7528L21.6998 26.0398L22.8768 27.2057L22.7138 26.6007L23.4846 27.0427L23.0508 25.1087L23.7636 25.8271L23.5177 24.1224L24.3687 25.6613L25.0953 28.6424C24.913 32.2341 24.6339 37.0221 24.2913 42.5119C23.8161 50.2064 20.824 66.4436 20.824 66.4436C20.824 66.4436 20.4731 80.012 21.3765 84.7503C21.702 86.3928 21.928 88.0536 22.0534 89.7234C23.0867 89.2067 24.2306 88.6182 25.4655 87.9938C24.3383 84.9823 22.9044 79.8186 22.9293 71.9859C22.9652 60.9815 25.6258 50.6291 26.101 46.7805C26.5762 42.9318 26.4878 31.8611 26.3082 30.3498C26.1947 29.0133 26.2113 27.6688 26.3579 26.3354L26.4629 25.6889L26.6895 26.4763V24.5866L26.8774 24.8269L27.1536 23.6334L27.2393 23.2659L27.4962 22.2547V23.5367L28.1124 22.2437L27.9245 23.5892L29.0932 22.7133L28.5655 23.8185C28.5655 23.8185 29.6485 23.125 29.3943 23.3129C29.1401 23.5008 28.1124 24.5866 28.1124 24.5866L29.4938 23.8903L28.1041 25.6254L29.4855 24.7744L28.1041 26.2277L29.5159 25.3187L27.7587 27.272L29.4358 25.9597C29.4358 25.9597 27.615 27.7307 27.919 27.7251C28.2229 27.7196 30.027 26.62 30.027 26.62L29.1429 28.1617L30.248 27.2582L29.5767 28.6728L30.5879 27.4931L29.7728 29.369L30.7288 28.1617L30.0906 29.8194H30.5464L30.7122 30.5792L31.4471 29.1977L30.8144 31.1621L31.4001 29.9299L31.425 31.3113L31.9251 30.4162L31.8008 31.7976L32.2373 30.8748V32.002L32.3671 29.8194L32.4003 29.2862L32.3506 28.2805L32.7539 28.7004L32.6434 27.6671C32.6434 27.6671 32.3202 26.7581 32.6268 26.9046C32.9235 27.0842 33.2012 27.2934 33.4557 27.529L32.5799 26.2056L31.4996 23.8793L32.3588 24.2882C32.3588 24.2882 31.4554 23.0255 31.6985 23.1416C31.9417 23.2576 32.6517 23.6721 32.6517 23.6721L31.5659 22.4757L33.2733 22.6857L33.0882 24.1832L33.8342 23.4068L33.2512 24.7882L34.1823 24.1003L33.2733 26.0094L34.3536 25.164L33.5662 26.9792L34.3951 25.874L33.7651 27.9876L34.7404 26.5675L34.4227 28.9822L35.4891 27.529L35.2129 29.5155L35.8621 28.4656L35.7295 29.5348L36.0555 29.0099L36.166 29.9631L36.307 31.1704L36.6799 31.4992L37.0667 29.4188L37.3845 31.7589L37.937 30.2863L38.252 32.4745L38.5283 30.9356L38.6139 30.4548L38.7438 29.2337L39.1499 29.8056L38.8267 28.7142L39.1333 28.8607C39.1333 28.8607 37.0888 26.8272 37.4563 27.004C37.8238 27.1809 39.3737 28.6617 39.3737 28.6617C39.3737 28.6617 38.3708 27.1284 37.7464 26.2249C37.122 25.3215 37.1192 25.1695 36.7048 24.1417C36.2904 23.114 35.7544 22.1801 35.5334 21.6966C35.3065 21.1542 35.0212 20.6382 34.6824 20.1577C34.3288 19.6383 34.5387 19.7516 34.3647 19.5195C34.2763 19.4035 34.0884 19.1962 33.6822 18.7735C32.9238 17.9796 32.217 17.1379 31.5659 16.2538L33.6601 17.5551L35.1963 20.0251C35.1963 20.0251 33.8729 17.5827 34.0912 17.7596C34.5026 18.2502 34.8881 18.762 35.246 19.2929C35.246 19.2929 34.6934 17.9115 34.8896 18.1408C35.0858 18.3702 36.271 20.6136 36.271 20.6136C36.271 20.6136 35.7185 18.6133 36.0887 18.9559C36.4589 19.2985 37.1634 21.1302 37.1634 21.1302C37.1634 21.1302 36.7297 19.036 37.0446 19.6383C37.3596 20.2406 38.3929 23.4538 38.3929 23.4538C38.3929 23.4538 37.6939 20.1743 37.9702 20.3815C38.1814 20.5251 38.4222 20.6196 38.6747 20.6578L38.8101 22.0807C38.7825 21.6386 38.788 21.1192 38.9897 21.2518C39.3295 21.4894 39.9125 23.4289 39.9125 23.4289C39.9125 23.4289 39.5699 21.3015 39.9401 21.6303C40.3103 21.9591 40.6308 24.4512 40.6308 24.4512L40.9071 23.0698C40.9071 23.0698 40.9071 24.8076 41.0259 24.5617C41.1447 24.3158 41.4486 22.7244 41.4486 22.7244L41.6337 24.5506L42.0675 23.3212L42.0979 24.8463L42.4709 23.7411L42.6201 25.1695C42.6201 25.1695 42.5648 23.8599 42.8162 24.2826C43.0326 24.768 43.1947 25.2758 43.2997 25.7967C43.2997 25.7967 42.7665 23.2797 43.0234 23.3958C43.3146 23.5955 43.5841 23.8251 43.8274 24.081C43.8274 24.081 42.4764 21.8513 42.9074 22.0558C43.1736 22.1857 43.4303 22.3343 43.6755 22.5006L42.0039 20.9451L43.1726 21.6552C43.1726 21.6552 40.6695 19.63 40.8546 19.7212L40.0478 19.3206C40.0478 19.3206 40.2744 18.3729 38.7548 16.8147C37.2353 15.2564 35.992 14.3696 35.6936 14.2231C35.3952 14.0767 37.0087 14.6237 37.0087 14.6237C37.0087 14.6237 35.9312 13.8833 36.2075 13.9385C36.4838 13.9938 37.832 14.6403 37.832 14.6403C37.832 14.6403 36.528 13.2589 36.7739 13.3777C37.0198 13.4965 38.4758 14.8696 38.4758 14.8696L38.2741 13.8695L38.6388 14.458C38.2713 13.5739 37.9122 12.4135 37.9122 12.4135L39.1361 14.4303C39.1361 14.4303 38.6802 12.8555 38.9565 13.0489C39.2328 13.2423 39.8351 14.3751 39.8351 14.3751C39.8351 14.3751 39.8158 13.3943 39.7937 13.0296C39.9587 13.4277 40.1536 13.8129 40.3766 14.1817L40.4181 13.1429L40.8739 14.7204L41.2221 13.828L41.6199 15.5272L41.8382 14.2756L42.1946 15.2979C42.1946 15.2979 42.1946 13.8667 42.3603 14.3198C42.5105 14.8489 42.6322 15.3857 42.725 15.9278C42.725 15.9278 42.9102 14.5851 43.1616 15.005C43.4227 15.5935 43.6379 16.2013 43.8053 16.823C43.8053 16.823 43.8578 14.8088 44.0153 15.1128C44.1356 15.3946 44.2227 15.6894 44.275 15.9913C44.275 15.9913 44.2584 15.0768 44.4739 15.2564C44.7286 15.5621 44.9491 15.8947 45.1315 16.2483C45.1315 16.2483 44.9326 15.4001 45.1508 15.5769C45.3691 15.7537 45.7697 16.1765 45.7697 16.1765C45.7697 16.1765 45.0541 15.3062 45.6426 15.8118C45.9971 16.12 46.31 16.4729 46.5737 16.8616L45.6288 15.2039L46.8638 16.0936C46.8638 16.0936 45.3415 14.3861 45.5238 14.4718C45.7062 14.5574 46.4411 14.7481 46.2256 14.5823C46.0101 14.4165 44.5955 13.5766 45.0845 13.6595C45.4267 13.7079 45.7729 13.7218 46.1178 13.7009L44.5513 12.8721C44.5513 12.8721 45.4962 12.9439 45.1895 12.7975C44.8828 12.6511 42.5261 11.9023 42.5261 11.9023C42.5261 11.9023 44.9961 12.2532 41.6973 11.4326C41.0342 11.2669 40.4264 11.1315 39.8655 11.0182L39.6472 10.8303L40.8408 11.1729L39.4317 10.2032C39.7992 10.38 39.3599 9.71692 39.3599 9.71692L37.18 8.61179C37.18 8.61179 38.4675 9.07318 38.2492 8.88807C38.031 8.70296 37.4204 8.41562 36.2241 7.92107C35.5831 7.64479 34.4862 7.80227 33.6049 7.99567C33.2982 7.87135 32.8451 7.74149 32.8451 7.74149C33.248 7.68641 33.6559 7.67807 34.0608 7.71662C34.3978 7.80227 33.5717 7.48178 33.5717 7.48178C33.5717 7.48178 35.0941 7.60611 35.5057 7.50665C35.9174 7.40719 34.92 7.00105 34.92 7.00105H36.0445L38.1581 7.78293C38.1581 7.78293 35.7268 6.24403 36.3014 6.1418C36.8761 6.03958 36.7905 6.22469 37.0363 6.34073L37.774 6.69713C37.774 6.69713 39.8683 7.99844 40.664 8.37971C41.4597 8.76098 39.0864 6.94579 39.0864 6.94579L40.3766 7.56191C40.1706 7.33066 39.942 7.12056 39.6942 6.93474C39.5119 6.84633 40.5231 7.25247 40.5231 7.25247C40.2058 6.93865 39.8649 6.64955 39.5036 6.3877C39.2577 6.27166 40.885 6.51479 40.885 6.51479L39.0422 5.6362L40.9596 5.72185C40.9596 5.72185 37.39 4.99799 36.166 4.71618C34.9421 4.43437 35.1355 4.82669 34.7073 4.7742C34.279 4.7217 33.1159 5.74948 33.1159 5.74948L33.7403 5.06706C33.7403 5.06706 32.2318 5.70527 31.8063 5.95669C31.3808 6.20811 29.3473 8.26919 29.3473 8.26919C29.4585 7.73447 29.5396 7.19395 29.5905 6.65017C29.8873 6.51765 30.2054 6.43907 30.5298 6.41809C30.9857 6.41809 29.8226 6.00642 29.8226 6.00642L30.7011 5.89591L29.9303 5.3019L30.2315 5.14442C30.5326 4.98693 30.784 4.95102 31.9914 4.92891C33.1988 4.90681 32.9584 4.63605 32.9584 4.63605L32.3478 4.49515L31.6958 4.10006L31.3449 4.07243L30.3862 4.00336L31.6239 3.45079L29.8308 3.29607C29.8308 3.29607 30.936 2.69377 31.8284 2.7435C32.7208 2.79324 32.6572 2.91204 32.6572 2.91204L34.0387 4.10559L33.6546 3.16622L34.5995 3.24082C34.5995 3.24082 34.069 2.61089 33.8204 2.34013C33.5717 2.06937 34.8565 2.38157 35.1604 2.37605C35.4643 2.37052 34.2403 1.93675 33.7486 1.70191C33.2568 1.46707 34.6216 1.29025 34.6216 1.29025L33.6463 1.12448L34.4006 0.806751L34.1796 0.323253L33.3977 0.414427L32.6628 0.502838L33.4916 0C32.3313 0.268127 31.215 0.699761 30.1762 1.28196C28.6124 2.19646 28.2588 2.78218 28.2588 2.78218V1.65494L27.5515 3.01979L27.3968 1.28472L27.0569 2.63299L26.9409 1.29577L26.7641 1.66323L26.8083 3.94811L26.6038 4.37911L26.5044 5.5395L25.5816 6.68332L26.5182 6.30205L25.6313 7.68347L26.5955 7.23865C26.2003 7.54076 25.8212 7.86354 25.46 8.20565C25.2804 8.42115 25.88 7.95423 25.88 7.95423L24.7748 9.00964C24.7748 9.00964 26.043 8.55929 26.2861 8.52338C26.5292 8.48746 26.0098 8.77479 25.5429 9.45445C25.4062 9.65187 25.2905 9.86298 25.1975 10.0844C24.7668 9.58862 24.2985 9.12679 23.7968 8.70296C21.0754 6.34625 20.7577 6.19982 20.0669 6.09207C19.3762 5.98432 18.2462 6.27718 18.2462 6.27718C18.2462 6.27718 19.5586 6.5286 19.3514 6.50097C19.1442 6.47334 17.597 7.02315 17.8401 6.98723C18.0832 6.95132 19.4536 7.07841 19.4536 7.07841L18.1606 7.90726C18.1606 7.90726 19.4619 7.54533 19.2657 7.67242C18.991 7.88312 18.7307 8.11203 18.4866 8.3576L19.274 8.12829L18.7988 8.80795L19.5254 8.551L18.9397 9.78047L18.9701 10.1535L18.6938 10.1203C16.1658 9.89375 14.4225 9.29145 13.1212 9.64785C11.8199 10.0043 10.0406 10.753 9.50183 11.242C9.22554 11.5183 8.65087 12.2118 8.20605 12.7533C8.95202 12.1206 10.0793 11.2917 10.0793 11.2917C10.0793 11.2917 9.04043 13.2782 9.39131 12.6897C9.74219 12.1013 11.154 11.032 11.154 11.032C11.154 11.032 10.0157 11.999 10.7092 11.6509C11.4027 11.3028 12.1569 10.9823 12.1569 10.9823C12.1569 10.9823 10.4992 12.5986 11.4165 12.0626C12.3337 11.5266 13.1322 11.1453 13.1322 11.1453C13.1322 11.1453 12.4166 11.8609 12.9278 11.5846C13.4389 11.3083 14.0329 10.9851 14.0329 10.9851C14.0329 10.9851 12.4166 12.3278 13.077 11.8885C13.5738 11.5718 14.0896 11.2858 14.6214 11.032C14.6214 11.032 13.5494 12.3333 13.9721 12.0819C14.4001 11.8594 14.8433 11.6674 15.2983 11.5072C15.2983 11.5072 14.0439 12.7201 14.4031 12.4383C14.5938 12.2891 15.0469 11.9907 15.4281 11.7421L16.0553 11.3415L16.6383 11.5432C16.6383 11.5432 14.8949 12.6897 15.6188 12.4135L15.9531 12.2864C15.6513 12.6283 15.383 12.9984 15.1518 13.3915C13.7373 15.7344 12.5907 17.8286 12.7675 17.6131C12.9443 17.3976 14.1683 16.0908 14.0826 16.2759C14.0412 16.3643 13.8063 16.8064 13.5743 17.1987C14.0578 16.4942 14.8258 15.4996 14.8258 15.4996C14.8258 15.4996 13.6571 17.9613 13.997 17.3755C14.3368 16.7898 15.5663 15.1818 15.5663 15.1818L14.9253 16.5356C15.1297 16.1046 16.525 14.2784 16.525 14.2784C16.525 14.2784 15.08 16.6848 15.7376 16.0936C15.9398 15.9042 16.1308 15.7031 16.3095 15.4913C16.3372 15.501 16.3674 15.501 16.3951 15.4913C16.8786 15.4194 18.1606 13.9938 18.1606 13.9938C18.1606 13.9938 17.1273 15.6902 17.6329 15.0989C18.0375 14.6504 18.4664 14.2243 18.9176 13.8225C18.9176 13.8225 17.7655 15.6128 18.1219 15.1791C18.4783 14.7453 19.705 13.596 19.705 13.596C19.705 13.596 18.5805 15.3227 18.8762 15.0133C19.1887 14.7223 19.519 14.451 19.8653 14.201C19.8653 14.201 18.5253 15.751 18.9756 15.4388C19.3587 15.1945 19.7617 14.9828 20.1802 14.8061L20.8516 14.9746C20.8516 14.9746 17.1991 16.3256 15.5829 17.6656C13.9666 19.0056 12.494 20.0417 11.9912 21.086C11.5408 22.0392 10.5821 24.0533 10.4992 24.2246C10.618 23.9787 12.4885 21.6275 12.4885 21.6275C12.4885 21.6275 11.0766 24.1141 11.643 23.5615C12.1969 22.9653 12.7118 22.334 13.1847 21.6718C13.1847 21.6718 11.7535 24.686 12.3172 23.9732C12.8808 23.2604 14.1766 21.0142 14.1766 21.0142C14.1766 21.0142 13.1902 23.5615 13.5494 23.2797C13.9086 22.9979 15.4834 20.6523 15.4834 20.6523L14.7872 22.4343L15.9724 20.7351C15.9724 20.7351 15.4198 22.2077 15.721 22.0503C16.0221 21.8928 17.1024 20.5915 17.1024 20.5915L16.6742 21.4535ZM36.9811 10.5789H36.8871L36.7159 10.3551L36.9811 10.5789ZM36.0749 10.5016H35.8538C35.6522 10.3054 35.4643 10.1341 35.4643 10.1341C35.4643 10.1341 35.7406 10.2971 36.0749 10.5016ZM35.3096 10.4795H35.2267C35.188 10.4795 35.1466 10.4795 35.1079 10.4795L34.6741 10.0623C34.6741 10.0623 34.9642 10.2446 35.3096 10.4795ZM34.3536 10.5126L34.0442 10.5513L34.0083 10.3469L34.3536 10.5126ZM19.5392 10.2363L20.1664 9.68377L20.9483 9.3025L20.3957 10.438C20.1112 10.3607 19.8155 10.2916 19.5392 10.2363ZM20.4952 10.4629L20.9704 10.0761C21.3655 9.75837 21.7993 9.42959 21.744 9.52353C21.6556 9.70587 22.0838 9.76113 22.0838 9.76113C22.0838 9.76113 21.3738 10.7806 21.5506 10.5624C21.7875 10.3521 22.0502 10.1729 22.3325 10.0291L22.1584 10.5513L22.559 10.5043L22.7966 10.4767L23.3161 10.6508L23.0784 10.9906C23.0784 10.9906 24.2002 10.695 23.9598 10.8828C23.7194 11.0707 23.3851 11.3083 23.3851 11.3083L24.0814 11.2641L23.6421 11.6095C22.6183 11.1567 21.5651 10.7736 20.4897 10.4629H20.4952Z" fill="#263238"/>
<path d="M38.8096 22.0613C38.8289 22.3569 38.8648 22.6138 38.8648 22.6138L38.8096 22.0613Z" fill="#263238"/>
<path d="M1.38672 98.6584C1.38672 98.6584 23.111 90.3422 33.2396 83.3688C43.3681 76.3954 49.3359 74.3757 59.8844 78.0973C62.8766 79.1527 91.5439 96.0558 97.5089 98.6584" fill="white"/>
<path d="M1.38672 98.6584C1.38672 98.6584 23.111 90.3422 33.2396 83.3688C43.3681 76.3954 49.3359 74.3757 59.8844 78.0973C62.8766 79.1527 91.5439 96.0558 97.5089 98.6584" stroke="#263238" stroke-width="0.367849" stroke-linecap="round" stroke-linejoin="round"/>
<path d="M11.344 95.4894C11.344 95.4894 28.2167 87.4274 36.0908 82.5537C43.9649 77.6801 47.5262 79.929 46.9653 86.3029C46.4045 92.6768 37.4031 98.487 36.6544 99.7994C35.9057 101.112 39.84 100.175 50.8996 99.6115C61.9593 99.0479 70.024 99.059 65.5234 99.7994C61.0227 100.54 51.0875 101.675 37.4031 105.798C23.7188 109.92 10.7831 112.547 7.03394 109.174C3.28476 105.8 24.4675 99.7994 27.479 97.1747C30.4905 94.55 13.231 102.612 7.41798 102.051C1.60495 101.49 11.344 95.4894 11.344 95.4894Z" fill="#E69FBD"/>
<path opacity="0.5" d="M11.344 95.4894C11.344 95.4894 28.2167 87.4274 36.0908 82.5537C43.9649 77.6801 47.5262 79.929 46.9653 86.3029C46.4045 92.6768 37.4031 98.487 36.6544 99.7994C35.9057 101.112 39.84 100.175 50.8996 99.6115C61.9593 99.0479 70.024 99.059 65.5234 99.7994C61.0227 100.54 51.0875 101.675 37.4031 105.798C23.7188 109.92 10.7831 112.547 7.03394 109.174C3.28476 105.8 24.4675 99.7994 27.479 97.1747C30.4905 94.55 13.231 102.612 7.41798 102.051C1.60495 101.49 11.344 95.4894 11.344 95.4894Z" fill="white"/>
<path d="M44.2168 103.645C44.2168 103.645 65.4354 98.7827 81.5677 98.1196C97.7 97.4565 115.161 102.982 115.161 102.982" fill="white"/>
<path d="M44.2168 103.645C44.2168 103.645 65.4354 98.7827 81.5677 98.1196C97.7 97.4565 115.161 102.982 115.161 102.982" stroke="#263238" stroke-width="0.367849" stroke-linecap="round" stroke-linejoin="round"/>
<path d="M74.9445 99.5066C74.9445 99.5066 71.397 100.957 57.696 102.571C43.9951 104.184 26.5809 110.146 31.4186 111.113C36.2563 112.08 41.5748 111.437 50.6038 109.503C59.6328 107.569 70.4327 106.439 66.725 108.536C63.0173 110.633 56.5605 114.017 73.8172 113.05C91.0739 112.083 109.284 109.342 107.833 105.314C106.383 101.286 91.2287 102.897 85.2637 102.25C79.2987 101.604 86.0677 100.156 83.3297 99.3492C80.5917 98.5424 79.1357 98.5396 74.9445 99.5066Z" fill="#E69FBD"/>
<path opacity="0.5" d="M74.9445 99.5066C74.9445 99.5066 71.397 100.957 57.696 102.571C43.9951 104.184 26.5809 110.146 31.4186 111.113C36.2563 112.08 41.5748 111.437 50.6038 109.503C59.6328 107.569 70.4327 106.439 66.725 108.536C63.0173 110.633 56.5605 114.017 73.8172 113.05C91.0739 112.083 109.284 109.342 107.833 105.314C106.383 101.286 91.2287 102.897 85.2637 102.25C79.2987 101.604 86.0677 100.156 83.3297 99.3492C80.5917 98.5424 79.1357 98.5396 74.9445 99.5066Z" fill="white"/>
<path d="M53.2252 20.818C54.2735 20.818 55.1233 19.9682 55.1233 18.9199C55.1233 17.8716 54.2735 17.0219 53.2252 17.0219C52.1769 17.0219 51.3271 17.8716 51.3271 18.9199C51.3271 19.9682 52.1769 20.818 53.2252 20.818Z" fill="#263238" stroke="#263238" stroke-width="0.367849" stroke-linecap="round" stroke-linejoin="round"/>
<path d="M50.9098 20.4009C51.9581 20.4009 52.8079 19.5511 52.8079 18.5028C52.8079 17.4545 51.9581 16.6047 50.9098 16.6047C49.8615 16.6047 49.0117 17.4545 49.0117 18.5028C49.0117 19.5511 49.8615 20.4009 50.9098 20.4009Z" fill="#263238" stroke="#263238" stroke-width="0.367849" stroke-linecap="round" stroke-linejoin="round"/>
<path d="M48.4069 21.4866C49.4551 21.4866 50.3049 20.6368 50.3049 19.5885C50.3049 18.5402 49.4551 17.6904 48.4069 17.6904C47.3586 17.6904 46.5088 18.5402 46.5088 19.5885C46.5088 20.6368 47.3586 21.4866 48.4069 21.4866Z" fill="#263238" stroke="#263238" stroke-width="0.367849" stroke-linecap="round" stroke-linejoin="round"/>
<path d="M49.761 22.8018C49.761 23.1772 49.6497 23.5441 49.4411 23.8563C49.2325 24.1684 48.9361 24.4117 48.5893 24.5554C48.2425 24.699 47.8608 24.7366 47.4926 24.6634C47.1244 24.5901 46.7862 24.4094 46.5208 24.1439C46.2553 23.8785 46.0746 23.5402 46.0013 23.1721C45.9281 22.8039 45.9657 22.4222 46.1093 22.0754C46.253 21.7286 46.4963 21.4321 46.8084 21.2236C47.1205 21.015 47.4875 20.9037 47.8629 20.9037C48.1122 20.9037 48.359 20.9528 48.5893 21.0482C48.8196 21.1436 49.0288 21.2834 49.2051 21.4596C49.3813 21.6359 49.5211 21.8451 49.6165 22.0754C49.7119 22.3057 49.761 22.5525 49.761 22.8018Z" fill="#263238" stroke="#263238" stroke-width="0.367849" stroke-linecap="round" stroke-linejoin="round"/>
<path d="M47.7379 28.496C48.7862 28.496 49.636 27.6462 49.636 26.5979C49.636 25.5496 48.7862 24.6998 47.7379 24.6998C46.6896 24.6998 45.8398 25.5496 45.8398 26.5979C45.8398 27.6462 46.6896 28.496 47.7379 28.496Z" fill="#263238" stroke="#263238" stroke-width="0.367849" stroke-linecap="round" stroke-linejoin="round"/>
<path d="M47.7379 31.7091C48.7862 31.7091 49.636 30.8593 49.636 29.811C49.636 28.7628 48.7862 27.913 47.7379 27.913C46.6896 27.913 45.8398 28.7628 45.8398 29.811C45.8398 30.8593 46.6896 31.7091 47.7379 31.7091Z" fill="#263238" stroke="#263238" stroke-width="0.367849" stroke-linecap="round" stroke-linejoin="round"/>
<path d="M49.4286 33.3586C49.4286 33.7346 49.3171 34.1021 49.1083 34.4147C48.8994 34.7272 48.6025 34.9709 48.2552 35.1147C47.9079 35.2586 47.5257 35.2963 47.157 35.2229C46.7882 35.1496 46.4495 34.9685 46.1837 34.7027C45.9179 34.4369 45.7368 34.0982 45.6635 33.7294C45.5901 33.3607 45.6278 32.9785 45.7716 32.6312C45.9155 32.2839 46.1592 31.987 46.4717 31.7781C46.7843 31.5692 47.1518 31.4578 47.5278 31.4578C47.7774 31.4578 48.0246 31.5069 48.2552 31.6025C48.4858 31.698 48.6954 31.838 48.8719 32.0145C49.0484 32.191 49.1884 32.4006 49.2839 32.6312C49.3795 32.8618 49.4286 33.109 49.4286 33.3586Z" fill="#263238" stroke="#263238" stroke-width="0.367849" stroke-linecap="round" stroke-linejoin="round"/>
<path d="M47.1666 38.1604C48.2149 38.1604 49.0647 37.3106 49.0647 36.2623C49.0647 35.2141 48.2149 34.3643 47.1666 34.3643C46.1184 34.3643 45.2686 35.2141 45.2686 36.2623C45.2686 37.3106 46.1184 38.1604 47.1666 38.1604Z" fill="#263238" stroke="#263238" stroke-width="0.367849" stroke-linecap="round" stroke-linejoin="round"/>
<path d="M46.8043 41.0642C47.8526 41.0642 48.7024 40.2144 48.7024 39.1661C48.7024 38.1179 47.8526 37.2681 46.8043 37.2681C45.756 37.2681 44.9062 38.1179 44.9062 39.1661C44.9062 40.2144 45.756 41.0642 46.8043 41.0642Z" fill="#263238" stroke="#263238" stroke-width="0.367849" stroke-linecap="round" stroke-linejoin="round"/>
<path d="M48.1493 42.3793C48.1499 42.7553 48.0389 43.1231 47.8303 43.4361C47.6218 43.749 47.3251 43.9931 46.9778 44.1374C46.6305 44.2817 46.2483 44.3197 45.8794 44.2467C45.5104 44.1737 45.1715 43.9928 44.9054 43.7271C44.6393 43.4614 44.458 43.1227 44.3844 42.7539C44.3108 42.3851 44.3483 42.0028 44.4921 41.6553C44.6359 41.3078 44.8795 41.0107 45.1922 40.8017C45.5048 40.5928 45.8724 40.4812 46.2485 40.4812C46.7521 40.4812 47.2352 40.6811 47.5916 41.037C47.948 41.3928 48.1486 41.8756 48.1493 42.3793Z" fill="#263238" stroke="#263238" stroke-width="0.367849" stroke-linecap="round" stroke-linejoin="round"/>
<path d="M45.3424 47.1838C46.3907 47.1838 47.2405 46.334 47.2405 45.2858C47.2405 44.2375 46.3907 43.3877 45.3424 43.3877C44.2941 43.3877 43.4443 44.2375 43.4443 45.2858C43.4443 46.334 44.2941 47.1838 45.3424 47.1838Z" fill="#263238" stroke="#263238" stroke-width="0.367849" stroke-linecap="round" stroke-linejoin="round"/>
<path d="M44.0729 49.9053C45.1212 49.9053 45.971 49.0555 45.971 48.0072C45.971 46.9589 45.1212 46.1091 44.0729 46.1091C43.0246 46.1091 42.1748 46.9589 42.1748 48.0072C42.1748 49.0555 43.0246 49.9053 44.0729 49.9053Z" fill="#263238" stroke="#263238" stroke-width="0.367849" stroke-linecap="round" stroke-linejoin="round"/>
<path d="M43.1657 52.447C44.2139 52.447 45.0637 51.5972 45.0637 50.549C45.0637 49.5007 44.2139 48.6509 43.1657 48.6509C42.1174 48.6509 41.2676 49.5007 41.2676 50.549C41.2676 51.5972 42.1174 52.447 43.1657 52.447Z" fill="#263238" stroke="#263238" stroke-width="0.367849" stroke-linecap="round" stroke-linejoin="round"/>
<path d="M41.9909 54.707C43.0391 54.707 43.8889 53.8572 43.8889 52.809C43.8889 51.7607 43.0391 50.9109 41.9909 50.9109C40.9426 50.9109 40.0928 51.7607 40.0928 52.809C40.0928 53.8572 40.9426 54.707 41.9909 54.707Z" fill="#263238" stroke="#263238" stroke-width="0.367849" stroke-linecap="round" stroke-linejoin="round"/>
<path d="M41.3835 55.0745C41.0602 55.9254 40.1844 56.3813 39.4301 56.094C38.6759 55.8066 38.325 54.8838 38.6538 54.0329C38.9826 53.1819 39.8529 52.7261 40.6071 53.0134C41.3614 53.3007 41.7095 54.2235 41.3835 55.0745Z" fill="#263238" stroke="#263238" stroke-width="0.367849" stroke-linecap="round" stroke-linejoin="round"/>
<path d="M38.9169 55.6907C38.9169 55.6907 37.6542 57.213 36.3032 56.0802C34.9522 54.9475 34.9549 53.9059 34.9549 53.9059C34.9549 53.9059 33.2143 55.3426 33.8222 57.5611C34.43 59.7797 37.9664 60.0477 39.0909 59.042C40.2154 58.0363 38.9169 55.6907 38.9169 55.6907Z" fill="#263238" stroke="#263238" stroke-width="0.367849" stroke-linecap="round" stroke-linejoin="round"/>
<path d="M67.9094 34.6626C67.9094 34.6626 70.9485 34.0548 73.0013 35.0108C75.0541 35.9667 75.8747 38.3262 75.8747 38.3262C75.8747 38.3262 79.4443 39.5004 79.9665 42.9843C80.4886 46.4683 79.8366 48.8167 78.096 49.5129C76.3554 50.2092 73.9518 50.1235 71.6945 46.4213C69.4373 42.7191 67.6911 36.7154 67.3872 36.0192C67.0833 35.323 67.169 34.8809 67.9094 34.6626Z" fill="white" stroke="#263238" stroke-width="0.367849" stroke-linecap="round" stroke-linejoin="round"/>
<path d="M74.0904 40.4093C74.0904 40.4093 72.0459 38.7986 70.4352 39.5805C68.8244 40.3624 69.4765 42.9318 71.4353 44.3243C73.3942 45.7168 75.7454 45.3686 76.0051 44.7166" fill="white"/>
<path d="M74.0904 40.4093C74.0904 40.4093 72.0459 38.7986 70.4352 39.5805C68.8244 40.3624 69.4765 42.9318 71.4353 44.3243C73.3942 45.7168 75.7454 45.3686 76.0051 44.7166" stroke="#263238" stroke-width="0.367849" stroke-linecap="round" stroke-linejoin="round"/>
<path d="M75.8754 38.3207C75.8084 38.8255 75.6462 39.313 75.3975 39.7574" stroke="#263238" stroke-width="0.367849" stroke-linecap="round" stroke-linejoin="round"/>
<path d="M55.5321 17.0025C55.5321 17.0025 53.1809 17.7126 52.4156 20.8318C51.6503 23.9511 52.5234 25.2524 52.5234 25.2524C52.5234 25.2524 51.2663 23.9953 50.6087 25.1446C49.9512 26.294 51.5398 27.2776 52.2498 27.4958C52.9599 27.7141 53.0152 27.7721 53.1809 27.7721C53.3467 27.7721 53.2362 28.8773 51.9763 31.2754C50.7165 33.6735 48.6941 34.6129 45.6218 35.5412C42.5495 36.4695 41.7372 39.5916 41.7372 41.8958C41.7372 44.2 41.6267 48.1895 43.8701 52.8394C46.1136 57.4893 49.5063 61.5921 51.5315 64.109C53.5567 66.626 54.4297 68.3224 53.3356 71.7704C52.2416 75.2184 49.8351 76.3098 50.6557 80.6336C51.3961 84.532 55.0403 86.0902 58.6431 84.9602C60.5992 84.3441 61.5081 82.9931 63.083 81.9211C64.55 80.9099 66.8542 80.6281 68.6086 80.5894C68.6086 80.5894 67.6251 79.4401 64.9424 80.2054C62.2596 80.9707 59.5824 83.1064 57.502 83.0511C55.4216 82.9958 55.5321 78.73 58.3778 75.6108C61.2236 72.4915 68.5534 69.8668 71.0703 63.9571C73.5873 58.0474 70.4155 46.8275 68.6639 42.5644C66.9123 38.3013 65.8182 34.7925 65.8182 34.7925C65.8182 34.7925 62.6464 34.5742 61.9889 33.0961C61.3313 31.618 61.8784 30.5792 61.8784 30.5792C61.8784 30.5792 65.2711 28.6645 65.1081 26.8576C64.9451 25.0507 63.2487 21.3872 61.6048 18.7625C59.9609 16.1378 56.6814 16.182 55.5321 17.0025Z" fill="white"/>
<mask id="mask0_106_1636" style="mask-type:luminance" maskUnits="userSpaceOnUse" x="41" y="16" width="32" height="70">
<path d="M55.5321 17.0025C55.5321 17.0025 53.1809 17.7126 52.4156 20.8318C51.6503 23.9511 52.5234 25.2524 52.5234 25.2524C52.5234 25.2524 51.2663 23.9953 50.6087 25.1446C49.9512 26.294 51.5398 27.2776 52.2498 27.4958C52.9599 27.7141 53.0152 27.7721 53.1809 27.7721C53.3467 27.7721 53.2362 28.8773 51.9763 31.2754C50.7165 33.6735 48.6941 34.6129 45.6218 35.5412C42.5495 36.4695 41.7372 39.5916 41.7372 41.8958C41.7372 44.2 41.6267 48.1895 43.8701 52.8394C46.1136 57.4893 49.5063 61.5921 51.5315 64.109C53.5567 66.626 54.4297 68.3224 53.3356 71.7704C52.2416 75.2184 49.8351 76.3098 50.6557 80.6336C51.3961 84.532 55.0403 86.0902 58.6431 84.9602C60.5992 84.3441 61.5081 82.9931 63.083 81.9211C64.55 80.9099 66.8542 80.6281 68.6086 80.5894C68.6086 80.5894 67.6251 79.4401 64.9424 80.2054C62.2596 80.9707 59.5824 83.1064 57.502 83.0511C55.4216 82.9958 55.5321 78.73 58.3778 75.6108C61.2236 72.4915 68.5534 69.8668 71.0703 63.9571C73.5873 58.0474 70.4155 46.8275 68.6639 42.5644C66.9123 38.3013 65.8182 34.7925 65.8182 34.7925C65.8182 34.7925 62.6464 34.5742 61.9889 33.0961C61.3313 31.618 61.8784 30.5792 61.8784 30.5792C61.8784 30.5792 65.2711 28.6645 65.1081 26.8576C64.9451 25.0507 63.2487 21.3872 61.6048 18.7625C59.9609 16.1378 56.6814 16.182 55.5321 17.0025Z" fill="white"/>
</mask>
<g mask="url(#mask0_106_1636)">
<path d="M57.8119 29.9742C54.5186 29.1011 52.3056 24.7248 52.615 21.5365C52.775 20.0463 53.4307 18.653 54.4772 17.5801C53.4249 18.3841 52.6941 19.5372 52.4161 20.8319C51.648 23.9512 52.5238 25.2525 52.5238 25.2525C52.5238 25.2525 51.2668 23.9954 50.6092 25.1447C49.9516 26.2941 51.5403 27.2777 52.2503 27.4959C52.9604 27.7142 53.0156 27.7722 53.1814 27.7722C53.3472 27.7722 53.2367 28.8774 51.9768 31.2755C51.8479 31.5188 51.7058 31.7549 51.5513 31.9828C52.8222 33.5217 55.2563 35.6215 58.2236 35.1131C60.9063 34.6545 61.6993 33.6875 61.9673 33.0271C61.3484 31.5794 61.8788 30.5627 61.8788 30.5627C61.8788 30.5627 65.2716 28.648 65.1086 26.8411C62.9342 26.6091 61.1052 30.85 57.8119 29.9742Z" fill="#E69FBD"/>
<path opacity="0.5" d="M57.8119 29.9742C54.5186 29.1011 52.3056 24.7248 52.615 21.5365C52.775 20.0463 53.4307 18.653 54.4772 17.5801C53.4249 18.3841 52.6941 19.5372 52.4161 20.8319C51.648 23.9512 52.5238 25.2525 52.5238 25.2525C52.5238 25.2525 51.2668 23.9954 50.6092 25.1447C49.9516 26.2941 51.5403 27.2777 52.2503 27.4959C52.9604 27.7142 53.0156 27.7722 53.1814 27.7722C53.3472 27.7722 53.2367 28.8774 51.9768 31.2755C51.8479 31.5188 51.7058 31.7549 51.5513 31.9828C52.8222 33.5217 55.2563 35.6215 58.2236 35.1131C60.9063 34.6545 61.6993 33.6875 61.9673 33.0271C61.3484 31.5794 61.8788 30.5627 61.8788 30.5627C61.8788 30.5627 65.2716 28.648 65.1086 26.8411C62.9342 26.6091 61.1052 30.85 57.8119 29.9742Z" fill="white"/>
</g>
<path d="M55.5321 17.0025C55.5321 17.0025 53.1809 17.7126 52.4156 20.8318C51.6503 23.9511 52.5234 25.2524 52.5234 25.2524C52.5234 25.2524 51.2663 23.9953 50.6087 25.1446C49.9512 26.294 51.5398 27.2776 52.2498 27.4958C52.9599 27.7141 53.0152 27.7721 53.1809 27.7721C53.3467 27.7721 53.2362 28.8773 51.9763 31.2754C50.7165 33.6735 48.6941 34.6129 45.6218 35.5412C42.5495 36.4695 41.7372 39.5916 41.7372 41.8958C41.7372 44.2 41.6267 48.1895 43.8701 52.8394C46.1136 57.4893 49.5063 61.5921 51.5315 64.109C53.5567 66.626 54.4297 68.3224 53.3356 71.7704C52.2416 75.2184 49.8351 76.3098 50.6557 80.6336C51.3961 84.532 55.0403 86.0902 58.6431 84.9602C60.5992 84.3441 61.5081 82.9931 63.083 81.9211C64.55 80.9099 66.8542 80.6281 68.6086 80.5894C68.6086 80.5894 67.6251 79.4401 64.9424 80.2054C62.2596 80.9707 59.5824 83.1064 57.502 83.0511C55.4216 82.9958 55.5321 78.73 58.3778 75.6108C61.2236 72.4915 68.5534 69.8668 71.0703 63.9571C73.5873 58.0474 70.4155 46.8275 68.6639 42.5644C66.9123 38.3013 65.8182 34.7925 65.8182 34.7925C65.8182 34.7925 62.6464 34.5742 61.9889 33.0961C61.3313 31.618 61.8784 30.5792 61.8784 30.5792C61.8784 30.5792 65.2711 28.6645 65.1081 26.8576C64.9451 25.0507 63.2487 21.3872 61.6048 18.7625C59.9609 16.1378 56.6814 16.182 55.5321 17.0025Z" stroke="#263238" stroke-width="0.490466" stroke-linecap="round" stroke-linejoin="round"/>
<path d="M54.582 20.318C54.582 20.318 55.8336 18.6603 56.8338 18.3149" stroke="#263238" stroke-width="0.980931" stroke-linecap="round" stroke-linejoin="round"/>
<path d="M58.5966 19.0802C58.6395 19.3584 58.7394 19.6247 58.8901 19.8624C59.0409 20.1002 59.2391 20.3042 59.4724 20.4616C60.3013 21.0612 61.8264 22.1028 61.7711 23.3046C61.7158 24.5064 60.7848 23.9621 60.0747 23.7991C59.3647 23.6361 58.9254 24.2909 58.1601 23.7991C57.3948 23.3074 57.9418 22.5945 58.5966 22.694" stroke="#263238" stroke-width="0.490466" stroke-linecap="round" stroke-linejoin="round"/>
<path d="M55.916 24.0616C55.916 24.0616 56.4078 25.2082 58.3777 25.4431C60.3476 25.6779 62.8646 24.2937 62.8646 24.2937" stroke="#263238" stroke-width="0.367849" stroke-linecap="round" stroke-linejoin="round"/>
<path d="M54.9355 21.5916L57.2287 20.6688" stroke="#263238" stroke-width="0.367849" stroke-linecap="round" stroke-linejoin="round"/>
<path d="M55.582 21.3624C55.6136 21.4915 55.6924 21.6042 55.8028 21.6783C55.9132 21.7524 56.0473 21.7826 56.1788 21.763C56.6706 21.7105 56.6209 20.9811 56.6209 20.9811L55.582 21.3624Z" fill="#263238"/>
<path d="M60.1516 20.4064C60.1285 20.5374 60.1554 20.6722 60.2271 20.7843C60.2987 20.8964 60.4098 20.9774 60.5384 21.0114C61.0109 21.1579 61.2568 20.4589 61.2568 20.4589L60.1516 20.4064Z" fill="#263238"/>
<path d="M59.7129 20.3815L61.5916 20.4644" stroke="#263238" stroke-width="0.367849" stroke-linecap="round" stroke-linejoin="round"/>
<path d="M59.1299 18.8591H61.3402" stroke="#263238" stroke-width="0.980931" stroke-linecap="round" stroke-linejoin="round"/>
<path d="M61.8786 30.5709C61.8786 30.5709 57.9194 32.2507 55.582 30.2477" stroke="#263238" stroke-width="0.367849" stroke-linecap="round" stroke-linejoin="round"/>
<path d="M57.3896 37.6658C57.9242 37.5429 58.4825 37.5735 59.0004 37.7542C59.5813 37.9933 60.124 38.3164 60.6111 38.7129C60.8787 38.3074 61.1839 37.9282 61.5229 37.5802C61.8894 37.2946 62.2837 37.0466 62.6998 36.8397" stroke="#263238" stroke-width="0.367849" stroke-linecap="round" stroke-linejoin="round"/>
<path d="M60.7266 39.6248C60.7266 39.6248 62.0334 42.5423 61.9892 43.327" stroke="#263238" stroke-width="0.367849" stroke-linecap="round" stroke-linejoin="round"/>
<path d="M71.0702 63.946C72.4074 60.8046 72.1395 56.1658 71.3299 51.8668C57.7644 51.2093 45.0166 54.9059 45.0166 54.9059V54.9695C47.1606 58.7297 49.8405 61.9844 51.5507 64.109C53.5731 66.6259 54.449 68.3223 53.3549 71.7703C52.2608 75.2184 49.8543 76.3097 50.6749 80.6336C51.4153 84.5319 55.0595 86.0902 58.6623 84.9602C60.6184 84.3441 61.5274 82.993 63.1022 81.921C64.5693 80.9098 66.8735 80.628 68.6279 80.5894C68.6279 80.5894 67.6443 79.44 64.9616 80.2053C62.2789 80.9706 59.6017 83.1063 57.5212 83.051C55.4408 82.9958 55.5513 78.73 58.3971 75.6107C61.2428 72.4914 68.5533 69.8557 71.0702 63.946Z" fill="#E69FBD" stroke="#E69FBD" stroke-width="0.490466" stroke-miterlimit="10"/>
<path d="M50.4072 52.1211C50.4072 52.1211 61.9449 48.3333 70.3467 50.2037L71.2612 57.1274C71.2612 57.1274 57.6348 56.1687 51.1062 58.39L50.4072 52.1211Z" fill="#263238" stroke="#263238" stroke-width="0.367849" stroke-linecap="round" stroke-linejoin="round"/>
<path d="M63.2764 34.1874C63.2764 34.1874 65.2877 41.0724 66.6498 48.2779C68.0119 55.4834 67.8268 60.241 67.8268 60.241C67.8268 60.241 70.41 60.9676 72.6314 60.5587C73.9769 60.3084 75.2567 59.7847 76.3916 59.0198C76.3916 59.0198 76.375 50.7479 73.2475 43.5866C70.1199 36.4253 68.0975 34.6819 68.0975 34.6819C68.0975 34.6819 63.8538 34.1874 63.2764 34.1874Z" fill="#E69FBD" stroke="#263238" stroke-width="0.367849" stroke-linecap="round" stroke-linejoin="round"/>
<path d="M72.6314 60.5587C73.9769 60.3084 75.2567 59.7847 76.3916 59.0198C76.3916 59.0198 76.3391 58.4673 76.1927 57.503C69.8796 59.6719 69.385 58.4562 69.385 58.4562C69.385 58.3457 69.3795 58.2324 69.3684 58.1164C68.9844 51.538 65.6994 37.8924 64.8153 34.3172C64.0886 34.2426 63.4725 34.1874 63.2764 34.1874C63.2764 34.1874 65.2877 41.0724 66.6498 48.2779C68.0119 55.4834 67.8268 60.241 67.8268 60.241C67.8268 60.241 70.41 60.9676 72.6314 60.5587Z" fill="white" stroke="#263238" stroke-width="0.367849" stroke-linecap="round" stroke-linejoin="round"/>
<path d="M43.9477 35.8977C43.9477 35.8977 47.299 40.7603 47.8958 44.3409C48.4926 47.9216 48.034 49.9854 46.9786 50.5352C45.9232 51.085 44.6826 50.6734 44.6826 50.6734C44.6826 50.6734 44.5003 57.9231 43.2598 61.3214C43.2598 61.3214 46.5752 63.1089 51.797 62.9791C57.0187 62.8492 60.3784 61.8739 60.3784 61.8739C60.4182 56.3951 59.4217 50.9581 57.4415 45.8495C54.1813 37.6825 50.5122 34.6986 50.0978 34.3312C49.6834 33.9637 49.4568 33.7344 49.4568 33.7344C49.4568 33.7344 44.7738 35.7209 43.9477 35.8977Z" fill="#E69FBD" stroke="#263238" stroke-width="0.367849" stroke-linecap="round" stroke-linejoin="round"/>
<path d="M60.3786 61.8048V61.7109C60.3773 61.6944 60.3773 61.6777 60.3786 61.6612V61.5175C60.3786 61.465 60.3786 61.4098 60.3786 61.349V61.1418C60.3786 61.1086 60.3786 61.0727 60.3786 61.0368V60.9014C60.3786 60.8627 60.3786 60.824 60.3786 60.7798C60.3786 60.7356 60.3786 60.6776 60.3786 60.6224C60.3786 60.5671 60.3786 60.5395 60.3786 60.4953C60.3786 60.4013 60.3786 60.3019 60.3786 60.1996C60.3786 60.1637 60.3786 60.1278 60.3786 60.0919V59.8598C60.3786 59.8101 60.3786 59.7576 60.3786 59.7051C60.3786 59.6526 60.3786 59.5642 60.3786 59.4896V59.3211C60.3786 59.2437 60.3786 59.1663 60.3648 59.0835C60.351 59.0006 60.3648 58.9702 60.3648 58.9122C60.3648 58.8099 60.351 58.7049 60.3427 58.6C60.3427 58.5613 60.3427 58.5254 60.3427 58.4839C60.0318 54.1596 59.0773 49.9058 57.5108 45.8632C54.2506 37.6963 50.5816 34.7124 50.1671 34.3449C49.7527 33.9775 49.5262 33.7482 49.5262 33.7482C49.5262 33.7482 48.9736 33.983 48.2083 34.3007C49.4488 35.3479 53.1814 38.8622 55.5381 45.0316C58.0247 51.5409 58.5441 54.8563 58.6905 59.1221C52.3912 61.2827 46.418 60.2577 43.8126 59.6029C43.6898 60.1876 43.5283 60.7636 43.3291 61.3269C43.3291 61.3269 46.6445 63.1172 51.8663 62.9846C54.099 62.9323 56.3242 62.7069 58.522 62.3105C59.605 62.1088 60.2681 61.9347 60.4145 61.8933H60.4422V61.8187L60.3786 61.8048Z" fill="white" stroke="#263238" stroke-width="0.367849" stroke-linecap="round" stroke-linejoin="round"/>
<path d="M75.7896 43.7607C75.7896 43.7607 72.4244 42.8822 67.5176 44.7194C65.3764 45.5207 61.5968 46.8966 60.0579 47.5044C58.519 48.1122 57.4028 48.593 57.6653 49.2035C57.9278 49.8141 66.9374 50.422 70.7253 51.2923C74.5131 52.1626 78.5165 51.4221 79.7377 50.1181C80.9588 48.814 80.3455 46.4158 79.9532 45.5455C79.8134 45.173 79.6228 44.8215 79.3868 44.5012" fill="white"/>
<mask id="mask1_106_1636" style="mask-type:luminance" maskUnits="userSpaceOnUse" x="57" y="43" width="24" height="9">
<path d="M75.7886 43.7607C75.7886 43.7607 72.4234 42.8822 67.5166 44.7194C65.3754 45.5207 61.5959 46.8966 60.0569 47.5044C58.518 48.1122 57.4019 48.593 57.6643 49.2035C57.9268 49.8141 66.9364 50.422 70.7243 51.2923C74.5121 52.1626 78.5155 51.4221 79.7367 50.1181C80.9579 48.814 80.3445 46.4158 79.9522 45.5455C79.8124 45.173 79.6218 44.8215 79.3858 44.5012" fill="white"/>
</mask>
<g mask="url(#mask1_106_1636)">
<path d="M80.0272 45.6919C78.9692 45.115 77.7507 44.9023 76.5598 45.0869C73.203 45.6173 70.7275 46.3246 73.2914 46.3246C75.8553 46.3246 79.7426 45.7057 79.5658 46.6783C79.389 47.6508 78.096 49.5074 76.1178 49.5931C74.1396 49.6787 66.2213 48.5349 65.6024 47.8276C64.9835 47.1203 67.1938 45.0869 67.1938 45.0869L66.8429 44.9708C64.6575 45.7831 61.4471 46.9545 60.0712 47.5044C58.5488 48.1149 57.4161 48.5929 57.6785 49.2035C57.941 49.8141 66.9506 50.4219 70.7385 51.2922C74.5264 52.1625 78.5297 51.4221 79.7481 50.118C80.9058 48.883 80.4168 46.6727 80.0272 45.6919Z" fill="#E69FBD"/>
<path opacity="0.5" d="M80.0272 45.6919C78.9692 45.115 77.7507 44.9023 76.5598 45.0869C73.203 45.6173 70.7275 46.3246 73.2914 46.3246C75.8553 46.3246 79.7426 45.7057 79.5658 46.6783C79.389 47.6508 78.096 49.5074 76.1178 49.5931C74.1396 49.6787 66.2213 48.5349 65.6024 47.8276C64.9835 47.1203 67.1938 45.0869 67.1938 45.0869L66.8429 44.9708C64.6575 45.7831 61.4471 46.9545 60.0712 47.5044C58.5488 48.1149 57.4161 48.5929 57.6785 49.2035C57.941 49.8141 66.9506 50.4219 70.7385 51.2922C74.5264 52.1625 78.5297 51.4221 79.7481 50.118C80.9058 48.883 80.4168 46.6727 80.0272 45.6919Z" fill="white"/>
</g>
<path d="M75.7896 43.7607C75.7896 43.7607 72.4244 42.8822 67.5176 44.7194C65.3764 45.5207 61.5968 46.8966 60.0579 47.5044C58.519 48.1122 57.4028 48.593 57.6653 49.2035C57.9278 49.8141 66.9374 50.422 70.7253 51.2923C74.5131 52.1626 78.5165 51.4221 79.7377 50.1181C80.9588 48.814 80.3455 46.4158 79.9532 45.5455C79.8134 45.173 79.6228 44.8215 79.3868 44.5012" stroke="#263238" stroke-width="0.367849" stroke-linecap="round" stroke-linejoin="round"/>
<path d="M44.5233 35.765C44.5233 35.765 41.6582 36.0137 39.7877 38.1024C37.9173 40.1911 38.655 42.4566 38.5693 42.7605C38.4837 43.0644 37.2625 44.5453 37.7847 47.6784C38.3069 50.8115 40.3956 54.428 41.5725 54.4695C42.7495 54.5109 45.6643 52.425 47.0126 51.0739C48.3608 49.7229 49.3223 47.206 48.6703 44.2414C48.0183 41.2769 47.5403 40.8017 47.148 39.6689C46.7556 38.5361 44.5233 35.765 44.5233 35.765Z" fill="white"/>
<mask id="mask2_106_1636" style="mask-type:luminance" maskUnits="userSpaceOnUse" x="37" y="35" width="12" height="20">
<path d="M44.5223 35.765C44.5223 35.765 41.6572 36.0137 39.7868 38.1024C37.9163 40.1911 38.654 42.4566 38.5683 42.7605C38.4827 43.0644 37.2615 44.5453 37.7837 47.6784C38.3059 50.8115 40.3946 54.428 41.5716 54.4695C42.7485 54.5109 45.6633 52.425 47.0116 51.0739C48.3599 49.7229 49.3213 47.206 48.6693 44.2414C48.0173 41.2769 47.5393 40.8017 47.147 39.6689C46.7547 38.5361 44.5223 35.765 44.5223 35.765Z" fill="white"/>
</mask>
<g mask="url(#mask2_106_1636)">
<path d="M44.5223 35.765C44.5223 35.765 41.6572 36.0137 39.7868 38.1024C37.9163 40.1911 38.654 42.4566 38.5683 42.7605C38.4827 43.0644 37.2615 44.5453 37.7837 47.6784C38.3059 50.8115 40.3946 54.428 41.5716 54.4695C42.4198 54.5026 44.1714 53.4224 45.5915 52.3117C45.2561 51.644 44.7857 51.0531 44.2101 50.5766C42.5745 49.3858 40.5631 47.9713 39.8945 47.4518C39.2259 46.9324 38.7037 44.8465 40.9996 43.5065C43.2956 42.1665 46.5088 43.5065 46.5088 43.5065C46.7478 43.4589 46.9622 43.3282 47.1139 43.1375C47.2657 42.9468 47.3449 42.7085 47.3376 42.4649C47.3376 41.5698 46.669 40.8265 46.296 41.3598C45.923 41.893 43.4669 41.6554 42.428 41.2852C41.3892 40.915 40.5659 39.4976 41.9059 37.8593C43.2458 36.2209 44.5223 35.765 44.5223 35.765Z" fill="#E69FBD"/>
<path opacity="0.5" d="M44.5223 35.765C44.5223 35.765 41.6572 36.0137 39.7868 38.1024C37.9163 40.1911 38.654 42.4566 38.5683 42.7605C38.4827 43.0644 37.2615 44.5453 37.7837 47.6784C38.3059 50.8115 40.3946 54.428 41.5716 54.4695C42.4198 54.5026 44.1714 53.4224 45.5915 52.3117C45.2561 51.644 44.7857 51.0531 44.2101 50.5766C42.5745 49.3858 40.5631 47.9713 39.8945 47.4518C39.2259 46.9324 38.7037 44.8465 40.9996 43.5065C43.2956 42.1665 46.5088 43.5065 46.5088 43.5065C46.7478 43.4589 46.9622 43.3282 47.1139 43.1375C47.2657 42.9468 47.3449 42.7085 47.3376 42.4649C47.3376 41.5698 46.669 40.8265 46.296 41.3598C45.923 41.893 43.4669 41.6554 42.428 41.2852C41.3892 40.915 40.5659 39.4976 41.9059 37.8593C43.2458 36.2209 44.5223 35.765 44.5223 35.765Z" fill="white"/>
</g>
<path d="M44.5233 35.765C44.5233 35.765 41.6582 36.0137 39.7877 38.1024C37.9173 40.1911 38.655 42.4566 38.5693 42.7605C38.4837 43.0644 37.2625 44.5453 37.7847 47.6784C38.3069 50.8115 40.3956 54.428 41.5725 54.4695C42.7495 54.5109 45.6643 52.425 47.0126 51.0739C48.3608 49.7229 49.3223 47.206 48.6703 44.2414C48.0183 41.2769 47.5403 40.8017 47.148 39.6689C46.7556 38.5361 44.5233 35.765 44.5233 35.765Z" stroke="#263238" stroke-width="0.367849" stroke-linecap="round" stroke-linejoin="round"/>
<path d="M43.0222 46.8081C44.6242 46.1151 46.2664 45.5191 47.94 45.0233C49.9431 44.5011 56.386 44.4154 58.8671 44.4154C61.3481 44.4154 62.829 44.327 63.7877 44.327C64.6922 44.3641 65.5937 44.4564 66.487 44.6033C66.6748 44.6285 66.8639 44.6424 67.0534 44.6448L67.3131 44.689C67.3131 44.689 59.5219 48.9548 56.7784 50.6981C54.0349 52.4415 48.0726 53.9611 45.0667 54.5274C42.0607 55.0938 40.2289 55.2651 39.4028 53.2621C38.8973 52.0238 38.5627 50.7226 38.4082 49.3941" fill="white"/>
<mask id="mask3_106_1636" style="mask-type:luminance" maskUnits="userSpaceOnUse" x="38" y="44" width="30" height="11">
<path d="M43.0222 46.8081C44.6242 46.1151 46.2664 45.5191 47.94 45.0233C49.9431 44.5011 56.386 44.4154 58.8671 44.4154C61.3481 44.4154 62.829 44.327 63.7877 44.327C64.6922 44.3641 65.5937 44.4564 66.487 44.6033C66.6748 44.6285 66.8639 44.6424 67.0534 44.6448L67.3131 44.689C67.3131 44.689 59.5219 48.9548 56.7784 50.6981C54.0349 52.4415 48.0726 53.9611 45.0667 54.5274C42.0607 55.0938 40.2289 55.2651 39.4028 53.2621C38.8973 52.0238 38.5627 50.7226 38.4082 49.3941" fill="white"/>
</mask>
<g mask="url(#mask3_106_1636)">
<path d="M45.0515 54.5138C48.0575 53.9612 54.0197 52.425 56.7632 50.6844C57.907 49.9578 59.9267 48.7919 61.8938 47.6812C62.0789 47.4271 62.1231 47.2254 62.0154 47.0789C61.5678 46.4849 55.1663 46.1119 53.3787 46.1119C51.5912 46.1119 50.0302 47.3027 50.6159 47.3773C51.2016 47.4519 55.0834 47.1535 52.478 47.7503C49.8727 48.3471 46.1511 49.6843 43.1728 49.0875C42.2635 48.9063 41.4023 48.5364 40.6448 48.0017L38.3848 49.3831C38.5393 50.7116 38.8739 52.0129 39.3794 53.2511C40.2138 55.2514 42.0483 55.0801 45.0515 54.5138Z" fill="#E69FBD"/>
<path opacity="0.5" d="M45.0515 54.5137C48.0575 53.9612 54.0197 52.425 56.7632 50.6844C57.907 49.9578 59.9267 48.7919 61.8938 47.6812C62.0789 47.4271 62.1231 47.2254 62.0154 47.0789C61.5678 46.4849 55.1663 46.1119 53.3787 46.1119C51.5912 46.1119 50.0302 47.3027 50.6159 47.3773C51.2016 47.4519 55.0834 47.1535 52.478 47.7503C49.8727 48.3471 46.1511 49.6843 43.1728 49.0875C42.2871 48.9185 41.4484 48.5604 40.7138 48.0376L38.3848 49.3776C38.5393 50.7061 38.8739 52.0074 39.3794 53.2456C40.2138 55.2514 42.0483 55.0801 45.0515 54.5137Z" fill="white"/>
</g>
<path d="M43.0222 46.8081C44.6242 46.1151 46.2664 45.5191 47.94 45.0233C49.9431 44.5011 56.386 44.4154 58.8671 44.4154C61.3481 44.4154 62.829 44.327 63.7877 44.327C64.6922 44.3641 65.5937 44.4564 66.487 44.6033C66.6748 44.6285 66.8639 44.6424 67.0534 44.6448L67.3131 44.689C67.3131 44.689 59.5219 48.9548 56.7784 50.6981C54.0349 52.4415 48.0726 53.9611 45.0667 54.5274C42.0607 55.0938 40.2289 55.2651 39.4028 53.2621C38.8973 52.0238 38.5627 50.7226 38.4082 49.3941" stroke="#263238" stroke-width="0.367849" stroke-linecap="round" stroke-linejoin="round"/>
<path d="M67.2988 44.6752L67.0391 44.631C66.8496 44.6286 66.6605 44.6147 66.4727 44.5895C65.5794 44.4426 64.678 44.3503 63.7734 44.3132C62.8147 44.3132 61.3338 44.4016 58.8528 44.4016C58.0985 44.4016 56.9741 44.4016 55.7197 44.4348C56.4961 45.7803 57.5156 48.0265 57.4465 50.2368C60.61 48.3304 67.2988 44.6752 67.2988 44.6752Z" fill="#263238" stroke="#263238" stroke-width="0.367849" stroke-linecap="round" stroke-linejoin="round"/>
<path d="M48.0864 43.2523C48.0864 43.2523 44.5389 39.2351 38.5684 42.7605C38.2158 43.1043 37.9459 43.5236 37.7789 43.9869C37.6118 44.4502 37.5521 44.9453 37.6042 45.435C37.6042 45.435 43.1299 41.2658 48.4456 44.899C48.5215 44.6158 48.5284 44.3185 48.466 44.032C48.4035 43.7456 48.2733 43.4782 48.0864 43.2523Z" fill="#263238" stroke="#263238" stroke-width="0.367849" stroke-linecap="round" stroke-linejoin="round"/>
<path d="M57.3029 23.8876C57.2569 23.848 57.2136 23.8056 57.1731 23.7605L57.0404 23.603C56.9493 23.4966 56.8514 23.396 56.7476 23.3018C56.5308 23.0906 56.2499 22.9575 55.9491 22.9233C55.6465 22.909 55.3464 22.985 55.0871 23.1416C54.9602 23.2098 54.8391 23.2883 54.7252 23.3764L54.5539 23.5201L54.4047 23.6831C54.2171 23.9071 54.0669 24.16 53.9599 24.4319C53.7656 24.9625 53.672 25.5246 53.6836 26.0896C53.6872 26.6474 53.7511 27.2032 53.8742 27.7473C54.0013 28.2998 54.1671 28.7999 54.3163 29.3221L54.7666 30.8748C55.0678 31.9109 55.3551 32.9469 55.6176 33.9913C55.88 35.0356 56.1232 36.08 56.3055 37.1354C56.4879 38.1908 56.6343 39.2656 56.3553 40.274C56.311 40.3928 56.2724 40.5199 56.2199 40.6359C56.1668 40.7493 56.099 40.8552 56.0182 40.9509C55.9441 41.0491 55.8474 41.128 55.7363 41.181C55.6252 41.2339 55.5029 41.2592 55.38 41.2548C55.1221 41.2346 54.876 41.1385 54.6727 40.9785C54.4489 40.83 54.2868 40.6051 54.2168 40.3458C54.2619 40.6185 54.4054 40.8653 54.6202 41.0393C54.8284 41.2336 55.0902 41.3607 55.3717 41.404C55.5189 41.4192 55.6677 41.399 55.8056 41.3452C55.9435 41.2914 56.0666 41.2055 56.1646 41.0946C56.2667 40.9919 56.3541 40.8757 56.4243 40.7492C56.4906 40.6249 56.5431 40.495 56.6011 40.3652C56.7735 39.8299 56.8556 39.2697 56.8443 38.7075C56.8443 38.4312 56.8249 38.1549 56.8028 37.8786C56.7807 37.6023 56.7503 37.326 56.7144 37.0663C56.3848 34.9169 55.9038 32.7934 55.275 30.7118L54.8108 29.1591C54.6589 28.6424 54.4903 28.1202 54.3632 27.6174C54.1201 26.6062 54.0345 25.5176 54.3632 24.5534C54.4483 24.319 54.5675 24.0983 54.7169 23.8986C54.8714 23.7064 55.0584 23.5428 55.2695 23.4151C55.4667 23.2781 55.7007 23.204 55.9408 23.2024C56.1829 23.2192 56.4124 23.3165 56.5929 23.4787C56.6907 23.559 56.783 23.6457 56.8691 23.7384L57.01 23.882C57.0623 23.9335 57.1186 23.9807 57.1786 24.023C57.4118 24.1792 57.6682 24.2976 57.9384 24.3738C58.4612 24.5242 59 24.6123 59.5436 24.6363C59.0116 24.5556 58.4888 24.4233 57.9826 24.2412C57.7388 24.1599 57.5094 24.0405 57.3029 23.8876Z" fill="#263238"/>
<path d="M66.5561 40.2215C66.5797 40.4686 66.5308 40.7173 66.4152 40.937C66.3859 40.9853 66.3456 41.026 66.2976 41.0557C66.2496 41.0855 66.1952 41.1035 66.1389 41.1083C66.0229 41.1097 65.9083 41.0832 65.8046 41.031C65.5781 40.9591 65.4952 40.7271 65.4234 40.495C65.3585 40.2582 65.3159 40.0158 65.2963 39.7711C65.2147 38.7739 65.2037 37.7722 65.2631 36.7734C65.3128 35.7733 65.3764 34.7704 65.4759 33.7702C65.5753 32.7701 65.6748 31.7699 65.8157 30.778C65.9566 29.7862 66.092 28.775 66.1693 27.761C66.2108 27.2554 66.2412 26.7471 66.2467 26.2332C66.2581 25.7138 66.2174 25.1945 66.1251 24.6832C66.07 24.4153 65.977 24.1567 65.8488 23.9151C65.7156 23.6677 65.5264 23.4549 65.2963 23.2935C65.0502 23.1364 64.7574 23.0691 64.4674 23.1029C64.1993 23.1386 63.94 23.2229 63.7021 23.3515C63.47 23.4703 63.26 23.6278 63.0501 23.7438C62.832 23.8604 62.6058 23.961 62.3732 24.045C61.8983 24.2117 61.4128 24.3464 60.9199 24.4484C61.4255 24.4016 61.9258 24.3091 62.4146 24.1721C62.663 24.1051 62.9059 24.0192 63.1413 23.9151C63.3816 23.8046 63.5888 23.672 63.8154 23.5808C64.0282 23.4799 64.2575 23.4181 64.4923 23.3985C64.7088 23.3852 64.9234 23.4467 65.1001 23.5726C65.2751 23.7135 65.4174 23.8907 65.5173 24.092C65.6154 24.3024 65.6833 24.5256 65.719 24.755C65.8209 25.738 65.8042 26.7296 65.6693 27.7085C65.5698 28.7059 65.4317 29.7033 65.2907 30.7007C65.0178 32.7092 64.8702 34.7328 64.8487 36.7596C64.8271 37.7762 64.8909 38.7928 65.0393 39.7987C65.081 40.0537 65.1457 40.3043 65.2327 40.5475C65.2767 40.675 65.3381 40.7959 65.4151 40.9066C65.4937 41.0263 65.6137 41.1129 65.7521 41.1498C65.8794 41.1998 66.0165 41.2197 66.1528 41.2078C66.2225 41.1962 66.2886 41.1684 66.3457 41.1266C66.4028 41.0849 66.4493 41.0304 66.4815 40.9674C66.5779 40.7312 66.6038 40.4721 66.5561 40.2215Z" fill="#263238"/>
<path d="M82.8848 93.0884L83.0561 96.2546L85.6808 96.1137L85.5178 93.0746C85.5178 93.0746 84.5369 91.9418 82.8848 93.0884Z" fill="#E69FBD" stroke="#263238" stroke-width="0.367849" stroke-linecap="round" stroke-linejoin="round"/>
<path d="M93.3806 99.4071C93.2438 99.4152 93.1067 99.4012 92.9744 99.3656C84.976 97.299 76.6349 99.1861 76.5521 99.2054C76.2132 99.2691 75.8628 99.1995 75.5741 99.011C75.2854 98.8225 75.0806 98.5298 75.0025 98.194C74.9244 97.8582 74.9791 97.5052 75.1551 97.2087C75.3311 96.9122 75.6148 96.6951 75.947 96.6028C76.3117 96.5171 84.9898 94.5445 93.6292 96.7796C93.9364 96.8608 94.2046 97.0488 94.3858 97.3098C94.567 97.5708 94.6493 97.8877 94.6181 98.2039C94.5868 98.5201 94.444 98.8148 94.2152 99.0353C93.9864 99.2558 93.6866 99.3876 93.3695 99.4071H93.3806Z" fill="#E69FBD" stroke="#263238" stroke-width="0.367849" stroke-linecap="round" stroke-linejoin="round"/>
<path d="M85.7609 79.5975C85.7388 79.9456 85.1061 80.1915 84.3463 80.15C83.5865 80.1086 82.987 79.7853 83.0063 79.4372C83.0257 79.0891 83.6611 78.846 84.4209 78.8847C85.1807 78.9233 85.7802 79.2494 85.7609 79.5975Z" fill="#E69FBD" stroke="#263238" stroke-width="0.367849" stroke-linecap="round" stroke-linejoin="round"/>
<path d="M86.0564 80.6252C86.0315 81.0479 85.2607 81.3463 84.3379 81.2911C83.4151 81.2358 82.6802 80.8462 82.7078 80.4235C82.7354 80.0008 83.5035 79.7024 84.429 79.7577C85.3546 79.8129 86.0812 80.2025 86.0564 80.6252Z" fill="#E69FBD" stroke="#263238" stroke-width="0.367849" stroke-linecap="round" stroke-linejoin="round"/>
<path d="M87.5285 82.2139C87.4815 83.0069 86.0338 83.5677 84.296 83.4627C82.5581 83.3578 81.1905 82.6339 81.2375 81.8354C81.2845 81.037 82.7322 80.4789 84.47 80.5839C86.2079 80.6888 87.5755 81.4182 87.5285 82.2139Z" fill="#E69FBD" stroke="#263238" stroke-width="0.367849" stroke-linecap="round" stroke-linejoin="round"/>
<path d="M89.5682 84.927C89.488 86.2366 87.1037 87.1594 84.2414 86.9853C81.3791 86.8113 79.1218 85.6039 79.1992 84.3026C79.2766 83.0013 81.6637 82.0702 84.526 82.2415C87.3883 82.4128 89.6455 83.6146 89.5682 84.927Z" fill="#E69FBD" stroke="#263238" stroke-width="0.367849" stroke-linecap="round" stroke-linejoin="round"/>
<path d="M92.5569 84.3136C93.0134 84.0606 93.5374 83.9558 94.0561 84.0137C94.5749 84.0716 95.0628 84.2894 95.4523 84.6369C96.8669 85.8581 97.1239 88.1733 96.1596 88.8806C95.1954 89.5879 95.3888 89.7813 93.5211 89.4608C91.6534 89.1403 93.651 90.4886 95.9027 89.8448C98.1544 89.2011 98.7982 87.5296 98.2815 85.4077C97.7648 83.2858 95.9027 81.7414 94.1649 82.3188C92.427 82.8963 92.5569 84.3136 92.5569 84.3136Z" fill="#263238" stroke="#263238" stroke-width="0.367849" stroke-linecap="round" stroke-linejoin="round"/>
<path d="M90.9851 82.7802C90.9851 82.7802 87.3685 84.6866 83.6248 84.2197C79.8812 83.7527 79.0496 81.4983 75.06 79.7079C71.0705 77.9176 69.1558 80.2743 69.1779 80.6915C69.2 81.1087 70.0814 80.3931 71.5705 80.8987C73.0597 81.4043 74.4273 82.7084 74.9163 85.5956C75.4054 88.4827 77.3062 91.9501 79.9475 92.8895C82.5888 93.8288 85.5644 93.2127 87.3519 92.2816C89.1395 91.3506 90.3054 89.6984 91.0182 87.4052C91.731 85.1121 93.1843 83.424 94.4359 83.377C97.218 83.2692 98.4558 86.8057 97.055 88.7811C96.0411 90.2123 93.9054 89.8393 92.9411 88.9718C91.9769 88.1042 91.778 87.5295 91.3332 88.5988C90.8884 89.668 91.2613 90.4001 92.535 90.7483C93.3668 91.098 94.2706 91.2421 95.17 91.1686C96.0693 91.095 96.9376 90.8058 97.7015 90.3255C100.412 88.6678 98.9089 83.2416 96.9031 81.7193C94.8972 80.197 92.0791 81.3408 90.9851 82.7802Z" fill="#E69FBD" stroke="#263238" stroke-width="0.367849" stroke-linecap="round" stroke-linejoin="round"/>
<path d="M85.1443 93.0884C84.705 93.0552 84.2187 93.011 83.6772 92.9502C80.4392 92.58 79.2705 89.5105 76.9027 85.0817C74.535 80.6528 71.7887 80.8877 71.7887 80.8877L71.7666 80.9733C73.1812 81.5259 74.4548 82.8299 74.9245 85.6066C75.4163 88.5048 77.3144 91.9611 79.9557 92.9005C81.6325 93.4535 83.4319 93.5187 85.1443 93.0884Z" fill="#263238" stroke="#263238" stroke-width="0.367849" stroke-linecap="round" stroke-linejoin="round"/>
<path d="M81.2235 87.513C81.2235 87.513 80.5466 87.339 80.7262 86.0349C80.9058 84.7308 80.1736 83.6395 79.4276 83.6395C78.6817 83.6395 78.8336 84.2556 79.3503 84.5209C79.6883 84.7166 79.9642 85.004 80.146 85.3497C80.146 85.3497 78.8032 85.2143 78.1706 84.3275C77.5379 83.4406 77.361 81.7387 76.162 81.1778C74.9629 80.617 75.311 81.6834 75.8857 82.1531C76.6779 82.8539 77.3086 83.7183 77.734 84.6866C78.212 85.7918 78.8613 86.2145 79.2425 86.278C79.4357 86.3132 79.6319 86.3299 79.8283 86.3278C79.9144 86.8929 80.056 87.4481 80.251 87.9855C80.5273 88.7232 81.4473 88.4634 81.4473 88.4634L81.2235 87.513Z" fill="white"/>
<path d="M83.7137 89.9526C83.7137 89.9526 82.7854 88.9994 82.4401 89.6017C82.0947 90.204 83.1556 91.2346 83.9265 90.8174C84.6973 90.4002 84.9294 88.4662 83.7496 87.5268C82.5699 86.5875 80.6442 87.2754 80.5282 88.2424C80.4121 89.2094 81.6526 89.7288 81.6526 89.7288C81.6526 89.7288 81.2078 88.4137 82.3682 88.2258C83.5286 88.038 83.8104 89.4028 83.7137 89.9526Z" fill="white"/>
<path d="M88.0562 88.2424C88.0562 88.2424 88.5922 88.1015 88.443 87.0627C88.2938 86.0238 88.863 85.1563 89.4597 85.1508C90.0565 85.1452 89.935 85.6398 89.5288 85.8525C89.26 86.0116 89.0417 86.2434 88.8989 86.5211C88.8989 86.5211 89.9681 86.4051 90.4654 85.6923C90.9627 84.9795 91.0926 83.6312 92.043 83.1753C92.9934 82.7195 92.7227 83.5732 92.2723 83.9517C91.6459 84.5132 91.1491 85.2042 90.8163 85.9769C90.4433 86.8554 89.9294 87.1953 89.6283 87.2478C89.4742 87.275 89.3179 87.288 89.1614 87.2864C89.0959 87.7335 88.9867 88.1731 88.8353 88.5988C88.6088 89.1845 87.8877 88.9856 87.8877 88.9856L88.0562 88.2424Z" fill="white"/>
<path d="M85.7851 89.9719C85.7851 89.9719 86.6361 89.0851 86.9594 89.6404C87.2826 90.1957 86.3101 91.1572 85.5917 90.7759C84.8734 90.3947 84.6496 88.6071 85.7327 87.7368C86.8157 86.8665 88.6033 87.4826 88.7165 88.375C88.8298 89.2674 87.6888 89.7564 87.6888 89.7564C87.6888 89.7564 88.0921 88.5408 87.0174 88.375C85.9426 88.2092 85.6912 89.4663 85.7851 89.9719Z" fill="white"/>
</svg>
